<?xml version="1.0" standalone="no"?>
<!DOCTYPE svg PUBLIC "-//W3C//DTD SVG 20010904//EN" "http://www.w3.org/TR/2001/REC-SVG-20010904/DTD/svg10.dtd">
<!-- Created using Krita: https://krita.org -->
<svg xmlns="http://www.w3.org/2000/svg" 
    xmlns:xlink="http://www.w3.org/1999/xlink"
    xmlns:krita="http://krita.org/namespaces/svg/krita"
    xmlns:sodipodi="http://sodipodi.sourceforge.net/DTD/sodipodi-0.dtd"
    width="1736"
    height="1000"
    viewBox="0 0 781 450">
<path id="shape0" transform="matrix(0.72 0 0 0.72 182.52 58.68)" fill="none" stroke="#cccccc" stroke-width="1" stroke-linecap="butt" stroke-linejoin="miter" stroke-miterlimit="10" d="M0 0L0 459"/>
<path id="shape1" transform="matrix(0.72 0 0 0.72 320.04 58.68)" fill="none" stroke="#cccccc" stroke-width="1" stroke-linecap="butt" stroke-linejoin="miter" stroke-miterlimit="10" d="M0 0L0 459"/>
<path id="shape2" transform="matrix(0.72 0 0 0.72 456.84 58.68)" fill="none" stroke="#cccccc" stroke-width="1" stroke-linecap="butt" stroke-linejoin="miter" stroke-miterlimit="10" d="M0 0L0 459"/>
<path id="shape3" transform="matrix(0.72 0 0 0.72 594.36 58.68)" fill="none" stroke="#cccccc" stroke-width="1" stroke-linecap="butt" stroke-linejoin="miter" stroke-miterlimit="10" d="M0 0L0 459"/>
<path id="shape4" transform="matrix(0.72 0 0 0.72 731.88 58.68)" fill="none" stroke="#cccccc" stroke-width="1" stroke-linecap="butt" stroke-linejoin="miter" stroke-miterlimit="10" d="M0 0L0 459"/>
<path id="shape5" transform="matrix(0.72 0 0 0.72 45 322.92)" fill="none" stroke="#cccccc" stroke-width="1" stroke-linecap="butt" stroke-linejoin="miter" stroke-miterlimit="10" d="M0 0L975 0"/>
<path id="shape6" transform="matrix(0.72 0 0 0.72 45 257.4)" fill="none" stroke="#cccccc" stroke-width="1" stroke-linecap="butt" stroke-linejoin="miter" stroke-miterlimit="10" d="M0 0L975 0"/>
<path id="shape7" transform="matrix(0.72 0 0 0.72 45 191.16)" fill="none" stroke="#cccccc" stroke-width="1" stroke-linecap="butt" stroke-linejoin="miter" stroke-miterlimit="10" d="M0 0L975 0"/>
<path id="shape8" transform="matrix(0.72 0 0 0.72 45 124.92)" fill="none" stroke="#cccccc" stroke-width="1" stroke-linecap="butt" stroke-linejoin="miter" stroke-miterlimit="10" d="M0 0L975 0"/>
<path id="shape9" transform="matrix(0.72 0 0 0.72 45 58.68)" fill="none" stroke="#cccccc" stroke-width="1" stroke-linecap="butt" stroke-linejoin="miter" stroke-miterlimit="10" d="M0 0L975 0"/>
<path id="shape1034" transform="matrix(0.72 0 0 0.72 313.2 30.852)" fill="none" stroke="#4285f4" stroke-width="4" stroke-linecap="butt" stroke-linejoin="miter" stroke-miterlimit="10" d="M0 0L12 0"/>
<path id="shape1035" transform="matrix(0.72 0 0 0.72 408.24 30.852)" fill="none" stroke="#ea4335" stroke-width="4" stroke-linecap="butt" stroke-linejoin="miter" stroke-miterlimit="10" d="M0 0L12 0"/>
<path id="shape1036" transform="translate(328.839977595702, 34.1599985965988)" fill="#000000" fill-rule="evenodd" stroke="#000000" stroke-opacity="0" stroke-width="0" stroke-linecap="square" stroke-linejoin="bevel" d="M4.25 -0.703125L3.92188 -0.703125C2.9375 -0.703125 2.71875 -0.78125 2.71875 -1.125C2.71875 -1.26563 2.73438 -1.3125 2.875 -1.84375L4.79688 -8.98438C5 -9.76563 5 -9.78125 5.14063 -9.92188C5.3125 -10.0781 5.51563 -10.1094 6.39063 -10.125L6.46875 -10.8281L1.82813 -10.8281L1.73438 -10.125L2.0625 -10.125C3.04688 -10.125 3.26563 -10.0469 3.26563 -9.71875C3.26563 -9.59375 3.23438 -9.42188 3.10938 -8.98438L1.1875 -1.84375C1 -1.09375 0.984375 -1.04688 0.84375 -0.921875C0.671875 -0.75 0.46875 -0.71875 -0.40625 -0.703125L-0.484375 0L4.15625 0L4.25 -0.703125M10.1406 -9.3125L8.82813 -9.3125L8.09375 -6.82813L6.6875 -6.82813L6.46875 -6.125L7.89063 -6.125L6.76563 -2.34375C6.53125 -1.57813 6.46875 -1.26563 6.46875 -0.921875C6.46875 -0.265625 6.9375 0.21875 7.5625 0.21875C8.26563 0.21875 9.09375 -0.234375 9.625 -0.9375C9.84375 -1.23438 9.98438 -1.46875 10.375 -2.09375L9.92188 -2.40625C8.98438 -0.96875 8.5625 -0.5625 8.0625 -0.5625C7.85938 -0.5625 7.71875 -0.734375 7.71875 -0.984375C7.71875 -1.10938 7.73438 -1.21875 7.76563 -1.32813L9.1875 -6.125L10.8281 -6.125L11.0313 -6.82813L9.40625 -6.82813L10.1406 -9.3125M16.4531 -1.73438C15.5625 -0.828125 14.9219 -0.484375 14.125 -0.484375C13.2344 -0.484375 12.6719 -1.07813 12.6719 -2.04688C12.6719 -2.14063 12.6875 -2.35938 12.7031 -2.54688C14.4688 -2.96875 14.7344 -3.0625 15.4375 -3.35938C16.6094 -3.875 17.2344 -4.64063 17.2344 -5.5C17.2344 -6.42188 16.5156 -7.04688 15.4531 -7.04688C13.25 -7.04688 11.2813 -4.82813 11.2813 -2.375C11.2813 -0.75 12.25 0.21875 13.875 0.21875C15.0313 0.21875 16 -0.28125 16.8125 -1.32813L16.4531 -1.73438M12.7813 -3.14063C13.125 -5.15625 14.0313 -6.45313 15.1406 -6.45313C15.6406 -6.45313 15.9688 -6.10938 15.9688 -5.59375C15.9688 -4.875 15.5 -4.23438 14.6875 -3.78125C14.1406 -3.46875 13.7656 -3.34375 12.7813 -3.14063M21.3906 -7.04688L18.6719 -6.82813L18.6094 -6.28125L18.9688 -6.28125C19.5625 -6.28125 19.8438 -6.15625 19.8438 -5.85938C19.8438 -5.76563 19.7813 -5.4375 19.6875 -5.15625L18.1563 0L19.4688 0L20.1719 -2.375C20.7188 -4.25 21.9688 -6.14063 22.6563 -6.14063C22.875 -6.14063 22.9219 -6.03125 22.9219 -5.625C22.9219 -5.21875 23.1875 -4.98438 23.6406 -4.98438C24.1406 -4.98438 24.5156 -5.39063 24.5156 -5.9375C24.5156 -6.57813 24.0156 -7.04688 23.3281 -7.04688C22.5 -7.04688 21.8281 -6.5625 21.0313 -5.3125L21.3906 -7.04688M30.625 -6.82813L30.2188 -5.46875C30.1094 -6.40625 29.3594 -7.04688 28.3906 -7.04688C27.4531 -7.04688 26.6094 -6.57813 25.9063 -5.67188C25.1406 -4.6875 24.6875 -3.42188 24.6875 -2.21875C24.6875 -0.75 25.5781 0.21875 26.9219 0.21875C27.8594 0.21875 28.4375 -0.15625 29.1875 -1.23438C29.1406 -1 29.125 -0.90625 29.125 -0.75C29.125 -0.171875 29.5 0.21875 30.0313 0.21875C30.6875 0.21875 31.2656 -0.140625 31.7969 -0.875C32.1094 -1.3125 32.3438 -1.71875 32.5313 -2.10938L32.0625 -2.375C31.4844 -1.21875 30.9688 -0.59375 30.5781 -0.59375C30.3906 -0.59375 30.2656 -0.765625 30.2656 -0.96875C30.2656 -1.14063 30.3125 -1.39063 30.4219 -1.78125L31.9219 -6.82813L30.625 -6.82813M28.6406 -6.21875C29.3438 -6.21875 29.7813 -5.73438 29.7813 -4.89063C29.7813 -4.01563 29.4844 -2.82813 29.0156 -1.89063C28.5469 -0.953125 28.0156 -0.546875 27.2656 -0.546875C26.5156 -0.546875 26.0625 -1.09375 26.0625 -2.01563C26.0625 -3.32813 26.6406 -4.875 27.4375 -5.70313C27.7656 -6.04688 28.1875 -6.21875 28.6406 -6.21875M37.3281 -9.3125L36.0156 -9.3125L35.2813 -6.82813L33.875 -6.82813L33.6563 -6.125L35.0781 -6.125L33.9531 -2.34375C33.7188 -1.57813 33.6563 -1.26563 33.6563 -0.921875C33.6563 -0.265625 34.125 0.21875 34.75 0.21875C35.4531 0.21875 36.2813 -0.234375 36.8125 -0.9375C37.0313 -1.23438 37.1719 -1.46875 37.5625 -2.09375L37.1094 -2.40625C36.1719 -0.96875 35.75 -0.5625 35.25 -0.5625C35.0469 -0.5625 34.9063 -0.734375 34.9063 -0.984375C34.9063 -1.10938 34.9219 -1.21875 34.9531 -1.32813L36.375 -6.125L38.0156 -6.125L38.2188 -6.82813L36.5938 -6.82813L37.3281 -9.3125M42.0156 -7.04688L39.1406 -6.82813L39.0781 -6.28125L39.4375 -6.28125C40.0469 -6.28125 40.2969 -6.15625 40.2969 -5.8125C40.2969 -5.67188 40.2656 -5.5 40.1563 -5.15625L39.2969 -2.23438C39 -1.28125 38.9531 -1.0625 38.9531 -0.71875C38.9531 -0.1875 39.4063 0.203125 39.9844 0.203125C40.6406 0.203125 41.25 -0.140625 41.8594 -0.828125C42.125 -1.125 42.3594 -1.45313 42.7813 -2.09375L42.3125 -2.35938C41.5469 -1.17188 40.9063 -0.546875 40.5 -0.546875C40.3594 -0.546875 40.25 -0.671875 40.25 -0.859375C40.25 -1 40.3125 -1.28125 40.4219 -1.6875L42.0156 -7.04688M41.75 -10.7031C41.2969 -10.7031 40.9375 -10.3438 40.9375 -9.90625C40.9375 -9.46875 41.2969 -9.09375 41.7344 -9.09375C42.2031 -9.09375 42.5625 -9.45313 42.5625 -9.90625C42.5625 -10.3438 42.2031 -10.7031 41.75 -10.7031M47.6406 -7.04688C46.6406 -7.04688 45.7031 -6.59375 44.875 -5.76563C44.0313 -4.90625 43.6094 -3.84375 43.6094 -2.57813C43.6094 -0.859375 44.6563 0.21875 46.2813 0.21875C47.375 0.21875 48.2813 -0.1875 49.0156 -1C49.8281 -1.90625 50.2813 -3.09375 50.2813 -4.21875C50.2813 -5.78125 49.0938 -7.04688 47.6406 -7.04688M47.5625 -6.48438C48.3906 -6.48438 48.8594 -5.79688 48.8594 -4.64063C48.8594 -3.85938 48.5625 -2.65625 48.1563 -1.82813C47.6563 -0.796875 47.0938 -0.34375 46.2969 -0.34375C45.4219 -0.34375 44.9688 -0.90625 44.9688 -1.92188C44.9688 -3.1875 45.4688 -4.84375 46.0938 -5.67188C46.5156 -6.20313 46.9844 -6.48438 47.5625 -6.48438M54.4688 -7.04688L51.7656 -6.82813L51.7031 -6.28125L52.0625 -6.28125C52.6719 -6.28125 52.9063 -6.15625 52.9063 -5.8125C52.9063 -5.67188 52.8906 -5.5 52.7813 -5.15625L51.25 0L52.5469 0L53.1719 -2.07813C53.5625 -3.39063 53.7344 -3.8125 54.2813 -4.60938C54.9219 -5.5625 55.7188 -6.15625 56.3594 -6.15625C56.7031 -6.15625 56.9688 -5.875 56.9688 -5.53125C56.9688 -5.26563 56.9063 -4.96875 56.7344 -4.48438L55.9375 -2.14063C55.75 -1.54688 55.6719 -1.21875 55.6719 -0.90625C55.6719 -0.25 56.125 0.21875 56.7031 0.21875C57.6719 0.21875 58.6563 -0.578125 59.4688 -2.03125L59.0313 -2.34375C58.2656 -1.14063 57.6406 -0.546875 57.1563 -0.546875C57.0313 -0.546875 56.9063 -0.65625 56.9063 -0.828125C56.9063 -0.984375 56.9531 -1.17188 57.1875 -1.82813L57.8906 -3.90625C58.1406 -4.59375 58.25 -5.15625 58.25 -5.59375C58.25 -6.39063 57.6094 -7.04688 56.8125 -7.04688C55.9219 -7.04688 55.0469 -6.40625 54.0313 -5.03125L54.4688 -7.04688M63.8594 -7.04688C62.2813 -7.04688 61.1406 -6.09375 61.1406 -4.78125C61.1406 -4.14063 61.5156 -3.59375 62.1719 -3.25C62.4219 -3.14063 62.7188 -3 63.3438 -2.75C64.2031 -2.40625 64.4063 -2.1875 64.4063 -1.67188C64.4063 -0.859375 63.7344 -0.34375 62.7031 -0.34375C61.9375 -0.34375 61.3906 -0.5625 61.3906 -0.859375C61.3906 -0.9375 61.4375 -1.01563 61.5 -1.07813C61.7813 -1.375 61.8125 -1.45313 61.8125 -1.71875C61.8125 -2.14063 61.4844 -2.46875 61.0469 -2.46875C60.5625 -2.46875 60.1875 -2.0625 60.1875 -1.46875C60.1875 -0.421875 61.1094 0.21875 62.625 0.21875C64.3438 0.21875 65.5313 -0.71875 65.5313 -2.07813C65.5313 -2.6875 65.2656 -3.1875 64.7813 -3.53125C64.4531 -3.75 64.3125 -3.8125 63.4844 -4.10938C62.5 -4.45313 62.25 -4.6875 62.25 -5.28125C62.25 -5.96875 62.9219 -6.48438 63.7969 -6.48438C64.375 -6.48438 64.7656 -6.3125 64.7656 -6.07813C64.7656 -6.01563 64.7344 -5.9375 64.6875 -5.85938C64.4688 -5.5625 64.4375 -5.48438 64.4375 -5.26563C64.4375 -4.85938 64.7656 -4.57813 65.2344 -4.57813C65.75 -4.57813 66.0938 -4.95313 66.0938 -5.48438C66.0938 -6.40625 65.1719 -7.04688 63.8594 -7.04688"/>
<path id="shape1037" transform="matrix(1.0000000031039 0 0 1.0000000031039 424.149357782245 34.1599987150437)" fill="#000000" fill-rule="evenodd" stroke="#000000" stroke-opacity="0" stroke-width="0" stroke-linecap="square" stroke-linejoin="bevel" d="M8.84375 -3.79688L7.62153 -1.95313L6.25347 -0.994792L4.4375 -0.703125L3.79688 -0.703125L2.98047 -0.810547L2.75 -1.1875L2.77734 -1.46094L2.92188 -2.01563L4.79688 -8.98438L4.98633 -9.6875L5.14063 -9.92188L5.51172 -10.0703L6.375 -10.125L6.71875 -10.125L6.79688 -10.8281L1.76563 -10.8281L1.67188 -10.125L2.0625 -10.125L3.01953 -10.0449L3.25 -9.71875L3.20898 -9.42188L3.10938 -8.98438L1.1875 -1.84375L0.998047 -1.1543L0.84375 -0.921875L0.460938 -0.753906L-0.390625 -0.703125L-0.46875 -0.703125L-0.546875 0L8.28125 0L9.45313 -3.67188L8.84375 -3.79688M14.1094 -7.04688L12.6621 -6.7168L11.3438 -5.76563L10.3945 -4.32422L10.0781 -2.57813L10.8047 -0.535156L12.75 0.21875L14.252 -0.0859375L15.4844 -1L16.4219 -2.52734L16.75 -4.21875L15.9746 -6.21875L14.1094 -7.04688M14.0313 -6.48438L14.9902 -5.99609L15.3281 -4.64063L15.1289 -3.25195L14.625 -1.82813L13.8066 -0.699219L12.7656 -0.34375L11.7734 -0.751953L11.4375 -1.92188L11.7656 -3.96094L12.5625 -5.67188L13.2383 -6.27734L14.0313 -6.48438M23.2344 -6.48438L23.5391 -6.70117L23.7969 -6.76563L23.998 -6.70703L24.1875 -6.53125L24.4688 -6.20703L24.75 -6.14063L25.1836 -6.32813L25.3594 -6.79688L25.082 -7.35156L24.4063 -7.57813L23.6484 -7.40039L22.7031 -6.76563L22.0605 -6.98242L21.4063 -7.04688L19.2461 -6.28125L18.3281 -4.48438L18.5566 -3.5625L19.2656 -2.92188L18.4648 -2.75586L17.9219 -2.4375L17.5684 -1.9707L17.4375 -1.42188L17.627 -0.785156L18.25 -0.3125L17.5469 -0.130859L17.0781 0.109375L16.541 0.644531L16.3438 1.34375L16.4863 1.95508L16.875 2.4375L17.8945 2.89258L19.4063 3.03125L21.2188 2.87891L22.4688 2.375L23.2305 1.5957L23.5 0.59375L23.291 -0.189453L22.7188 -0.75L21.9258 -1.03125L20.7344 -1.17188L19.4922 -1.25391L19.0938 -1.3125L18.6797 -1.50586L18.5469 -1.82813L18.793 -2.26758L19.4375 -2.4375L19.748 -2.42578L20.0469 -2.39063L20.6797 -2.30078L21.125 -2.28125L22.2578 -2.43555L23.1563 -2.90625L23.8633 -3.77734L24.125 -4.8125L23.9023 -5.75391L23.2344 -6.48438M21.5156 -6.48438L22.4414 -6.1582L22.7813 -5.28125L22.6172 -4.22461L22.1719 -3.34375L21.6699 -2.96875L21.0156 -2.82813L20.0547 -3.19141L19.7031 -4.1875L20.2051 -5.83984L21.5156 -6.48438M19.6875 -0.046875L20.8574 0.046875L21.7813 0.234375L22.2031 0.556641L22.3438 1.03125L21.6523 2.05273L19.6719 2.40625L18.0645 2.12695L17.5469 1.25L18.1074 0.296875L19.6875 -0.046875"/>
<path id="shape1038" transform="matrix(0.99999997142494 0 0 0.99999997142494 448.75403174263 38.5599983779625)" fill="#000000" fill-rule="evenodd" stroke="#000000" stroke-opacity="0" stroke-width="0" stroke-linecap="square" stroke-linejoin="bevel" d="M5.21875 -2.48438L4.90625 -1.9375C4.4375 -1.10938 4.32813 -1.03125 3.71875 -1.01563L0.9375 -1.01563C1.23438 -1.40625 1.75 -1.84375 2.71875 -2.51563C4.29688 -3.60938 4.40625 -3.6875 4.75 -3.95313C5.70313 -4.6875 6.09375 -5.39063 6.09375 -6.34375C6.09375 -7.60938 5.15625 -8.4375 3.78125 -8.4375C2.25 -8.4375 0.921875 -7.3125 0.921875 -6.01563C0.921875 -5.34375 1.28125 -4.90625 1.85938 -4.90625C2.28125 -4.90625 2.625 -5.23438 2.625 -5.67188C2.625 -5.98438 2.46875 -6.1875 2.0625 -6.40625C1.78125 -6.54688 1.73438 -6.60938 1.73438 -6.75C1.73438 -7.26563 2.625 -7.84375 3.4375 -7.84375C4.28125 -7.84375 4.84375 -7.28125 4.84375 -6.4375C4.84375 -5.54688 4.4375 -4.875 3.35938 -3.95313C0.171875 -1.17188 -0.3125 -0.671875 -0.40625 0L4.73438 0L5.65625 -2.3125L5.21875 -2.48438"/>
<path id="shape1039" transform="matrix(1.00000000304202 0 0 1.00000000304202 343.034357371263 427.599975808386)" fill="#000000" fill-rule="evenodd" stroke="#000000" stroke-opacity="0" stroke-width="0" stroke-linecap="square" stroke-linejoin="bevel" d="M3.71875 -4.76563L3.98438 -4.76563L6.12037 -4.80613L7.364 -4.98553L8.3125 -5.39063L9.53125 -6.50977L9.95313 -8.10938L9.66797 -9.36719L8.84375 -10.2969L7.80469 -10.7031L6.25 -10.8281L1.82813 -10.8281L1.73438 -10.125L2.125 -10.125L3.08203 -10.0449L3.3125 -9.71875L3.27148 -9.42188L3.17188 -8.98438L1.25 -1.84375L1.06055 -1.14258L0.90625 -0.921875L0.515625 -0.759766L-0.34375 -0.703125L-0.40625 -0.703125L-0.484375 0L4.28125 0L4.35938 -0.703125L3.96875 -0.703125L3.01172 -0.783203L2.78125 -1.10938L2.82422 -1.38867L2.9375 -1.84375L3.71875 -4.76563M3.90625 -5.46875L4.95313 -9.40625L5.24414 -9.9707L5.92188 -10.125L6.09375 -10.125L6.84375 -10.0723L7.40625 -9.9375L8.04688 -9.34375L8.26563 -8.28125L8.00195 -6.9375L7.28125 -5.96875L6.49609 -5.59961L5.54688 -5.45313L4.1875 -5.46875L3.90625 -5.46875M14.1094 -7.04688L12.6621 -6.7168L11.3438 -5.76563L10.3945 -4.32422L10.0781 -2.57813L10.8047 -0.535156L12.75 0.21875L14.252 -0.0859375L15.4844 -1L16.4219 -2.52734L16.75 -4.21875L15.9746 -6.21875L14.1094 -7.04688M14.0313 -6.48438L14.9902 -5.99609L15.3281 -4.64063L15.1289 -3.25195L14.625 -1.82813L13.8066 -0.699219L12.7656 -0.34375L11.7734 -0.751953L11.4375 -1.92188L11.7656 -3.96094L12.5625 -5.67188L13.2383 -6.27734L14.0313 -6.48438M20.875 -7.04688L18.1094 -6.82813L18.0469 -6.28125L18.2969 -6.28125L18.9531 -6.17578L19.1406 -5.8125L19.1074 -5.52539L19.0156 -5.15625L18.25 -2.5L18.0469 -1.76172L17.9844 -1.23438L18.4258 -0.173828L19.5938 0.21875L20.5352 0.0214844L21.3594 -0.5625L21.8711 -1.125L22.5 -2.01563L22.4785 -1.67969L22.4688 -1.39063L22.9121 -0.216797L24.0938 0.21875L25.4805 -0.193359L26.7031 -1.53125L27.4398 -2.94502L27.9404 -4.47685L28.125 -5.85938L27.8574 -6.71094L27.2031 -7.04688L26.7051 -6.83008L26.5 -6.29688L26.5703 -5.95898L26.8281 -5.60938L27.1738 -5.15234L27.25 -4.76563L27.0527 -3.70117L26.5625 -2.48438L25.541 -1.05469L24.4844 -0.5625L23.877 -0.851563L23.6563 -1.65625L23.7344 -2.49414L24 -3.57813L24.9844 -6.82813L23.6719 -6.82813L22.9219 -4.3125L22.4023 -2.9707L21.625 -1.6875L20.8262 -0.84375L20.0625 -0.5625L19.502 -0.777344L19.2813 -1.29688L19.3242 -1.73047L19.5781 -2.65625L20.875 -7.04688M34.25 -1.73438L33.0508 -0.769531L31.9219 -0.484375L30.8613 -0.902344L30.4688 -2.04688L30.4785 -2.26172L30.5 -2.54688L32.2656 -3L33.2344 -3.35938L34.5723 -4.30078L35.0313 -5.5L34.5391 -6.61914L33.25 -7.04688L31.1892 -6.38079L29.6701 -4.6765L29.0781 -2.375L29.7656 -0.46875L31.6719 0.21875L33.2695 -0.162109L34.6094 -1.32813L34.25 -1.73438M30.5781 -3.14063L31.4707 -5.55273L32.9375 -6.45313L33.5391 -6.2168L33.7656 -5.59375L33.4297 -4.58789L32.4844 -3.78125L31.6953 -3.41992L30.5781 -3.14063M39.1875 -7.04688L36.4688 -6.82813L36.4063 -6.28125L36.7656 -6.28125L37.4258 -6.18164L37.6406 -5.85938L37.5977 -5.57813L37.4844 -5.15625L35.9531 0L37.2656 0L37.9688 -2.375L39.1582 -4.96094L40.4531 -6.14063L40.668 -6.03516L40.7188 -5.625L40.9082 -5.15234L41.4375 -4.98438L42.0625 -5.25586L42.3125 -5.9375L41.9766 -6.73242L41.125 -7.04688L39.9648 -6.64844L38.8281 -5.3125L39.1875 -7.04688M46.1406 -7.04688L44.1895 -6.40625L43.4219 -4.78125L43.6914 -3.9043L44.4531 -3.25L44.8984 -3.05273L45.625 -2.75L46.4785 -2.27539L46.6875 -1.67188L46.2227 -0.703125L44.9844 -0.34375L44.041 -0.490234L43.6719 -0.859375L43.7031 -0.974609L43.7813 -1.07813L44.043 -1.41016L44.0938 -1.71875L43.875 -2.25195L43.3281 -2.46875L42.7168 -2.19141L42.4688 -1.46875L43.1191 -0.232422L44.9063 0.21875L47.0039 -0.419922L47.8125 -2.07813L47.6191 -2.9043L47.0625 -3.53125L46.6016 -3.79102L45.7656 -4.10938L44.7793 -4.60156L44.5313 -5.28125L44.9766 -6.14063L46.0781 -6.48438L46.7793 -6.36914L47.0469 -6.07813L47.0254 -5.97461L46.9688 -5.85938L46.7617 -5.5332L46.7188 -5.26563L46.9414 -4.76953L47.5156 -4.57813L48.1387 -4.83203L48.375 -5.48438L47.75 -6.61133L46.1406 -7.04688M57.3906 -7.04688L55.9434 -6.7168L54.625 -5.76563L53.6758 -4.32422L53.3594 -2.57813L54.0859 -0.535156L56.0313 0.21875L57.5332 -0.0859375L58.7656 -1L59.7031 -2.52734L60.0313 -4.21875L59.2559 -6.21875L57.3906 -7.04688M57.3125 -6.48438L58.2715 -5.99609L58.6094 -4.64063L58.4102 -3.25195L57.9063 -1.82813L57.0879 -0.699219L56.0469 -0.34375L55.0547 -0.751953L54.7188 -1.92188L55.0469 -3.96094L55.8438 -5.67188L56.5195 -6.27734L57.3125 -6.48438M64.0781 -6.82813L64.4629 -8.27539L64.8125 -9.21875L65.3984 -10.207L66.125 -10.5156L66.3867 -10.4434L66.4844 -10.2656L66.4668 -10.1602L66.3906 -9.98438L66.2793 -9.76758L66.25 -9.5625L66.4766 -9.08594L67.0313 -8.89063L67.6133 -9.11914L67.8438 -9.6875L67.377 -10.6602L66.1719 -11.0469L64.8633 -10.6602L63.8125 -9.54688L63.2715 -8.43359L62.7656 -6.82813L61.4688 -6.82813L61.2656 -6.125L62.6094 -6.125L61.9844 -3.51563L61.6471 -2.18225L61.2551 -0.851125L60.8099 0.468L60.3129 1.76538L59.7656 3.03125L61.4219 2.76563L61.7627 1.75513L62.2031 0.341797L62.6436 -1.15649L62.9844 -2.42188L63.9063 -6.125L65.7969 -6.125L66.0156 -6.82813L64.0781 -6.82813M73.9688 -9.3125L72.6563 -9.3125L71.9219 -6.82813L70.5156 -6.82813L70.2969 -6.125L71.7188 -6.125L70.5938 -2.34375C70.3594 -1.57813 70.2969 -1.26563 70.2969 -0.921875C70.2969 -0.265625 70.7656 0.21875 71.3906 0.21875C72.0938 0.21875 72.9219 -0.234375 73.4531 -0.9375C73.6719 -1.23438 73.8125 -1.46875 74.2031 -2.09375L73.75 -2.40625C72.8125 -0.96875 72.3906 -0.5625 71.8906 -0.5625C71.6875 -0.5625 71.5469 -0.734375 71.5469 -0.984375C71.5469 -1.10938 71.5625 -1.21875 71.5938 -1.32813L73.0156 -6.125L74.6563 -6.125L74.8594 -6.82813L73.2344 -6.82813L73.9688 -9.3125M78.5625 -7.04688L75.7969 -6.82813L75.7344 -6.28125L75.9844 -6.28125C76.6094 -6.28125 76.8281 -6.15625 76.8281 -5.8125C76.8281 -5.65625 76.7813 -5.42188 76.7031 -5.15625L75.9375 -2.5C75.75 -1.90625 75.6719 -1.54688 75.6719 -1.23438C75.6719 -0.34375 76.3125 0.21875 77.2813 0.21875C77.9375 0.21875 78.5469 -0.046875 79.0469 -0.5625C79.4219 -0.9375 79.6563 -1.20313 80.1875 -2.01563C80.1719 -1.78125 80.1563 -1.5625 80.1563 -1.39063C80.1563 -0.40625 80.7969 0.21875 81.7813 0.21875C82.7969 0.21875 83.5938 -0.296875 84.3906 -1.53125C85.2188 -2.79688 85.8125 -4.64063 85.8125 -5.85938C85.8125 -6.54688 85.4063 -7.04688 84.8906 -7.04688C84.5 -7.04688 84.1875 -6.71875 84.1875 -6.29688C84.1875 -6.04688 84.2656 -5.875 84.5156 -5.60938C84.875 -5.20313 84.9375 -5.07813 84.9375 -4.76563C84.9375 -4.20313 84.6406 -3.25 84.25 -2.48438C83.5938 -1.23438 82.875 -0.5625 82.1719 -0.5625C81.6563 -0.5625 81.3438 -0.96875 81.3438 -1.65625C81.3438 -2.1875 81.4375 -2.71875 81.6875 -3.57813L82.6719 -6.82813L81.3594 -6.82813L80.6094 -4.3125C80.3594 -3.40625 79.9063 -2.51563 79.3125 -1.6875C78.7656 -0.9375 78.25 -0.5625 77.75 -0.5625C77.2969 -0.5625 76.9688 -0.890625 76.9688 -1.29688C76.9688 -1.625 76.9844 -1.67188 77.2656 -2.65625L78.5625 -7.04688M90.9531 -7.04688C89.9531 -7.04688 89.0156 -6.59375 88.1875 -5.76563C87.3438 -4.90625 86.9219 -3.84375 86.9219 -2.57813C86.9219 -0.859375 87.9688 0.21875 89.5938 0.21875C90.6875 0.21875 91.5938 -0.1875 92.3281 -1C93.1406 -1.90625 93.5938 -3.09375 93.5938 -4.21875C93.5938 -5.78125 92.4063 -7.04688 90.9531 -7.04688M90.875 -6.48438C91.7031 -6.48438 92.1719 -5.79688 92.1719 -4.64063C92.1719 -3.85938 91.875 -2.65625 91.4688 -1.82813C90.9688 -0.796875 90.4063 -0.34375 89.6094 -0.34375C88.7344 -0.34375 88.2813 -0.90625 88.2813 -1.92188C88.2813 -3.1875 88.7813 -4.84375 89.4063 -5.67188C89.8281 -6.20313 90.2969 -6.48438 90.875 -6.48438"/>
<path id="shape1040" transform="matrix(1.00000000304202 0 0 1.00000000304202 172.034369901631 402.199973051706)" fill="#000000" fill-rule="evenodd" stroke="#000000" stroke-opacity="0" stroke-width="0" stroke-linecap="square" stroke-linejoin="bevel" d="M3.54688 -7.75C3.17188 -7.29688 2.15625 -6.95313 1.14063 -6.9375L1.14063 -6.45313L2.10938 -6.45313C2.75 -6.45313 2.8125 -6.375 2.79688 -5.76563L2.79688 -1.35938C2.79688 -0.796875 2.79688 -0.765625 2.73438 -0.671875C2.64063 -0.5625 2.4375 -0.515625 1.8125 -0.515625L1.09375 -0.515625L1.09375 0L5.45313 0L5.45313 -0.515625L4.85938 -0.515625C4.23438 -0.515625 4.03125 -0.5625 3.9375 -0.671875C3.85938 -0.765625 3.85938 -0.78125 3.85938 -1.35938L3.85938 -5.89063C3.85938 -6.51563 3.89063 -7.03125 3.9375 -7.75L3.54688 -7.75M9.23438 -7.75C7.6875 -7.75 6.57813 -6.07813 6.57813 -3.76563C6.57813 -1.5 7.65625 0.171875 9.14063 0.171875C10.6875 0.171875 11.7656 -1.4375 11.7656 -3.73438C11.7656 -4.89063 11.5156 -5.85938 11.0625 -6.625C10.625 -7.3125 9.92188 -7.75 9.23438 -7.75M9.15625 -7.26563C9.51563 -7.26563 9.875 -7.03125 10.1406 -6.59375C10.4375 -6.07813 10.5313 -5.45313 10.5313 -3.9375C10.5313 -2.39063 10.4531 -1.65625 10.2344 -1.17188C9.98438 -0.640625 9.57813 -0.3125 9.17188 -0.3125C8.79688 -0.3125 8.45313 -0.546875 8.1875 -0.984375C7.875 -1.5 7.79688 -2.1875 7.79688 -4C7.79688 -5.28125 7.875 -5.92188 8.09375 -6.40625C8.34375 -6.95313 8.73438 -7.26563 9.15625 -7.26563M15.3438 -7.75C13.7969 -7.75 12.6875 -6.07813 12.6875 -3.76563C12.6875 -1.5 13.7656 0.171875 15.25 0.171875C16.7969 0.171875 17.875 -1.4375 17.875 -3.73438C17.875 -4.89063 17.625 -5.85938 17.1719 -6.625C16.7344 -7.3125 16.0313 -7.75 15.3438 -7.75M15.2656 -7.26563C15.625 -7.26563 15.9844 -7.03125 16.25 -6.59375C16.5469 -6.07813 16.6406 -5.45313 16.6406 -3.9375C16.6406 -2.39063 16.5625 -1.65625 16.3438 -1.17188C16.0938 -0.640625 15.6875 -0.3125 15.2813 -0.3125C14.9063 -0.3125 14.5625 -0.546875 14.2969 -0.984375C13.9844 -1.5 13.9063 -2.1875 13.9063 -4C13.9063 -5.28125 13.9844 -5.92188 14.2031 -6.40625C14.4531 -6.95313 14.8438 -7.26563 15.2656 -7.26563"/>
<path id="shape1041" transform="matrix(0.999999973606209 0 0 0.999999973606209 310.417180364792 402.599961122885)" fill="#000000" fill-rule="evenodd" stroke="#000000" stroke-opacity="0" stroke-width="0" stroke-linecap="square" stroke-linejoin="bevel" d="M5.5625 -2.375L5.07813 -2.375L4.96875 -1.8125C4.8125 -1.09375 4.73438 -1.03125 4.04688 -1.03125L1.57813 -1.03125C2.34375 -1.82813 2.59375 -2.0625 3.29688 -2.60938C4.29688 -3.375 4.73438 -3.76563 4.98438 -4.09375C5.32813 -4.57813 5.51563 -5.0625 5.51563 -5.59375C5.51563 -6.85938 4.48438 -7.75 3.03125 -7.75C1.64063 -7.75 0.578125 -6.85938 0.578125 -5.67188C0.578125 -4.98438 0.921875 -4.51563 1.4375 -4.51563C1.84375 -4.51563 2.125 -4.78125 2.125 -5.1875C2.125 -5.45313 1.96875 -5.70313 1.73438 -5.8125C1.32813 -5.96875 1.3125 -6 1.3125 -6.14063C1.3125 -6.29688 1.42188 -6.5625 1.57813 -6.75C1.84375 -7.07813 2.29688 -7.26563 2.8125 -7.26563C3.73438 -7.26563 4.26563 -6.71875 4.26563 -5.78125C4.26563 -4.96875 3.89063 -4.23438 2.96875 -3.26563C2.15625 -2.40625 1.65625 -1.875 1.46875 -1.65625C1.0625 -1.20313 0.875 -0.953125 0.390625 -0.3125L0.390625 0L5.34375 0L5.5625 -2.375M9.23438 -7.75C7.6875 -7.75 6.57813 -6.07813 6.57813 -3.76563C6.57813 -1.5 7.65625 0.171875 9.14063 0.171875C10.6875 0.171875 11.7656 -1.4375 11.7656 -3.73438C11.7656 -4.89063 11.5156 -5.85938 11.0625 -6.625C10.625 -7.3125 9.92188 -7.75 9.23438 -7.75M9.15625 -7.26563C9.51563 -7.26563 9.875 -7.03125 10.1406 -6.59375C10.4375 -6.07813 10.5313 -5.45313 10.5313 -3.9375C10.5313 -2.39063 10.4531 -1.65625 10.2344 -1.17188C9.98438 -0.640625 9.57813 -0.3125 9.17188 -0.3125C8.79688 -0.3125 8.45313 -0.546875 8.1875 -0.984375C7.875 -1.5 7.79688 -2.1875 7.79688 -4C7.79688 -5.28125 7.875 -5.92188 8.09375 -6.40625C8.34375 -6.95313 8.73438 -7.26563 9.15625 -7.26563M15.3438 -7.75C13.7969 -7.75 12.6875 -6.07813 12.6875 -3.76563C12.6875 -1.5 13.7656 0.171875 15.25 0.171875C16.7969 0.171875 17.875 -1.4375 17.875 -3.73438C17.875 -4.89063 17.625 -5.85938 17.1719 -6.625C16.7344 -7.3125 16.0313 -7.75 15.3438 -7.75M15.2656 -7.26563C15.625 -7.26563 15.9844 -7.03125 16.25 -6.59375C16.5469 -6.07813 16.6406 -5.45313 16.6406 -3.9375C16.6406 -2.39063 16.5625 -1.65625 16.3438 -1.17188C16.0938 -0.640625 15.6875 -0.3125 15.2813 -0.3125C14.9063 -0.3125 14.5625 -0.546875 14.2969 -0.984375C13.9844 -1.5 13.9063 -2.1875 13.9063 -4C13.9063 -5.28125 13.9844 -5.92188 14.2031 -6.40625C14.4531 -6.95313 14.8438 -7.26563 15.2656 -7.26563"/>
<path id="shape1042" transform="matrix(0.999999958902486 0 0 0.999999958902486 447.84999308087 401.999955063435)" fill="#000000" fill-rule="evenodd" stroke="#000000" stroke-opacity="0" stroke-width="0" stroke-linecap="square" stroke-linejoin="bevel" d="M3.8125 -4.04688C4.8125 -4.40625 5.26563 -4.96875 5.26563 -5.85938C5.26563 -7.01563 4.39063 -7.75 3.03125 -7.75C1.73438 -7.75 0.765625 -6.98438 0.765625 -5.98438C0.765625 -5.53125 1.0625 -5.21875 1.48438 -5.21875C1.875 -5.21875 2.14063 -5.48438 2.14063 -5.875C2.14063 -6.10938 2.04688 -6.26563 1.79688 -6.4375C1.6875 -6.51563 1.65625 -6.5625 1.65625 -6.64063C1.65625 -6.9375 2.28125 -7.26563 2.92188 -7.26563C3.70313 -7.26563 4.125 -6.78125 4.125 -5.84375C4.125 -4.8125 3.70313 -4.28125 2.92188 -4.28125C2.82813 -4.28125 2.64063 -4.29688 2.46875 -4.29688C2.39063 -4.3125 2.29688 -4.3125 2.23438 -4.3125C2 -4.3125 1.875 -4.21875 1.875 -4.01563C1.875 -3.82813 1.98438 -3.73438 2.23438 -3.73438C2.29688 -3.73438 2.39063 -3.73438 2.48438 -3.75C2.70313 -3.76563 2.875 -3.76563 3 -3.76563C3.8125 -3.76563 4.25 -3.17188 4.25 -2.09375C4.25 -0.953125 3.70313 -0.3125 2.71875 -0.3125C2.03125 -0.3125 1.28125 -0.6875 1.28125 -1.01563C1.28125 -1.125 1.3125 -1.14063 1.51563 -1.26563C1.8125 -1.45313 1.9375 -1.64063 1.9375 -1.92188C1.9375 -2.3125 1.64063 -2.60938 1.25 -2.60938C0.78125 -2.60938 0.46875 -2.21875 0.46875 -1.64063C0.46875 -0.578125 1.45313 0.171875 2.85938 0.171875C4.45313 0.171875 5.48438 -0.71875 5.48438 -2.0625C5.48438 -3.10938 4.95313 -3.73438 3.8125 -4.04688M9.23438 -7.75C7.6875 -7.75 6.57813 -6.07813 6.57813 -3.76563C6.57813 -1.5 7.65625 0.171875 9.14063 0.171875C10.6875 0.171875 11.7656 -1.4375 11.7656 -3.73438C11.7656 -4.89063 11.5156 -5.85938 11.0625 -6.625C10.625 -7.3125 9.92188 -7.75 9.23438 -7.75M9.15625 -7.26563C9.51563 -7.26563 9.875 -7.03125 10.1406 -6.59375C10.4375 -6.07813 10.5313 -5.45313 10.5313 -3.9375C10.5313 -2.39063 10.4531 -1.65625 10.2344 -1.17188C9.98438 -0.640625 9.57813 -0.3125 9.17188 -0.3125C8.79688 -0.3125 8.45313 -0.546875 8.1875 -0.984375C7.875 -1.5 7.79688 -2.1875 7.79688 -4C7.79688 -5.28125 7.875 -5.92188 8.09375 -6.40625C8.34375 -6.95313 8.73438 -7.26563 9.15625 -7.26563M15.3438 -7.75C13.7969 -7.75 12.6875 -6.07813 12.6875 -3.76563C12.6875 -1.5 13.7656 0.171875 15.25 0.171875C16.7969 0.171875 17.875 -1.4375 17.875 -3.73438C17.875 -4.89063 17.625 -5.85938 17.1719 -6.625C16.7344 -7.3125 16.0313 -7.75 15.3438 -7.75M15.2656 -7.26563C15.625 -7.26563 15.9844 -7.03125 16.25 -6.59375C16.5469 -6.07813 16.6406 -5.45313 16.6406 -3.9375C16.6406 -2.39063 16.5625 -1.65625 16.3438 -1.17188C16.0938 -0.640625 15.6875 -0.3125 15.2813 -0.3125C14.9063 -0.3125 14.5625 -0.546875 14.2969 -0.984375C13.9844 -1.5 13.9063 -2.1875 13.9063 -4C13.9063 -5.28125 13.9844 -5.92188 14.2031 -6.40625C14.4531 -6.95313 14.8438 -7.26563 15.2656 -7.26563"/>
<path id="shape1043" transform="matrix(0.999999901817383 0 0 0.999999901817383 722.715586930284 402.799946451291)" fill="#000000" fill-rule="evenodd" stroke="#000000" stroke-opacity="0" stroke-width="0" stroke-linecap="square" stroke-linejoin="bevel" d="M1.79688 -6.5C2.39063 -6.35938 2.70313 -6.3125 3.14063 -6.3125C4.07813 -6.3125 4.75 -6.64063 5.10938 -7.25C5.23438 -7.45313 5.28125 -7.5625 5.28125 -7.64063C5.28125 -7.71875 5.26563 -7.75 5.1875 -7.75C5.15625 -7.75 5.10938 -7.73438 5.04688 -7.70313C4.51563 -7.46875 4.21875 -7.42188 3.59375 -7.42188C2.875 -7.42188 2.4375 -7.48438 1.3125 -7.75C1.28125 -6.82813 1.17188 -5.64063 1.01563 -4.28125C0.796875 -4.03125 0.71875 -3.89063 0.71875 -3.71875C0.71875 -3.48438 0.859375 -3.34375 1.0625 -3.34375C1.35938 -3.34375 1.51563 -3.57813 1.5625 -4.01563C1.95313 -4.29688 2.3125 -4.40625 2.75 -4.40625C3.73438 -4.40625 4.32813 -3.65625 4.32813 -2.39063C4.32813 -1.65625 4.14063 -1.03125 3.8125 -0.6875C3.59375 -0.46875 3.14063 -0.3125 2.6875 -0.3125C2.03125 -0.3125 1.34375 -0.65625 1.34375 -0.984375C1.34375 -1.0625 1.40625 -1.15625 1.54688 -1.23438C1.875 -1.4375 1.98438 -1.57813 1.98438 -1.875C1.98438 -2.26563 1.6875 -2.5625 1.28125 -2.5625C0.84375 -2.5625 0.5 -2.15625 0.5 -1.64063C0.5 -1.09375 0.8125 -0.546875 1.3125 -0.203125C1.6875 0.046875 2.125 0.171875 2.70313 0.171875C4.4375 0.171875 5.51563 -0.84375 5.51563 -2.46875C5.51563 -3.95313 4.53125 -4.96875 3.03125 -4.96875C2.5625 -4.96875 2.21875 -4.89063 1.625 -4.625L1.79688 -6.5M9.23438 -7.75C7.6875 -7.75 6.57813 -6.07813 6.57813 -3.76563C6.57813 -1.5 7.65625 0.171875 9.14063 0.171875C10.6875 0.171875 11.7656 -1.4375 11.7656 -3.73438C11.7656 -4.89063 11.5156 -5.85938 11.0625 -6.625C10.625 -7.3125 9.92188 -7.75 9.23438 -7.75M9.15625 -7.26563C9.51563 -7.26563 9.875 -7.03125 10.1406 -6.59375C10.4375 -6.07813 10.5313 -5.45313 10.5313 -3.9375C10.5313 -2.39063 10.4531 -1.65625 10.2344 -1.17188C9.98438 -0.640625 9.57813 -0.3125 9.17188 -0.3125C8.79688 -0.3125 8.45313 -0.546875 8.1875 -0.984375C7.875 -1.5 7.79688 -2.1875 7.79688 -4C7.79688 -5.28125 7.875 -5.92188 8.09375 -6.40625C8.34375 -6.95313 8.73438 -7.26563 9.15625 -7.26563M15.3438 -7.75C13.7969 -7.75 12.6875 -6.07813 12.6875 -3.76563C12.6875 -1.5 13.7656 0.171875 15.25 0.171875C16.7969 0.171875 17.875 -1.4375 17.875 -3.73438C17.875 -4.89063 17.625 -5.85938 17.1719 -6.625C16.7344 -7.3125 16.0313 -7.75 15.3438 -7.75M15.2656 -7.26563C15.625 -7.26563 15.9844 -7.03125 16.25 -6.59375C16.5469 -6.07813 16.6406 -5.45313 16.6406 -3.9375C16.6406 -2.39063 16.5625 -1.65625 16.3438 -1.17188C16.0938 -0.640625 15.6875 -0.3125 15.2813 -0.3125C14.9063 -0.3125 14.5625 -0.546875 14.2969 -0.984375C13.9844 -1.5 13.9063 -2.1875 13.9063 -4C13.9063 -5.28125 13.9844 -5.92188 14.2031 -6.40625C14.4531 -6.95313 14.8438 -7.26563 15.2656 -7.26563"/>
<path id="shape1044" transform="matrix(0.999999939649233 0 0 0.999999939649233 585.282796811478 402.399951108672)" fill="#000000" fill-rule="evenodd" stroke="#000000" stroke-opacity="0" stroke-width="0" stroke-linecap="square" stroke-linejoin="bevel" d="M4.04688 -7.75L0.3125 -2.54688L0.3125 -1.92188L3.40625 -1.92188L3.40625 -1.35938C3.40625 -0.796875 3.40625 -0.765625 3.32813 -0.671875C3.25 -0.546875 3.03125 -0.515625 2.40625 -0.515625L2.28125 -0.515625L2.28125 0L5.5 0L5.5 -0.515625L5.45313 -0.515625C4.82813 -0.515625 4.625 -0.546875 4.53125 -0.671875C4.46875 -0.765625 4.46875 -0.78125 4.46875 -1.35938L4.46875 -1.92188L5.79688 -1.92188L5.79688 -2.54688L4.46875 -2.54688L4.46875 -5.54688C4.46875 -6.92188 4.46875 -6.95313 4.51563 -7.75L4.04688 -7.75M3.40625 -2.54688L0.984375 -2.54688L3.40625 -5.875L3.40625 -2.54688M9.23438 -7.75C7.6875 -7.75 6.57813 -6.07813 6.57813 -3.76563C6.57813 -1.5 7.65625 0.171875 9.14063 0.171875C10.6875 0.171875 11.7656 -1.4375 11.7656 -3.73438C11.7656 -4.89063 11.5156 -5.85938 11.0625 -6.625C10.625 -7.3125 9.92188 -7.75 9.23438 -7.75M9.15625 -7.26563C9.51563 -7.26563 9.875 -7.03125 10.1406 -6.59375C10.4375 -6.07813 10.5313 -5.45313 10.5313 -3.9375C10.5313 -2.39063 10.4531 -1.65625 10.2344 -1.17188C9.98438 -0.640625 9.57813 -0.3125 9.17188 -0.3125C8.79688 -0.3125 8.45313 -0.546875 8.1875 -0.984375C7.875 -1.5 7.79688 -2.1875 7.79688 -4C7.79688 -5.28125 7.875 -5.92188 8.09375 -6.40625C8.34375 -6.95313 8.73438 -7.26563 9.15625 -7.26563M15.3438 -7.75C13.7969 -7.75 12.6875 -6.07813 12.6875 -3.76563C12.6875 -1.5 13.7656 0.171875 15.25 0.171875C16.7969 0.171875 17.875 -1.4375 17.875 -3.73438C17.875 -4.89063 17.625 -5.85938 17.1719 -6.625C16.7344 -7.3125 16.0313 -7.75 15.3438 -7.75M15.2656 -7.26563C15.625 -7.26563 15.9844 -7.03125 16.25 -6.59375C16.5469 -6.07813 16.6406 -5.45313 16.6406 -3.9375C16.6406 -2.39063 16.5625 -1.65625 16.3438 -1.17188C16.0938 -0.640625 15.6875 -0.3125 15.2813 -0.3125C14.9063 -0.3125 14.5625 -0.546875 14.2969 -0.984375C13.9844 -1.5 13.9063 -2.1875 13.9063 -4C13.9063 -5.28125 13.9844 -5.92188 14.2031 -6.40625C14.4531 -6.95313 14.8438 -7.26563 15.2656 -7.26563"/>
<path id="shape1045" transform="matrix(0.999999973606209 0 0 0.999999973606209 32.4171803647926 325.599961122885)" fill="#000000" fill-rule="evenodd" stroke="#000000" stroke-opacity="0" stroke-width="0" stroke-linecap="square" stroke-linejoin="bevel" d="M5.5625 -2.375L5.07813 -2.375L4.96875 -1.8125C4.8125 -1.09375 4.73438 -1.03125 4.04688 -1.03125L1.57813 -1.03125C2.34375 -1.82813 2.59375 -2.0625 3.29688 -2.60938C4.29688 -3.375 4.73438 -3.76563 4.98438 -4.09375C5.32813 -4.57813 5.51563 -5.0625 5.51563 -5.59375C5.51563 -6.85938 4.48438 -7.75 3.03125 -7.75C1.64063 -7.75 0.578125 -6.85938 0.578125 -5.67188C0.578125 -4.98438 0.921875 -4.51563 1.4375 -4.51563C1.84375 -4.51563 2.125 -4.78125 2.125 -5.1875C2.125 -5.45313 1.96875 -5.70313 1.73438 -5.8125C1.32813 -5.96875 1.3125 -6 1.3125 -6.14063C1.3125 -6.29688 1.42188 -6.5625 1.57813 -6.75C1.84375 -7.07813 2.29688 -7.26563 2.8125 -7.26563C3.73438 -7.26563 4.26563 -6.71875 4.26563 -5.78125C4.26563 -4.96875 3.89063 -4.23438 2.96875 -3.26563C2.15625 -2.40625 1.65625 -1.875 1.46875 -1.65625C1.0625 -1.20313 0.875 -0.953125 0.390625 -0.3125L0.390625 0L5.34375 0L5.5625 -2.375"/>
<path id="shape0" transform="matrix(0.72000000796977 0 0 0.72000000796977 45.0090056700503 356.044003617376)" fill="none" stroke="#cccccc" stroke-width="1" stroke-linecap="butt" stroke-linejoin="miter" stroke-miterlimit="10" d="M0 0L975 0"/>
<path id="shape01" transform="matrix(0.719999992602017 0 0 0.719999992602017 44.9998040301086 289.821851448631)" fill="none" stroke="#cccccc" stroke-width="1" stroke-linecap="butt" stroke-linejoin="miter" stroke-miterlimit="10" d="M0 0L975 0"/>
<path id="shape02" transform="matrix(0.719999981975157 0 0 0.719999981975157 44.998336777151 224.297879493321)" fill="none" stroke="#cccccc" stroke-width="1" stroke-linecap="butt" stroke-linejoin="miter" stroke-miterlimit="10" d="M0 0L975 0"/>
<path id="shape03" transform="matrix(0.719999953567686 0 0 0.719999953567686 44.9848302870204 158.066873882964)" fill="none" stroke="#cccccc" stroke-width="1" stroke-linecap="butt" stroke-linejoin="miter" stroke-miterlimit="10" d="M0 0L975 0"/>
<path id="shape04" transform="matrix(0.719999953567686 0 0 0.719999953567686 44.996850650578 91.7932165019604)" fill="none" stroke="#cccccc" stroke-width="1" stroke-linecap="butt" stroke-linejoin="miter" stroke-miterlimit="10" d="M0 0L975 0"/>
<path id="shape1046" transform="matrix(0.999999955553812 0 0 0.999999955553812 32.628117658574 358.999955093908)" fill="#000000" fill-rule="evenodd" stroke="#000000" stroke-opacity="0" stroke-width="0" stroke-linecap="square" stroke-linejoin="bevel" d="M3.54688 -7.75C3.17188 -7.29688 2.15625 -6.95313 1.14063 -6.9375L1.14063 -6.45313L2.10938 -6.45313C2.75 -6.45313 2.8125 -6.375 2.79688 -5.76563L2.79688 -1.35938C2.79688 -0.796875 2.79688 -0.765625 2.73438 -0.671875C2.64063 -0.5625 2.4375 -0.515625 1.8125 -0.515625L1.09375 -0.515625L1.09375 0L5.45313 0L5.45313 -0.515625L4.85938 -0.515625C4.23438 -0.515625 4.03125 -0.5625 3.9375 -0.671875C3.85938 -0.765625 3.85938 -0.78125 3.85938 -1.35938L3.85938 -5.89063C3.85938 -6.51563 3.89063 -7.03125 3.9375 -7.75L3.54688 -7.75"/>
<path id="shape1047" transform="matrix(0.999999955553812 0 0 0.999999955553812 32.628117658574 292.999955093908)" fill="#000000" fill-rule="evenodd" stroke="#000000" stroke-opacity="0" stroke-width="0" stroke-linecap="square" stroke-linejoin="bevel" d="M3.8125 -4.04688C4.8125 -4.40625 5.26563 -4.96875 5.26563 -5.85938C5.26563 -7.01563 4.39063 -7.75 3.03125 -7.75C1.73438 -7.75 0.765625 -6.98438 0.765625 -5.98438C0.765625 -5.53125 1.0625 -5.21875 1.48438 -5.21875C1.875 -5.21875 2.14063 -5.48438 2.14063 -5.875C2.14063 -6.10938 2.04688 -6.26563 1.79688 -6.4375C1.6875 -6.51563 1.65625 -6.5625 1.65625 -6.64063C1.65625 -6.9375 2.28125 -7.26563 2.92188 -7.26563C3.70313 -7.26563 4.125 -6.78125 4.125 -5.84375C4.125 -4.8125 3.70313 -4.28125 2.92188 -4.28125C2.82813 -4.28125 2.64063 -4.29688 2.46875 -4.29688C2.39063 -4.3125 2.29688 -4.3125 2.23438 -4.3125C2 -4.3125 1.875 -4.21875 1.875 -4.01563C1.875 -3.82813 1.98438 -3.73438 2.23438 -3.73438C2.29688 -3.73438 2.39063 -3.73438 2.48438 -3.75C2.70313 -3.76563 2.875 -3.76563 3 -3.76563C3.8125 -3.76563 4.25 -3.17188 4.25 -2.09375C4.25 -0.953125 3.70313 -0.3125 2.71875 -0.3125C2.03125 -0.3125 1.28125 -0.6875 1.28125 -1.01563C1.28125 -1.125 1.3125 -1.14063 1.51563 -1.26563C1.8125 -1.45313 1.9375 -1.64063 1.9375 -1.92188C1.9375 -2.3125 1.64063 -2.60938 1.25 -2.60938C0.78125 -2.60938 0.46875 -2.21875 0.46875 -1.64063C0.46875 -0.578125 1.45313 0.171875 2.85938 0.171875C4.45313 0.171875 5.48438 -0.71875 5.48438 -2.0625C5.48438 -3.10938 4.95313 -3.73438 3.8125 -4.04688"/>
<path id="shape1048" transform="matrix(0.999999955553812 0 0 0.999999955553812 32.628117658574 259.999955093908)" fill="#000000" fill-rule="evenodd" stroke="#000000" stroke-opacity="0" stroke-width="0" stroke-linecap="square" stroke-linejoin="bevel" d="M4.04688 -7.75L0.3125 -2.54688L0.3125 -1.92188L3.40625 -1.92188L3.40625 -1.35938C3.40625 -0.796875 3.40625 -0.765625 3.32813 -0.671875C3.25 -0.546875 3.03125 -0.515625 2.40625 -0.515625L2.28125 -0.515625L2.28125 0L5.5 0L5.5 -0.515625L5.45313 -0.515625C4.82813 -0.515625 4.625 -0.546875 4.53125 -0.671875C4.46875 -0.765625 4.46875 -0.78125 4.46875 -1.35938L4.46875 -1.92188L5.79688 -1.92188L5.79688 -2.54688L4.46875 -2.54688L4.46875 -5.54688C4.46875 -6.92188 4.46875 -6.95313 4.51563 -7.75L4.04688 -7.75M3.40625 -2.54688L0.984375 -2.54688L3.40625 -5.875L3.40625 -2.54688"/>
<path id="shape1049" transform="matrix(0.999999955553812 0 0 0.999999955553812 32.628117658574 226.999955093908)" fill="#000000" fill-rule="evenodd" stroke="#000000" stroke-opacity="0" stroke-width="0" stroke-linecap="square" stroke-linejoin="bevel" d="M1.79688 -6.5C2.39063 -6.35938 2.70313 -6.3125 3.14063 -6.3125C4.07813 -6.3125 4.75 -6.64063 5.10938 -7.25C5.23438 -7.45313 5.28125 -7.5625 5.28125 -7.64063C5.28125 -7.71875 5.26563 -7.75 5.1875 -7.75C5.15625 -7.75 5.10938 -7.73438 5.04688 -7.70313C4.51563 -7.46875 4.21875 -7.42188 3.59375 -7.42188C2.875 -7.42188 2.4375 -7.48438 1.3125 -7.75C1.28125 -6.82813 1.17188 -5.64063 1.01563 -4.28125C0.796875 -4.03125 0.71875 -3.89063 0.71875 -3.71875C0.71875 -3.48438 0.859375 -3.34375 1.0625 -3.34375C1.35938 -3.34375 1.51563 -3.57813 1.5625 -4.01563C1.95313 -4.29688 2.3125 -4.40625 2.75 -4.40625C3.73438 -4.40625 4.32813 -3.65625 4.32813 -2.39063C4.32813 -1.65625 4.14063 -1.03125 3.8125 -0.6875C3.59375 -0.46875 3.14063 -0.3125 2.6875 -0.3125C2.03125 -0.3125 1.34375 -0.65625 1.34375 -0.984375C1.34375 -1.0625 1.40625 -1.15625 1.54688 -1.23438C1.875 -1.4375 1.98438 -1.57813 1.98438 -1.875C1.98438 -2.26563 1.6875 -2.5625 1.28125 -2.5625C0.84375 -2.5625 0.5 -2.15625 0.5 -1.64063C0.5 -1.09375 0.8125 -0.546875 1.3125 -0.203125C1.6875 0.046875 2.125 0.171875 2.70313 0.171875C4.4375 0.171875 5.51563 -0.84375 5.51563 -2.46875C5.51563 -3.95313 4.53125 -4.96875 3.03125 -4.96875C2.5625 -4.96875 2.21875 -4.89063 1.625 -4.625L1.79688 -6.5"/>
<path id="shape1050" transform="matrix(0.999999955553812 0 0 0.999999955553812 32.628117658574 193.999955093908)" fill="#000000" fill-rule="evenodd" stroke="#000000" stroke-opacity="0" stroke-width="0" stroke-linecap="square" stroke-linejoin="bevel" d="M1.6875 -3.73438C1.79688 -5.10938 1.84375 -5.48438 2.09375 -6.04688C2.40625 -6.82813 3 -7.26563 3.6875 -7.26563C4.07813 -7.26563 4.29688 -7.15625 4.29688 -6.95313C4.29688 -6.90625 4.29688 -6.875 4.25 -6.79688C4.14063 -6.59375 4.07813 -6.42188 4.07813 -6.26563C4.07813 -5.90625 4.375 -5.64063 4.75 -5.64063C5.1875 -5.64063 5.48438 -5.96875 5.48438 -6.42188C5.48438 -7.1875 4.71875 -7.75 3.67188 -7.75C2.76563 -7.75 1.92188 -7.3125 1.39063 -6.57813C0.796875 -5.73438 0.46875 -4.59375 0.46875 -3.39063C0.46875 -1.23438 1.51563 0.171875 3.14063 0.171875C3.85938 0.171875 4.45313 -0.078125 4.92188 -0.5625C5.39063 -1.04688 5.67188 -1.76563 5.67188 -2.46875C5.67188 -3.76563 4.75 -4.73438 3.5 -4.73438C2.75 -4.73438 2.20313 -4.4375 1.6875 -3.73438M3.1875 -4.0625C4 -4.0625 4.48438 -3.4375 4.48438 -2.39063C4.48438 -1.10938 3.96875 -0.3125 3.17188 -0.3125C2.65625 -0.3125 2.28125 -0.578125 2.01563 -1.10938C1.84375 -1.45313 1.75 -1.82813 1.75 -2.23438C1.75 -3.35938 2.29688 -4.0625 3.1875 -4.0625"/>
<path id="shape1051" transform="matrix(0.999999955553812 0 0 0.999999955553812 32.628117658574 160.999955093908)" fill="#000000" fill-rule="evenodd" stroke="#000000" stroke-opacity="0" stroke-width="0" stroke-linecap="square" stroke-linejoin="bevel" d="M0.65625 -5.07813L1.14063 -5L1.32813 -5.875C1.5 -6.59375 1.57813 -6.71875 1.89063 -6.71875C1.95313 -6.71875 2.03125 -6.71875 2.14063 -6.70313C3.48438 -6.64063 3.48438 -6.64063 4 -6.64063C4.14063 -6.64063 4.39063 -6.64063 4.70313 -6.64063L3.95313 -5.14063C3.14063 -3.51563 3.03125 -3.32813 2.76563 -2.64063C2.42188 -1.8125 2.25 -1.125 2.25 -0.65625C2.25 -0.15625 2.51563 0.15625 2.9375 0.15625C3.46875 0.15625 3.67188 -0.203125 3.65625 -1.15625C3.60938 -2.73438 3.8125 -3.51563 4.98438 -6.07813C5.15625 -6.4375 5.3125 -6.78125 5.48438 -7.125C5.48438 -7.14063 5.51563 -7.23438 5.59375 -7.375L5.59375 -7.70313C4.92188 -7.64063 4.57813 -7.625 3.89063 -7.625C2.9375 -7.625 2.17188 -7.65625 0.984375 -7.75L0.65625 -5.07813"/>
<path id="shape1052" transform="matrix(0.999999955553812 0 0 0.999999955553812 32.628117658574 126.999955093908)" fill="#000000" fill-rule="evenodd" stroke="#000000" stroke-opacity="0" stroke-width="0" stroke-linecap="square" stroke-linejoin="bevel" d="M4.10938 -4.29688C4.92188 -4.73438 5.32813 -5.28125 5.32813 -6C5.32813 -7.01563 4.40625 -7.75 3.14063 -7.75C1.79688 -7.75 0.8125 -6.85938 0.8125 -5.64063C0.8125 -5.17188 0.984375 -4.67188 1.29688 -4.32813C1.48438 -4.10938 1.65625 -4 2.0625 -3.78125C1.57813 -3.59375 1.35938 -3.48438 1.125 -3.29688C0.6875 -2.9375 0.453125 -2.40625 0.453125 -1.84375C0.453125 -1.25 0.75 -0.65625 1.20313 -0.3125C1.64063 0 2.23438 0.171875 2.9375 0.171875C3.75 0.171875 4.4375 -0.0625 4.89063 -0.453125C5.35938 -0.875 5.64063 -1.54688 5.64063 -2.21875C5.64063 -2.84375 5.40625 -3.40625 4.95313 -3.79688C4.73438 -4 4.53125 -4.10938 4.10938 -4.29688M2.9375 -4.73438C2.04688 -5.04688 1.65625 -5.46875 1.65625 -6.10938C1.65625 -6.8125 2.23438 -7.26563 3.10938 -7.26563C3.95313 -7.26563 4.51563 -6.73438 4.51563 -5.9375C4.51563 -5.35938 4.29688 -4.98438 3.65625 -4.45313L2.9375 -4.73438M3.57813 -3.20313C4.40625 -2.90625 4.76563 -2.46875 4.76563 -1.75C4.76563 -0.875 4.07813 -0.3125 3 -0.3125C1.95313 -0.3125 1.35938 -0.875 1.35938 -1.84375C1.35938 -2.67188 1.70313 -3.17188 2.5625 -3.5625L3.57813 -3.20313"/>
<path id="shape1053" transform="matrix(0.999999955553812 0 0 0.999999955553812 32.628117658574 94.9999550939076)" fill="#000000" fill-rule="evenodd" stroke="#000000" stroke-opacity="0" stroke-width="0" stroke-linecap="square" stroke-linejoin="bevel" d="M4.4375 -3.8125C4.3125 -2.53125 4.25 -2.14063 4.04688 -1.59375C3.76563 -0.78125 3.17188 -0.3125 2.42188 -0.3125C2.0625 -0.3125 1.8125 -0.421875 1.8125 -0.578125C1.8125 -0.625 1.84375 -0.6875 1.875 -0.765625C2 -1.01563 2.03125 -1.09375 2.03125 -1.25C2.03125 -1.625 1.75 -1.90625 1.375 -1.90625C0.953125 -1.90625 0.625 -1.54688 0.625 -1.10938C0.625 -0.390625 1.39063 0.171875 2.40625 0.171875C3.40625 0.171875 4.26563 -0.28125 4.8125 -1.09375C5.34375 -1.92188 5.64063 -2.96875 5.64063 -4.10938C5.64063 -6.32813 4.59375 -7.75 2.95313 -7.75C1.53125 -7.75 0.421875 -6.57813 0.421875 -5.09375C0.421875 -3.78125 1.34375 -2.8125 2.60938 -2.8125C3.39063 -2.8125 3.84375 -3.0625 4.4375 -3.8125M3 -7.26563C3.8125 -7.26563 4.34375 -6.46875 4.34375 -5.21875C4.34375 -4.78125 4.25 -4.375 4.09375 -4.10938C3.84375 -3.71875 3.40625 -3.46875 2.9375 -3.46875C2.09375 -3.46875 1.625 -4.125 1.625 -5.29688C1.625 -5.8125 1.75 -6.34375 1.95313 -6.67188C2.21875 -7.09375 2.51563 -7.26563 3 -7.26563"/>
<path id="shape1054" transform="matrix(0.72 0 0 0.72 45 58.68)" fill="none" stroke="#333333" stroke-width="1" stroke-linecap="butt" stroke-linejoin="miter" stroke-miterlimit="10" d="M0 0L0 459"/>
<path id="shape1055" transform="matrix(0.72 0 0 0.72 45 389.16)" fill="none" stroke="#333333" stroke-width="1" stroke-linecap="butt" stroke-linejoin="miter" stroke-miterlimit="10" d="M0 0L975 0"/>
<path id="shape1056" transform="matrix(0.72 0 0 0.72 44.8920000000001 92.7287999498786)" fill="none" stroke="#ea4335" stroke-width="2" stroke-linecap="butt" stroke-linejoin="miter" stroke-miterlimit="10" d="M0 412.86L1.90861 366.987L3.81722 340.152L5.72583 321.113L7.63444 306.345L9.54305 294.279L11.4517 284.077L13.3603 275.24L15.2689 267.445L17.1775 260.472L19.0861 254.164L20.9947 248.406L22.9033 243.108L24.8119 238.204L26.7205 233.638L28.6292 229.367L30.5378 225.354L32.4464 221.572L34.355 217.993L36.2636 214.599L38.1722 211.37L40.0808 208.291L41.9894 205.349L43.898 202.532L45.8067 199.831L47.7153 197.235L49.6239 194.737L51.5325 192.331L53.4411 190.008L55.3497 187.765L57.2583 185.594L59.1669 183.493L61.0755 181.457L62.9841 179.481L64.8928 177.563L66.8014 175.698L68.71 173.885L70.6186 172.12L72.5272 170.401L74.4358 168.725L76.3444 167.091L78.253 165.496L80.1616 163.939L82.0703 162.418L83.9789 160.93L85.8875 159.476L87.7961 158.052L89.7047 156.659L91.6133 155.295L93.5219 153.957L95.4305 152.647L97.3391 151.362L99.2477 150.101L101.156 148.864L103.065 147.65L104.974 146.457L106.882 145.286L108.791 144.135L110.699 143.004L112.608 141.891L114.517 140.797L116.425 139.721L118.334 138.662L120.242 137.62L122.151 136.594L124.06 135.583L125.968 134.588L127.877 133.608L129.786 132.642L131.694 131.689L133.603 130.751L135.511 129.825L137.42 128.912L139.329 128.012L141.237 127.123L143.146 126.247L145.054 125.382L146.963 124.528L148.872 123.685L150.78 122.852L152.689 122.03L154.597 121.218L156.506 120.416L158.415 119.623L160.323 118.84L162.232 118.066L164.141 117.301L166.049 116.544L167.958 115.797L169.866 115.057L171.775 114.326L173.684 113.602L175.592 112.887L177.501 112.179L179.409 111.479L181.318 110.786L183.227 110.1L185.135 109.421L187.044 108.749L188.952 108.084L190.861 107.426L192.77 106.774L194.678 106.128L196.587 105.488L198.496 104.855L200.404 104.228L202.313 103.606L204.221 102.991L206.13 102.381L208.039 101.776L209.947 101.177L211.856 100.584L213.764 99.9957L215.673 99.4126L217.582 98.8346L219.49 98.2615L221.399 97.6935L223.307 97.1302L225.216 96.5717L227.125 96.0179L229.033 95.4687L230.942 94.924L232.85 94.3837L234.759 93.8478L236.668 93.3163L238.576 92.7889L240.485 92.2657L242.394 91.7467L244.302 91.2316L246.211 90.7206L248.119 90.2134L250.028 89.7102L251.937 89.2107L253.845 88.7149L255.754 88.2229L257.662 87.7345L259.571 87.2496L261.48 86.7683L263.388 86.2904L265.297 85.816L267.205 85.345L269.114 84.8773L271.023 84.4128L272.931 83.9516L274.84 83.4936L276.749 83.0388L278.657 82.587L280.566 82.1383L282.474 81.6927L284.383 81.25L286.292 80.8102L288.2 80.3734L290.109 79.9394L292.017 79.5083L293.926 79.0799L295.835 78.6543L297.743 78.2314L299.652 77.8112L301.56 77.3937L303.469 76.9788L305.378 76.5664L307.286 76.1566L309.195 75.7493L311.104 75.3446L313.012 74.9422L314.921 74.5423L316.829 74.1449L318.738 73.7498L320.647 73.357L322.555 72.9665L324.464 72.5784L326.372 72.1925L328.281 71.8088L330.19 71.4274L332.098 71.0481L334.007 70.671L335.915 70.296L337.824 69.9232L339.733 69.5524L341.641 69.1837L343.55 68.8171L345.458 68.4524L347.367 68.0898L349.276 67.7291L351.184 67.3704L353.093 67.0136L355.002 66.6588L356.91 66.3058L358.819 65.9547L360.727 65.6055L362.636 65.2581L364.545 64.9125L366.453 64.5687L368.362 64.2267L370.27 63.8864L372.179 63.5479L374.088 63.2111L375.996 62.876L377.905 62.5426L379.813 62.2108L381.722 61.8808L383.631 61.5523L385.539 61.2255L387.448 60.9003L389.357 60.5766L391.265 60.2546L393.174 59.9341L395.082 59.6152L396.991 59.2977L398.9 58.9818L400.808 58.6674L402.717 58.3545L404.625 58.0431L406.534 57.7331L408.443 57.4246L410.351 57.1175L412.26 56.8118L414.168 56.5075L416.077 56.2046L417.986 55.9031L419.894 55.6029L421.803 55.3042L423.712 55.0067L425.62 54.7106L427.529 54.4158L429.437 54.1223L431.346 53.8301L433.255 53.5392L435.163 53.2496L437.072 52.9612L438.98 52.6741L440.889 52.3882L442.798 52.1036L444.706 51.8201L446.615 51.5379L448.523 51.2569L450.432 50.977L452.341 50.6984L454.249 50.4209L456.158 50.1446L458.067 49.8694L459.975 49.5953L461.884 49.3224L463.792 49.0506L465.701 48.78L467.61 48.5104L469.518 48.2419L471.427 47.9745L473.335 47.7082L475.244 47.4429L477.153 47.1787L479.061 46.9156L480.97 46.6535L482.878 46.3924L484.787 46.1324L486.696 45.8733L488.604 45.6153L490.513 45.3583L492.422 45.1023L494.33 44.8472L496.239 44.5932L498.147 44.3401L500.056 44.088L501.965 43.8368L503.873 43.5866L505.782 43.3374L507.69 43.089L509.599 42.8416L511.508 42.5951L513.416 42.3495L515.325 42.1049L517.233 41.8611L519.142 41.6183L521.051 41.3763L522.959 41.1352L524.868 40.8949L526.776 40.6556L528.685 40.4171L530.594 40.1795L532.502 39.9427L534.411 39.7067L536.32 39.4716L538.228 39.2374L540.137 39.0039L542.045 38.7713L543.954 38.5395L545.863 38.3085L547.771 38.0783L549.68 37.8489L551.588 37.6203L553.497 37.3925L555.406 37.1654L557.314 36.9392L559.223 36.7137L561.131 36.489L563.04 36.265L564.949 36.0418L566.857 35.8193L568.766 35.5976L570.675 35.3767L572.583 35.1564L574.492 34.9369L576.4 34.7181L578.309 34.5001L580.218 34.2827L582.126 34.0661L584.035 33.8502L585.943 33.6349L587.852 33.4204L589.761 33.2066L591.669 32.9934L593.578 32.781L595.486 32.5692L597.395 32.3581L599.304 32.1477L601.212 31.9379L603.121 31.7288L605.03 31.5203L606.938 31.3126L608.847 31.1054L610.755 30.8989L612.664 30.6931L614.573 30.4879L616.481 30.2833L618.39 30.0793L620.298 29.876L622.207 29.6733L624.116 29.4712L626.024 29.2698L627.933 29.0689L629.841 28.8687L631.75 28.669L633.659 28.47L635.567 28.2715L637.476 28.0737L639.385 27.8764L641.293 27.6798L643.202 27.4836L645.11 27.2881L647.019 27.0932L648.928 26.8988L650.836 26.705L652.745 26.5118L654.653 26.3191L656.562 26.127L658.471 25.9355L660.379 25.7445L662.288 25.554L664.196 25.3641L666.105 25.1748L668.014 24.986L669.922 24.7977L671.831 24.6099L673.74 24.4227L675.648 24.236L677.557 24.0499L679.465 23.8642L681.374 23.6791L683.283 23.4945L685.191 23.3104L687.1 23.1268L689.008 22.9437L690.917 22.7612L692.826 22.5791L694.734 22.3975L696.643 22.2165L698.552 22.0359L700.46 21.8558L702.369 21.6762L704.277 21.4971L706.186 21.3185L708.094 21.1403L710.003 20.9627L711.912 20.7854L713.82 20.6087L715.729 20.4325L717.638 20.2567L719.546 20.0814L721.455 19.9065L723.363 19.7322L725.272 19.5582L727.181 19.3847L729.089 19.2117L730.998 19.0391L732.906 18.867L734.815 18.6954L736.724 18.5241L738.632 18.3533L740.541 18.183L742.449 18.0131L744.358 17.8436L746.267 17.6745L748.175 17.5059L750.084 17.3377L751.993 17.17L753.901 17.0027L755.81 16.8357L757.718 16.6692L759.627 16.5032L761.536 16.3375L763.444 16.1723L765.353 16.0074L767.261 15.843L769.17 15.679L771.079 15.5154L772.987 15.3521L774.896 15.1894L776.804 15.0269L778.713 14.8649L780.622 14.7033L782.53 14.5421L784.439 14.3813L786.348 14.2208L788.256 14.0608L790.165 13.9011L792.073 13.7418L793.982 13.5829L795.891 13.4244L797.799 13.2663L799.708 13.1085L801.616 12.9511L803.525 12.7941L805.434 12.6375L807.342 12.4812L809.251 12.3253L811.159 12.1698L813.068 12.0146L814.977 11.8598L816.885 11.7053L818.794 11.5512L820.703 11.3975L822.611 11.2441L824.52 11.0911L826.428 10.9384L828.337 10.7861L830.246 10.6342L832.154 10.4825L834.063 10.3313L835.971 10.1803L837.88 10.0298L839.789 9.87953L841.697 9.72962L843.606 9.58006L845.514 9.43083L847.423 9.28195L849.332 9.13339L851.24 8.98516L853.149 8.83727L855.058 8.6897L856.966 8.54247L858.875 8.39558L860.783 8.24899L862.692 8.10273L864.601 7.9568L866.509 7.81118L868.418 7.66589L870.326 7.52091L872.235 7.37626L874.144 7.23191L876.052 7.08788L877.961 6.94418L879.87 6.80076L881.778 6.65768L883.687 6.51489L885.595 6.3724L887.504 6.23023L889.413 6.08837L891.321 5.9468L893.23 5.80554L895.138 5.66457L897.047 5.52392L898.956 5.38355L900.864 5.2435L902.773 5.10372L904.681 4.96424L906.59 4.82507L908.499 4.68617L910.407 4.54757L912.316 4.40926L914.224 4.27123L916.133 4.13351L918.042 3.99606L919.95 3.8589L921.859 3.72201L923.767 3.58541L925.676 3.4491L927.585 3.31307L929.493 3.17732L931.402 3.04183L933.311 2.90662L935.219 2.7717L937.128 2.63705L939.036 2.50268L940.945 2.36857L942.854 2.23473L944.762 2.10117L946.671 1.96787L948.579 1.83485L950.488 1.70208L952.397 1.56959L954.305 1.43736L956.214 1.3054L958.123 1.17368L960.031 1.04224L961.94 0.91107L963.848 0.78014L965.757 0.64948L967.665 0.51907L969.574 0.38892L971.483 0.25903L973.391 0.12939L975.3 0"/>
<path id="shape1057" transform="matrix(0.72 0 0 0.72 44.8920000000002 92.0088000000001)" fill="none" stroke="#4285f4" stroke-width="2" stroke-linecap="butt" stroke-linejoin="miter" stroke-miterlimit="10" d="M0 366.987L1.90861 366.987L3.81722 366.987L5.72583 275.24L7.63444 275.24L9.54305 321.113L11.4517 229.367L13.3603 183.493L15.2689 321.113L17.1775 321.113L19.0861 137.62L20.9947 321.113L22.9033 275.24L24.8119 321.113L26.7205 275.24L28.6292 275.24L30.5378 275.24L32.4464 229.367L34.355 229.367L36.2636 229.367L38.1722 229.367L40.0808 229.367L41.9894 229.367L43.898 229.367L45.8067 229.367L47.7153 229.367L49.6239 229.367L51.5325 229.367L53.4411 229.367L55.3497 275.24L57.2583 183.493L59.1669 229.367L61.0755 183.493L62.9841 183.493L64.8928 183.493L66.8014 183.493L68.71 183.493L70.6186 183.493L72.5272 183.493L74.4358 183.493L76.3444 183.493L78.253 183.493L80.1616 183.493L82.0703 183.493L83.9789 183.493L85.8875 183.493L87.7961 183.493L89.7047 183.493L91.6133 183.493L93.5219 183.493L95.4305 183.493L97.3391 183.493L99.2477 183.493L101.156 183.493L103.065 137.62L104.974 137.62L106.882 137.62L108.791 137.62L110.699 137.62L112.608 137.62L114.517 137.62L116.425 137.62L118.334 137.62L120.242 137.62L122.151 137.62L124.06 137.62L125.968 137.62L127.877 137.62L129.786 137.62L131.694 137.62L133.603 137.62L135.511 137.62L137.42 137.62L139.329 137.62L141.237 137.62L143.146 137.62L145.054 137.62L146.963 137.62L148.872 137.62L150.78 137.62L152.689 137.62L154.597 137.62L156.506 137.62L158.415 137.62L160.323 137.62L162.232 137.62L164.141 137.62L166.049 137.62L167.958 137.62L169.866 137.62L171.775 137.62L173.684 137.62L175.592 137.62L177.501 137.62L179.409 137.62L181.318 137.62L183.227 137.62L185.135 137.62L187.044 137.62L188.952 137.62L190.861 137.62L192.77 91.7467L194.678 91.7467L196.587 91.7467L198.496 91.7467L200.404 91.7467L202.313 91.7467L204.221 91.7467L206.13 91.7467L208.039 91.7467L209.947 91.7467L211.856 91.7467L213.764 91.7467L215.673 91.7467L217.582 91.7467L219.49 91.7467L221.399 91.7467L223.307 91.7467L225.216 91.7467L227.125 91.7467L229.033 91.7467L230.942 91.7467L232.85 91.7467L234.759 91.7467L236.668 91.7467L238.576 91.7467L240.485 91.7467L242.394 91.7467L244.302 91.7467L246.211 91.7467L248.119 91.7467L250.028 91.7467L251.937 91.7467L253.845 91.7467L255.754 91.7467L257.662 91.7467L259.571 91.7467L261.48 91.7467L263.388 91.7467L265.297 91.7467L267.205 91.7467L269.114 91.7467L271.023 91.7467L272.931 91.7467L274.84 91.7467L276.749 91.7467L278.657 91.7467L280.566 91.7467L282.474 91.7467L284.383 91.7467L286.292 91.7467L288.2 91.7467L290.109 91.7467L292.017 91.7467L293.926 91.7467L295.835 91.7467L297.743 91.7467L299.652 91.7467L301.56 91.7467L303.469 91.7467L305.378 91.7467L307.286 91.7467L309.195 91.7467L311.104 91.7467L313.012 91.7467L314.921 91.7467L316.829 91.7467L318.738 91.7467L320.647 91.7467L322.555 91.7467L324.464 91.7467L326.372 91.7467L328.281 91.7467L330.19 91.7467L332.098 91.7467L334.007 91.7467L335.915 91.7467L337.824 91.7467L339.733 91.7467L341.641 91.7467L343.55 91.7467L345.458 91.7467L347.367 91.7467L349.276 91.7467L351.184 91.7467L353.093 91.7467L355.002 91.7467L356.91 91.7467L358.819 91.7467L360.727 91.7467L362.636 91.7467L364.545 45.8733L366.453 45.8733L368.362 45.8733L370.27 45.8733L372.179 45.8733L374.088 45.8733L375.996 45.8733L377.905 45.8733L379.813 45.8733L381.722 45.8733L383.631 45.8733L385.539 45.8733L387.448 45.8733L389.357 45.8733L391.265 45.8733L393.174 45.8733L395.082 45.8733L396.991 45.8733L398.9 45.8733L400.808 45.8733L402.717 45.8733L404.625 45.8733L406.534 45.8733L408.443 45.8733L410.351 45.8733L412.26 45.8733L414.168 45.8733L416.077 45.8733L417.986 45.8733L419.894 45.8733L421.803 45.8733L423.712 45.8733L425.62 45.8733L427.529 45.8733L429.437 45.8733L431.346 45.8733L433.255 45.8733L435.163 45.8733L437.072 45.8733L438.98 45.8733L440.889 45.8733L442.798 45.8733L444.706 45.8733L446.615 45.8733L448.523 45.8733L450.432 45.8733L452.341 45.8733L454.249 45.8733L456.158 45.8733L458.067 45.8733L459.975 45.8733L461.884 45.8733L463.792 45.8733L465.701 45.8733L467.61 45.8733L469.518 45.8733L471.427 45.8733L473.335 45.8733L475.244 45.8733L477.153 45.8733L479.061 45.8733L480.97 45.8733L482.878 45.8733L484.787 45.8733L486.696 45.8733L488.604 45.8733L490.513 45.8733L492.422 45.8733L494.33 45.8733L496.239 45.8733L498.147 45.8733L500.056 45.8733L501.965 45.8733L503.873 45.8733L505.782 45.8733L507.69 45.8733L509.599 45.8733L511.508 45.8733L513.416 45.8733L515.325 45.8733L517.233 45.8733L519.142 45.8733L521.051 45.8733L522.959 45.8733L524.868 45.8733L526.776 45.8733L528.685 45.8733L530.594 45.8733L532.502 45.8733L534.411 45.8733L536.32 45.8733L538.228 45.8733L540.137 45.8733L542.045 45.8733L543.954 45.8733L545.863 45.8733L547.771 45.8733L549.68 45.8733L551.588 45.8733L553.497 45.8733L555.406 45.8733L557.314 45.8733L559.223 45.8733L561.131 45.8733L563.04 45.8733L564.949 45.8733L566.857 45.8733L568.766 45.8733L570.675 45.8733L572.583 45.8733L574.492 45.8733L576.4 45.8733L578.309 45.8733L580.218 45.8733L582.126 45.8733L584.035 45.8733L585.943 45.8733L587.852 45.8733L589.761 45.8733L591.669 45.8733L593.578 45.8733L595.486 45.8733L597.395 45.8733L599.304 45.8733L601.212 45.8733L603.121 45.8733L605.03 45.8733L606.938 45.8733L608.847 45.8733L610.755 45.8733L612.664 45.8733L614.573 45.8733L616.481 45.8733L618.39 45.8733L620.298 45.8733L622.207 45.8733L624.116 45.8733L626.024 45.8733L627.933 45.8733L629.841 45.8733L631.75 45.8733L633.659 45.8733L635.567 45.8733L637.476 45.8733L639.385 45.8733L641.293 45.8733L643.202 45.8733L645.11 45.8733L647.019 45.8733L648.928 45.8733L650.836 45.8733L652.745 45.8733L654.653 45.8733L656.562 45.8733L658.471 45.8733L660.379 45.8733L662.288 45.8733L664.196 45.8733L666.105 45.8733L668.014 45.8733L669.922 45.8733L671.831 45.8733L673.74 45.8733L675.648 45.8733L677.557 45.8733L679.465 45.8733L681.374 45.8733L683.283 45.8733L685.191 45.8733L687.1 45.8733L689.008 45.8733L690.917 45.8733L692.826 45.8733L694.734 45.8733L696.643 45.8733L698.552 45.8733L700.46 45.8733L702.369 45.8733L704.277 45.8733L706.186 45.8733L708.094 45.8733L710.003 45.8733L711.912 45.8733L713.82 0L715.729 45.8733L717.638 45.8733L719.546 0L721.455 0L723.363 0L725.272 0L727.181 0L729.089 0L730.998 0L732.906 0L734.815 0L736.724 0L738.632 0L740.541 0L742.449 0L744.358 0L746.267 0L748.175 0L750.084 0L751.993 0L753.901 0L755.81 0L757.718 0L759.627 0L761.536 0L763.444 0L765.353 0L767.261 0L769.17 0L771.079 0L772.987 0L774.896 0L776.804 0L778.713 0L780.622 0L782.53 0L784.439 0L786.348 0L788.256 0L790.165 0L792.073 0L793.982 0L795.891 0L797.799 0L799.708 0L801.616 0L803.525 0L805.434 0L807.342 0L809.251 0L811.159 0L813.068 0L814.977 0L816.885 0L818.794 0L820.703 0L822.611 0L824.52 0L826.428 0L828.337 0L830.246 0L832.154 0L834.063 0L835.971 0L837.88 0L839.789 0L841.697 0L843.606 0L845.514 0L847.423 0L849.332 0L851.24 0L853.149 0L855.058 0L856.966 0L858.875 0L860.783 0L862.692 0L864.601 0L866.509 0L868.418 0L870.326 0L872.235 0L874.144 0L876.052 0L877.961 0L879.87 0L881.778 0L883.687 0L885.595 0L887.504 0L889.413 0L891.321 0L893.23 0L895.138 0L897.047 0L898.956 0L900.864 0L902.773 0L904.681 0L906.59 0L908.499 0L910.407 0L912.316 0L914.224 0L916.133 0L918.042 0L919.95 0L921.859 0L923.767 0L925.676 0L927.585 0L929.493 0L931.402 0L933.311 0L935.219 0L937.128 0L939.036 0L940.945 0L942.854 0L944.762 0L946.671 0L948.579 0L950.488 0L952.397 0L954.305 0L956.214 0L958.123 0L960.031 0L961.94 0L963.848 0L965.757 0L967.665 0L969.574 0L971.483 0L973.391 0L975.3 0"/>
</svg>
