<?xml version="1.0" standalone="no"?>
<!DOCTYPE svg PUBLIC "-//W3C//DTD SVG 20010904//EN" "http://www.w3.org/TR/2001/REC-SVG-20010904/DTD/svg10.dtd">
<!-- Created using Krita: http://krita.org -->
<svg xmlns="http://www.w3.org/2000/svg" 
    xmlns:xlink="http://www.w3.org/1999/xlink"
    xmlns:krita="http://krita.org/namespaces/svg/krita"
    xmlns:sodipodi="http://sodipodi.sourceforge.net/DTD/sodipodi-0.dtd"
    width="720pt"
    height="624.96pt"
    viewBox="0 0 720 624.96">
<defs>
  <linearGradient id="gradient0" gradientUnits="objectBoundingBox" x1="0" y1="0" x2="1" y2="1" spreadMethod="pad">
   <stop stop-color="#a81f3d" offset="0" stop-opacity="1"/>
   <stop stop-color="#a0224f" offset="0.404347836971283" stop-opacity="1"/>
   <stop stop-color="#2e42a4" offset="0.630434811115265" stop-opacity="1"/>
   <stop stop-color="#0046aa" offset="1" stop-opacity="1"/>
  </linearGradient>
  <linearGradient id="gradient1" gradientUnits="objectBoundingBox" x1="0" y1="0" x2="1" y2="1" spreadMethod="pad">
   <stop stop-color="#a81f3d" offset="0" stop-opacity="1"/>
   <stop stop-color="#a0224f" offset="0.404347836971283" stop-opacity="1"/>
   <stop stop-color="#2e42a4" offset="0.630434811115265" stop-opacity="1"/>
   <stop stop-color="#0046aa" offset="1" stop-opacity="1"/>
  </linearGradient>
  <marker id="lineMarker0" markerUnits="strokeWidth" refX="0" refY="0" markerWidth="3" markerHeight="3" orient="auto">
      <defs/>
   <g id="lineMarker0" fill="none">
     <g id="lineMarker01" fill="none">
      <g id="lineMarker01" fill="none">
       <g id="lineMarker011" fill="none">
        <g id="DotS" fill="none">
         <path id="path4209" transform="matrix(0.2 0 0 0.2 -1.02 -1)" fill="#000000" fill-rule="evenodd" d="M10 5C10 7.76 7.76 10 5 10C2.24 10 0 7.76 0 5C0 2.24 2.24 0 5 0C7.76 0 10 2.24 10 5Z"/>
        </g>
       </g>
      </g>
     </g>
    </g>
  </marker>
  <marker id="lineMarker1" markerUnits="strokeWidth" refX="0" refY="0" markerWidth="3" markerHeight="3" orient="auto">
      <defs/>
   <g id="lineMarker1" fill="none">
     <g id="lineMarker11" fill="none">
      <g id="lineMarker11" fill="none">
       <g id="lineMarker111" fill="none">
        <g id="lineMarker0" fill="none">
         <g id="DotS" fill="none">
          <path id="path4209" transform="matrix(0.2 0 0 0.2 -1.02 -1)" fill="#000000" fill-rule="evenodd" d="M10 5C10 7.76 7.76 10 5 10C2.24 10 0 7.76 0 5C0 2.24 2.24 0 5 0C7.76 0 10 2.24 10 5Z"/>
         </g>
        </g>
       </g>
      </g>
     </g>
    </g>
  </marker>
  <marker id="lineMarker2" markerUnits="strokeWidth" refX="0" refY="0" markerWidth="3" markerHeight="3" orient="auto">
      <defs/>
   <g id="lineMarker3" fill="none">
     <g id="lineMarker31" fill="none">
      <g id="lineMarker31" fill="none">
       <g id="lineMarker311" fill="none">
        <g id="lineMarker0" fill="none">
         <g id="DotS" fill="none">
          <path id="path4209" transform="matrix(0.2 0 0 0.2 -1.02 -1)" fill="#000000" fill-rule="evenodd" d="M10 5C10 7.76 7.76 10 5 10C2.24 10 0 7.76 0 5C0 2.24 2.24 0 5 0C7.76 0 10 2.24 10 5Z"/>
         </g>
        </g>
       </g>
      </g>
     </g>
    </g>
  </marker>
  <marker id="lineMarker3" markerUnits="strokeWidth" refX="0" refY="0" markerWidth="3" markerHeight="3" orient="auto">
      <defs/>
   <g id="lineMarker4" fill="none">
     <g id="lineMarker41" fill="none">
      <g id="lineMarker41" fill="none">
       <g id="lineMarker411" fill="none">
        <g id="lineMarker0" fill="none">
         <g id="DotS" fill="none">
          <path id="path4209" transform="matrix(0.2 0 0 0.2 -1.02 -1)" fill="#000000" fill-rule="evenodd" d="M10 5C10 7.76 7.76 10 5 10C2.24 10 0 7.76 0 5C0 2.24 2.24 0 5 0C7.76 0 10 2.24 10 5Z"/>
         </g>
        </g>
       </g>
      </g>
     </g>
    </g>
  </marker>
  <marker id="lineMarker4" markerUnits="strokeWidth" refX="0" refY="0" markerWidth="3" markerHeight="3" orient="auto">
      <defs/>
   <g id="lineMarker5" fill="none">
     <g id="lineMarker51" fill="none">
      <g id="lineMarker51" fill="none">
       <g id="lineMarker511" fill="none">
        <g id="lineMarker0" fill="none">
         <g id="DotS" fill="none">
          <path id="path4209" transform="matrix(0.2 0 0 0.2 -1.02 -1)" fill="#000000" fill-rule="evenodd" d="M10 5C10 7.76 7.76 10 5 10C2.24 10 0 7.76 0 5C0 2.24 2.24 0 5 0C7.76 0 10 2.24 10 5Z"/>
         </g>
        </g>
       </g>
      </g>
     </g>
    </g>
  </marker>
  <marker id="lineMarker5" markerUnits="strokeWidth" refX="0" refY="0" markerWidth="3" markerHeight="3" orient="auto">
      <defs/>
   <g id="lineMarker6" fill="none">
     <g id="lineMarker61" fill="none">
      <g id="lineMarker61" fill="none">
       <g id="lineMarker611" fill="none">
        <g id="lineMarker0" fill="none">
         <g id="DotS" fill="none">
          <path id="path4209" transform="matrix(0.2 0 0 0.2 -1.02 -1)" fill="#000000" fill-rule="evenodd" d="M10 5C10 7.76 7.76 10 5 10C2.24 10 0 7.76 0 5C0 2.24 2.24 0 5 0C7.76 0 10 2.24 10 5Z"/>
         </g>
        </g>
       </g>
      </g>
     </g>
    </g>
  </marker>
  <marker id="lineMarker6" markerUnits="strokeWidth" refX="0" refY="0" markerWidth="3" markerHeight="3" orient="auto">
      <defs/>
   <g id="lineMarker0" fill="none">
     <g id="DotS" fill="none">
      <path id="path4209" transform="matrix(0.2 0 0 0.2 -1.02 -1)" fill="#000000" fill-rule="evenodd" d="M10 5C10 7.76 7.76 10 5 10C2.24 10 0 7.76 0 5C0 2.24 2.24 0 5 0C7.76 0 10 2.24 10 5Z"/>
     </g>
    </g>
  </marker>
 </defs>
<rect id="shape0" transform="matrix(0.999999859366012 0 0 0.999999859366012 212.784611625179 87.5095551599533)" fill="none" stroke="#000000" stroke-width="7.2" stroke-linecap="square" stroke-linejoin="miter" stroke-miterlimit="2.16000008583069" width="44.5858520488611" height="30.9600095597077"/><path id="shape1" transform="matrix(0.999999859366012 0 0 0.999999859366012 191.263165769573 307.043226405885)" fill="url(#gradient0)" fill-rule="evenodd" d="M14.5782 19.4063L5.46875 19.4063L3.78125 25.6563L0 25.6563L7.40625 0L12.6407 0L20.0469 25.6563L16.25 25.6563L14.5782 19.4063M13.6563 15.9688L10.1875 3.1094L9.85938 3.1094L6.39063 15.9688L13.6563 15.9688M32 25.6563C26.5104 25.6563 23.7657 22.7917 23.7657 17.0626L23.7657 0L27.375 0L27.375 17.0626C27.375 18.7917 27.7552 20.0834 28.5157 20.9376C29.2761 21.7917 30.4636 22.2188 32.0782 22.2188C33.6302 22.2188 34.7995 21.7865 35.586 20.9219C36.3724 20.0573 36.7657 18.7709 36.7657 17.0626L36.7657 0L40.3907 0L40.3907 17.0626C40.3907 19.9167 39.6823 22.0626 38.2657 23.5001C36.849 24.9376 34.7604 25.6563 32 25.6563M55.8594 3.4375L55.8594 22.2188L61.875 22.2188L61.875 25.6563L46.2657 25.6563L46.2657 22.2188L52.25 22.2188L52.25 3.4375L46.2657 3.4375L46.2657 0L61.875 0L61.875 3.4375L55.8594 3.4375M74.3438 0C78.2709 0 81.2084 1.1277 83.1563 3.3829C85.1042 5.6381 86.0782 9.0261 86.0782 13.5469C86.0782 17.599 85.1042 20.6303 83.1563 22.6407C81.2084 24.6511 78.2709 25.6563 74.3438 25.6563L68.125 25.6563L68.125 0L74.3438 0M74.3438 22.2188C76.9792 22.2188 78.9636 21.4662 80.2969 19.961C81.6302 18.4558 82.2969 16.198 82.2969 13.1875C82.2969 6.6875 79.6459 3.4375 74.3438 3.4375L71.7344 3.4375L71.7344 22.2188L74.3438 22.2188"/><path id="shape2" transform="matrix(0.999999842071209 0 0 0.999999842071209 109.593182981833 89.7532599074111)" fill="#358757" fill-rule="evenodd" d="M9.64067 12.1719C12.1823 12.2136 14.1433 12.7761 15.5235 13.8594C16.9037 14.9428 17.5938 16.4636 17.5938 18.4219C17.5938 19.9428 17.2891 21.2448 16.6797 22.3282C16.0703 23.4115 15.1849 24.237 14.0235 24.8047C12.862 25.3724 11.4636 25.6563 9.82817 25.6563L0 25.6563L0 0L7.62497 0C10.2292 0 12.2422 0.5652 13.6641 1.6954C15.086 2.8256 15.7969 4.4271 15.7969 6.5C15.7969 8.0625 15.2657 9.3125 14.2032 10.25C13.1407 11.1875 11.6198 11.7605 9.64067 11.9688L9.64067 12.1719M3.60937 3.4375L3.60937 10.3907L6.96875 10.3907C8.56247 10.3907 9.79947 10.0834 10.6797 9.4688C11.5599 8.8542 12 7.9844 12 6.8594C12 5.7657 11.5417 4.9219 10.625 4.3282C9.70837 3.7344 8.40627 3.4375 6.71875 3.4375L3.60937 3.4375M8.78127 22.2188C10.375 22.2188 11.6094 21.8542 12.4844 21.1251C13.3594 20.3959 13.7969 19.3751 13.7969 18.0626C13.7969 16.7188 13.336 15.6771 12.4141 14.9375C11.4922 14.198 10.1979 13.8282 8.53127 13.8282L3.60937 13.8282L3.60937 22.2188L8.78127 22.2188M30.4844 15.2344C28.9844 15.9532 27.3594 16.3855 25.6094 16.5313L25.6094 25.6563L22 25.6563L22 0L25.6094 0L25.6094 13.1563C27.7552 12.9792 29.5573 12.2605 31.0157 11C32.474 9.7396 33.5573 8.1459 34.2657 6.2188C34.974 4.2917 35.3282 2.2188 35.3282 0L39.0625 0C39.0625 2.6042 38.5912 5.0599 37.6485 7.3672C36.7058 9.6745 35.3698 11.599 33.6407 13.1407L40.2813 25.6563L35.9063 25.6563L30.4844 15.2344"/><path id="shape4" transform="matrix(0.999999842071209 0 0 0.999999842071209 330.81816413391 89.7532599074111)" fill="url(#gradient1)" fill-rule="evenodd" d="M16.9844 22.2188L16.9844 25.6563L0 25.6563L0 0L3.60937 0L3.60937 22.2188L16.9844 22.2188M31.7344 3.4375L31.7344 22.2188L37.75 22.2188L37.75 25.6563L22.1407 25.6563L22.1407 22.2188L28.125 22.2188L28.125 3.4375L22.1407 3.4375L22.1407 0L37.75 0L37.75 3.4375L31.7344 3.4375M50.2188 0C54.1459 0 57.0834 1.1277 59.0313 3.3829C60.9792 5.6381 61.9532 9.0261 61.9532 13.5469C61.9532 17.599 60.9792 20.6303 59.0313 22.6407C57.0834 24.6511 54.1459 25.6563 50.2188 25.6563L44 25.6563L44 0L50.2188 0M50.2188 22.2188C52.8542 22.2188 54.8386 21.4662 56.1719 19.961C57.5052 18.4558 58.1719 16.198 58.1719 13.1875C58.1719 6.6875 55.5209 3.4375 50.2188 3.4375L47.6094 3.4375L47.6094 22.2188L50.2188 22.2188"/><path id="shape5" transform="matrix(0.999999846678053 0 0 0.999999846678053 329.238164315911 374.348433123696)" fill="#a81f3d" fill-rule="evenodd" d="M16.9844 22.2188L16.9844 25.6563L0 25.6563L0 0L3.60937 0L3.60937 22.2188L16.9844 22.2188M31.7344 3.4375L31.7344 22.2188L37.75 22.2188L37.75 25.6563L22.1407 25.6563L22.1407 22.2188L28.125 22.2188L28.125 3.4375L22.1407 3.4375L22.1407 0L37.75 0L37.75 3.4375L31.7344 3.4375M41.9063 0L45.7657 0L51.7657 22.9532L52.0938 22.9532L58.0938 0L61.9532 0L54.7344 26.0157L49.125 26.0157L41.9063 0"/><path id="shape6" transform="matrix(0.99999987005421 0 0 0.99999987005421 330.818163284364 233.80823805159)" fill="#358757" fill-rule="evenodd" d="M16.9844 22.2188L16.9844 25.6563L0 25.6563L0 0L3.60937 0L3.60937 22.2188L16.9844 22.2188M31.7344 3.4375L31.7344 22.2188L37.75 22.2188L37.75 25.6563L22.1407 25.6563L22.1407 22.2188L28.125 22.2188L28.125 3.4375L22.1407 3.4375L22.1407 0L37.75 0L37.75 3.4375L31.7344 3.4375M51.5469 0C53.6094 0 55.375 0.3386 56.8438 1.0157C58.3125 1.6928 59.4297 2.6797 60.1953 3.9766C60.961 5.2735 61.3438 6.8386 61.3438 8.6719C61.3438 10.5782 60.961 12.2084 60.1953 13.5625C59.4297 14.9167 58.3125 15.9454 56.8438 16.6485C55.375 17.3516 53.6094 17.7032 51.5469 17.7032L47.6094 17.7032L47.6094 25.6563L44 25.6563L44 0L51.5469 0M51.5469 14.2813C53.4532 14.2813 54.9297 13.823 55.9766 12.9063C57.0235 11.9896 57.5469 10.698 57.5469 9.0313C57.5469 7.25 57.0235 5.8724 55.9766 4.8985C54.9297 3.9245 53.4532 3.4375 51.5469 3.4375L47.6094 3.4375L47.6094 14.2813L51.5469 14.2813"/><path id="shape7" transform="matrix(0.999999803828638 0 0 0.999999803828638 170.950677127659 17.4832627659997)" fill="#000000" fill-rule="evenodd" d="M16.7657 15.3282C16.7657 16.2032 16.7292 17.0209 16.6563 17.7813L3.71875 17.7813C4.0625 19.3646 4.82291 20.573 6 21.4063C7.17708 22.2396 8.72917 22.6563 10.6563 22.6563C12.1459 22.6563 13.7136 22.4896 15.3594 22.1563L15.8282 25.5157C14.0573 25.849 12.1927 26.0157 10.2344 26.0157C8.04687 26.0157 6.1927 25.6303 4.67187 24.8594C3.15104 24.0886 1.99218 22.961 1.19531 21.4766C0.39843 19.9922 0 18.1823 0 16.0469C0 13.974 0.33854 12.198 1.01562 10.7188C1.6927 9.2396 2.67708 8.1068 3.96875 7.3204C5.26041 6.5339 6.8177 6.1407 8.64067 6.1407C11.2448 6.1407 13.25 6.9297 14.6563 8.5079C16.0625 10.086 16.7657 12.3594 16.7657 15.3282M13.2969 14.8594C13.2969 13.1407 12.8907 11.8178 12.0782 10.8907C11.2657 9.9636 10.1302 9.5 8.67187 9.5C7.1927 9.5 6.01302 9.9636 5.13281 10.8907C4.2526 11.8178 3.73437 13.1407 3.57812 14.8594L13.2969 14.8594M39.7813 3.4375L32.1875 3.4375L32.1875 25.6563L28.5782 25.6563L28.5782 3.4375L21 3.4375L21 0L39.7813 0L39.7813 3.4375M61.4219 22.2188L61.4219 25.6563L44.4375 25.6563L44.4375 0L48.0469 0L48.0469 22.2188L61.4219 22.2188M72.6563 0C76.5834 0 79.5209 1.1277 81.4688 3.3829C83.4167 5.6381 84.3907 9.0261 84.3907 13.5469C84.3907 17.599 83.4167 20.6303 81.4688 22.6407C79.5209 24.6511 76.5834 25.6563 72.6563 25.6563L66.4375 25.6563L66.4375 0L72.6563 0M72.6563 22.2188C75.2917 22.2188 77.2761 21.4662 78.6094 19.961C79.9427 18.4558 80.6094 16.198 80.6094 13.1875C80.6094 6.6875 77.9584 3.4375 72.6563 3.4375L70.0469 3.4375L70.0469 22.2188L72.6563 22.2188M105.422 11.1563L105.422 14.5157L98.1249 14.5157L98.1249 22.2188L94.6563 22.2188L94.6563 14.5157L87.3594 14.5157L87.3594 11.1563L94.6563 11.1563L94.6563 3.4688L98.1249 3.4688L98.1249 11.1563L105.422 11.1563M120.844 22.2969L126.547 22.2969L126.547 25.6563L110.625 25.6563L110.625 22.2969L117.016 22.2969L117.016 3.5469L110.985 4.9219L110.985 1.4532L117.016 0L120.844 0L120.844 22.2969"/><rect id="shape01" transform="matrix(0.999999858637111 0 0 0.999999858637111 337.804606711455 160.019540347241)" fill="none" stroke="#000000" stroke-width="7.2" stroke-linecap="square" stroke-linejoin="miter" stroke-miterlimit="2.16000008583069" width="44.5858520488611" height="30.9600095597077"/><path id="shape8" transform="matrix(0.999999849460091 0 0 0.999999849460091 201.856914598115 446.423188790598)" fill="#891688" fill-rule="evenodd" d="M17.5312 0L20.9531 0L18.4375 26.0157L12.5781 26.0157L10.5937 11.1719L10.375 11.1719L8.39063 26.0157L2.53126 26.0157L0 0L3.4375 0L5.60938 23.1251L5.96875 23.1251L8.60938 7.5938L12.3906 7.5938L15 23.1251L15.3594 23.1251L17.5312 0M32.4062 25.6563C26.9166 25.6563 24.1719 22.7917 24.1719 17.0626L24.1719 0L27.7812 0L27.7812 17.0626C27.7812 18.7917 28.1614 20.0834 28.9219 20.9376C29.6823 21.7917 30.8698 22.2188 32.4844 22.2188C34.0364 22.2188 35.2057 21.7865 35.9922 20.9219C36.7786 20.0573 37.1719 18.7709 37.1719 17.0626L37.1719 0L40.7969 0L40.7969 17.0626C40.7969 19.9167 40.0885 22.0626 38.6719 23.5001C37.2552 24.9376 35.1666 25.6563 32.4062 25.6563M55.0156 15.2344C53.5156 15.9532 51.8906 16.3855 50.1406 16.5313L50.1406 25.6563L46.5312 25.6563L46.5312 0L50.1406 0L50.1406 13.1563C52.2864 12.9792 54.0885 12.2605 55.5469 11C57.0052 9.7396 58.0885 8.1459 58.7969 6.2188C59.5052 4.2917 59.8594 2.2188 59.8594 0L63.5937 0C63.5937 2.6042 63.1224 5.0599 62.1797 7.3672C61.237 9.6745 59.901 11.599 58.1719 13.1407L64.8125 25.6563L60.4375 25.6563L55.0156 15.2344"/><path id="shape9" transform="matrix(0.999999818789021 0 0 0.999999818789021 412.838147105736 516.353877002054)" fill="#a81f3d" fill-rule="evenodd" d="M16.9844 22.5781L16.9844 26.0156L0 26.0156L0 0.3593L3.60937 0.3593L3.60937 22.5781L16.9844 22.5781M31.7344 3.7968L31.7344 22.5781L37.75 22.5781L37.75 26.0156L22.1407 26.0156L22.1407 22.5781L28.125 22.5781L28.125 3.7968L22.1407 3.7968L22.1407 0.3593L37.75 0.3593L37.75 3.7968L31.7344 3.7968M54.2969 12.0625C56.2761 12.9896 57.7396 14.0234 58.6875 15.164C59.6354 16.3047 60.1094 17.7187 60.1094 19.4062C60.1094 21.7916 59.3542 23.5807 57.8438 24.7734C56.3334 25.9661 54.0417 26.5625 50.9688 26.5625C48.0625 26.5625 45.5209 26.0885 43.3438 25.1406L43.8125 21.6406C46.4896 22.7031 48.974 23.2343 51.2657 23.2343C52.9427 23.2343 54.1927 22.9245 55.0157 22.3047C55.8386 21.6849 56.25 20.7396 56.25 19.4687C56.25 17.9479 55.4688 16.8281 53.9063 16.1093L49.4532 14.0937C47.6511 13.2708 46.2969 12.2942 45.3907 11.164C44.4844 10.0338 44.0313 8.6614 44.0313 7.0468C44.0313 5.5677 44.3516 4.2995 44.9922 3.2422C45.6328 2.1849 46.5599 1.3802 47.7735 0.8281C48.987 0.276 50.4532 0 52.1719 0C53.7136 0 55.0339 0.2396 56.1328 0.7187C57.2318 1.1979 58.0677 1.8932 58.6407 2.8047C59.2136 3.7161 59.5 4.8177 59.5 6.1093L55.9532 6.1093C55.9532 5.2135 55.6224 4.526 54.961 4.0468C54.2995 3.5677 53.3698 3.3281 52.1719 3.3281C50.8177 3.3281 49.7683 3.638 49.0235 4.2578C48.2787 4.8776 47.9063 5.7448 47.9063 6.8593C47.9063 7.6718 48.1198 8.3385 48.5469 8.8593C48.974 9.3802 49.6407 9.8593 50.5469 10.2968L54.2969 12.0625M74.4844 15.5937C72.9844 16.3125 71.3594 16.7448 69.6094 16.8906L69.6094 26.0156L66 26.0156L66 0.3593L69.6094 0.3593L69.6094 13.5156C71.7552 13.3385 73.5573 12.6198 75.0157 11.3593C76.474 10.0989 77.5573 8.5052 78.2657 6.5781C78.974 4.651 79.3282 2.5781 79.3282 0.3593L83.0625 0.3593C83.0625 2.9635 82.5912 5.4192 81.6485 7.7265C80.7058 10.0338 79.3698 11.9583 77.6407 13.5L84.2813 26.0156L79.9063 26.0156L74.4844 15.5937"/><path id="shape10" transform="matrix(0.999999842071209 0 0 0.999999842071209 107.811928263145 374.348433179699)" fill="#891688" fill-rule="evenodd" d="M17.5312 0L20.9531 0L18.4375 26.0157L12.5781 26.0157L10.5937 11.1719L10.375 11.1719L8.39063 26.0157L2.53126 26.0157L0 0L3.4375 0L5.60938 23.1251L5.96875 23.1251L8.60938 7.5938L12.3906 7.5938L15 23.1251L15.3594 23.1251L17.5312 0M33.0156 15.2344C31.5156 15.9532 29.8906 16.3855 28.1406 16.5313L28.1406 25.6563L24.5312 25.6563L24.5312 0L28.1406 0L28.1406 13.1563C30.2864 12.9792 32.0885 12.2605 33.5469 11C35.0052 9.7396 36.0885 8.1459 36.7969 6.2188C37.5052 4.2917 37.8594 2.2188 37.8594 0L41.5937 0C41.5937 2.6042 41.1224 5.0599 40.1797 7.3672C39.237 9.6745 37.901 11.599 36.1719 13.1407L42.8125 25.6563L38.4375 25.6563L33.0156 15.2344"/><path id="shape11" transform="matrix(0.999999801813608 0 0 0.999999801813608 20.2188581942236 516.713177143304)" fill="#891688" fill-rule="evenodd" d="M8.23435 25.6563C2.74479 25.6563 0 22.7917 0 17.0626L0 0L3.60938 0L3.60938 17.0626C3.60938 18.7917 3.98958 20.0834 4.75 20.9376C5.51042 21.7917 6.69792 22.2188 8.31255 22.2188C9.86455 22.2188 11.0338 21.7865 11.8203 20.9219C12.6067 20.0573 13 18.7709 13 17.0626L13 0L16.6251 0L16.6251 17.0626C16.6251 19.9167 15.9167 22.0626 14.5001 23.5001C13.0833 24.9376 10.9947 25.6563 8.23435 25.6563M32.0938 3.4375L32.0938 22.2188L38.1093 22.2188L38.1093 25.6563L22.5001 25.6563L22.5001 22.2188L28.4843 22.2188L28.4843 3.4375L22.5001 3.4375L22.5001 0L38.1093 0L38.1093 3.4375L32.0938 3.4375M50.5782 0C54.5052 0 57.4427 1.1277 59.3907 3.3829C61.3385 5.6381 62.3126 9.0261 62.3126 13.5469C62.3126 17.599 61.3385 20.6303 59.3907 22.6407C57.4427 24.6511 54.5052 25.6563 50.5782 25.6563L44.3593 25.6563L44.3593 0L50.5782 0M50.5782 22.2188C53.2135 22.2188 55.1979 21.4662 56.5313 19.961C57.8646 18.4558 58.5313 16.198 58.5313 13.1875C58.5313 6.6875 55.8802 3.4375 50.5782 3.4375L47.9688 3.4375L47.9688 22.2188L50.5782 22.2188"/><path id="shape12" transform="matrix(0.999999815508204 0 0 0.999999815508204 538.368097150379 446.423189203327)" fill="#000000" fill-rule="evenodd" d="M6.21875 0C10.1459 0 13.0834 1.1277 15.0313 3.3829C16.9792 5.6381 17.9532 9.0261 17.9532 13.5469C17.9532 17.599 16.9792 20.6303 15.0313 22.6407C13.0834 24.6511 10.1459 25.6563 6.21875 25.6563L0 25.6563L0 0L6.21875 0M6.21875 22.2188C8.85417 22.2188 10.8386 21.4662 12.1719 19.961C13.5052 18.4558 14.1719 16.198 14.1719 13.1875C14.1719 6.6875 11.5209 3.4375 6.21875 3.4375L3.60937 3.4375L3.60937 22.2188L6.21875 22.2188M40.0313 22.5782L40.0313 25.6563L33.8907 25.8438L33.7032 21.6094L33.3282 21.6094C33.1927 23.0573 32.5808 24.1537 31.4922 24.8985C30.4037 25.6433 28.9479 26.0157 27.125 26.0157C25.125 26.0157 23.5782 25.5365 22.4844 24.5782C21.3907 23.6198 20.8438 22.2553 20.8438 20.4844C20.8438 18.4636 21.5808 16.9115 23.0547 15.8282C24.5287 14.7448 26.6198 14.2032 29.3282 14.2032C30.8073 14.2032 32.0729 14.3542 33.125 14.6563L33.125 13.625C33.125 12.323 32.6823 11.3516 31.7969 10.711C30.9115 10.0704 29.5729 9.7032 27.7813 9.6094L23.1875 9.3907L23.5469 6.1407L27.4219 6.2813C30.5782 6.4063 32.9271 7.125 34.4688 8.4375C36.0104 9.75 36.7813 11.6719 36.7813 14.2032L36.7813 22.1876L40.0313 22.5782M27.75 22.9532C28.875 22.9532 29.8438 22.7527 30.6563 22.3516C31.4688 21.9506 32.0834 21.4323 32.5 20.7969C32.9167 20.1615 33.125 19.4948 33.125 18.7969L33.125 17.6407C32.5209 17.4844 31.9219 17.3829 31.3282 17.336C30.7344 17.2891 29.9844 17.2657 29.0782 17.2657C27.5677 17.2657 26.4193 17.5079 25.6328 17.9922C24.8464 18.4766 24.4532 19.1876 24.4532 20.1251C24.4532 21.0521 24.7318 21.7553 25.2891 22.2344C25.8464 22.7136 26.6667 22.9532 27.75 22.9532M60.2657 25.5782C58.5677 25.8698 56.8907 26.0157 55.2344 26.0157C53.2865 26.0157 51.711 25.7501 50.5078 25.2188C49.3047 24.6876 48.4193 23.8698 47.8516 22.7657C47.2839 21.6615 47 20.2136 47 18.4219L47 9.6875L42.1875 9.6875L42.1875 6.5L47 6.5L47 0.7188L50.8282 0.7188L50.8282 6.5L59.5313 6.5L59.5313 9.6875L50.8282 9.6875L50.8282 18.2501C50.8282 19.7813 51.2005 20.8855 51.9453 21.5626C52.6901 22.2396 53.9063 22.5782 55.5938 22.5782C56.1563 22.5782 56.7526 22.5495 57.3828 22.4922C58.013 22.435 58.8282 22.3438 59.8282 22.2188L60.2657 25.5782M82.3282 15.3282C82.3282 16.2032 82.2917 17.0209 82.2188 17.7813L69.2813 17.7813C69.625 19.3646 70.3854 20.573 71.5625 21.4063C72.7396 22.2396 74.2917 22.6563 76.2188 22.6563C77.7084 22.6563 79.2761 22.4896 80.9219 22.1563L81.3907 25.5157C79.6198 25.849 77.7552 26.0157 75.7969 26.0157C73.6094 26.0157 71.7552 25.6303 70.2344 24.8594C68.7136 24.0886 67.5547 22.961 66.7578 21.4766C65.961 19.9922 65.5625 18.1823 65.5625 16.0469C65.5625 13.974 65.9011 12.198 66.5782 10.7188C67.2552 9.2396 68.2396 8.1068 69.5313 7.3204C70.8229 6.5339 72.3802 6.1407 74.2032 6.1407C76.8073 6.1407 78.8125 6.9297 80.2188 8.5079C81.625 10.086 82.3282 12.3594 82.3282 15.3282M78.8594 14.8594C78.8594 13.1407 78.4532 11.8178 77.6407 10.8907C76.8282 9.9636 75.6927 9.5 74.2344 9.5C72.7552 9.5 71.5755 9.9636 70.6953 10.8907C69.8151 11.8178 69.2969 13.1407 69.1407 14.8594L78.8594 14.8594"/><rect id="shape011" transform="matrix(0.999999829616805 0 0 0.999999829616805 338.884607113202 304.799522329187)" fill="none" stroke="#000000" stroke-width="7.2" stroke-linecap="square" stroke-linejoin="miter" stroke-miterlimit="2.16000008583069" width="44.5858520488611" height="30.9600095597077"/><path id="shape13" transform="matrix(0.999999859366012 0 0 0.999999859366012 538.72059091889 585.264297515103)" fill="#0046aa" fill-rule="evenodd" d="M18.7813 3.7968L11.1875 3.7968L11.1875 26.0156L7.57812 26.0156L7.57812 3.7968L0 3.7968L0 0.3593L18.7813 0.3593L18.7813 3.7968M31.3907 26.375C25.0782 26.375 21.9219 22.0416 21.9219 13.375C21.9219 4.4583 25.0782 0 31.3907 0C37.7032 0 40.8594 4.4583 40.8594 13.375C40.8594 22.0416 37.7032 26.375 31.3907 26.375M31.3907 23.0468C35.1719 23.0468 37.0625 19.8229 37.0625 13.375C37.0625 6.6771 35.1719 3.3281 31.3907 3.3281C27.6094 3.3281 25.7188 6.6771 25.7188 13.375C25.7188 19.8229 27.6094 23.0468 31.3907 23.0468M62.7813 3.7968L55.1875 3.7968L55.1875 26.0156L51.5782 26.0156L51.5782 3.7968L44 3.7968L44 0.3593L62.7813 0.3593L62.7813 3.7968M74.9844 0.3593C77.0469 0.3593 78.8125 0.6979 80.2813 1.375C81.75 2.0521 82.8672 3.039 83.6328 4.3359C84.3985 5.6328 84.7813 7.1979 84.7813 9.0312C84.7813 10.9375 84.3985 12.5677 83.6328 13.9218C82.8672 15.276 81.75 16.3047 80.2813 17.0078C78.8125 17.7109 77.0469 18.0625 74.9844 18.0625L71.0469 18.0625L71.0469 26.0156L67.4375 26.0156L67.4375 0.3593L74.9844 0.3593M74.9844 14.6406C76.8907 14.6406 78.3672 14.1823 79.4141 13.2656C80.461 12.3489 80.9844 11.0573 80.9844 9.3906C80.9844 7.6093 80.461 6.2317 79.4141 5.2578C78.3672 4.2838 76.8907 3.7968 74.9844 3.7968L71.0469 3.7968L71.0469 14.6406L74.9844 14.6406"/><rect id="shape02" transform="matrix(0.999999829616805 0 0 0.999999829616805 211.704612533578 231.56453410482)" fill="none" stroke="#000000" stroke-width="7.2" stroke-linecap="square" stroke-linejoin="miter" stroke-miterlimit="2.16000008583069" width="44.5858520488611" height="30.9600095597077"/><rect id="shape03" transform="matrix(0.999999819208578 0 0 0.999999819208578 25.6011821186368 444.179484754598)" fill="none" stroke="#000000" stroke-width="7.2" stroke-linecap="square" stroke-linejoin="miter" stroke-miterlimit="2.16000008583069" width="44.5858520488611" height="30.9600095597077"/><rect id="shape04" transform="matrix(0.999999775207459 0 0 0.999999775207459 211.704613746521 372.104729735015)" fill="none" stroke="#000000" stroke-width="7.2" stroke-linecap="square" stroke-linejoin="miter" stroke-miterlimit="2.16000008583069" width="44.5858520488611" height="30.9600095597077"/><rect id="shape05" transform="matrix(0.999999766051474 0 0 0.999999766051474 435.219053829744 444.179485577471)" fill="none" stroke="#000000" stroke-width="7.2" stroke-linecap="square" stroke-linejoin="miter" stroke-miterlimit="2.16000008583069" width="44.5858520488611" height="30.9600095597077"/><rect id="shape06" transform="matrix(0.999999758247536 0 0 0.999999758247536 557.268007411834 514.469473471777)" fill="none" stroke="#000000" stroke-width="7.2" stroke-linecap="square" stroke-linejoin="miter" stroke-miterlimit="2.16000008583069" width="44.5858520488611" height="30.9600095597077"/><path id="shape14" transform="matrix(0.999999859366012 0 0 0.999999859366012 161.440027924285 102.23998562158)" fill="none" stroke="#000000" stroke-width="7.2" stroke-linecap="square" stroke-linejoin="miter" stroke-miterlimit="2" marker-end="url(#lineMarker0)" krita:marker-fill-method="auto" d="M0 0L47.52 0"/><g id="group0" transform="matrix(0.999999859366012 0 0 0.999999859366012 234.846095945858 54.8799922820067)" fill="none">
  <path id="shape15" transform="matrix(1 0 0 -1 0.713921655037751 19.5287791823502)" fill="none" stroke="#000000" stroke-width="7.2" stroke-linecap="square" stroke-linejoin="miter" stroke-miterlimit="2" d="M0 0L0 19.5288"/>
  <path id="shape16" transform="translate(0, 22.951244300183)" fill="#000000" fill-rule="evenodd" stroke="#000000" stroke-width="7.2" stroke-linecap="square" stroke-linejoin="miter" stroke-miterlimit="2.16000008583069" d="M0 5.40598e-16L1.17733 0L0.58446 0.859136Z"/>
 </g><path id="shape07" transform="matrix(0.999999847399704 0 0 0.999999847399704 286.148120117077 174.676084561867)" fill="none" stroke="#000000" stroke-width="7.2" stroke-linecap="square" stroke-linejoin="miter" stroke-miterlimit="2" marker-end="url(#lineMarker1)" krita:marker-fill-method="auto" d="M0 0L47.52 0"/><path id="shape09" transform="matrix(0.999999847399704 0 0 0.999999847399704 160.148134281743 388.516060522408)" fill="none" stroke="#000000" stroke-width="7.2" stroke-linecap="square" stroke-linejoin="miter" stroke-miterlimit="2" marker-end="url(#lineMarker2)" krita:marker-fill-method="auto" d="M0 0L47.52 0"/><path id="shape010" transform="matrix(0.999999847399704 0 0 0.999999847399704 505.74809543009 529.636044657982)" fill="none" stroke="#000000" stroke-width="7.2" stroke-linecap="square" stroke-linejoin="miter" stroke-miterlimit="2" marker-end="url(#lineMarker3)" krita:marker-fill-method="auto" d="M0 0L47.52 0"/><path id="shape0111" transform="matrix(0.999999847399704 0 0 0.999999847399704 276.06812125025 459.796052509254)" fill="none" stroke="#000000" stroke-width="7.2" stroke-linecap="square" stroke-linejoin="miter" stroke-miterlimit="2" marker-end="url(#lineMarker4)" krita:marker-fill-method="auto" d="M0 0L155.212 0"/><path id="shape012" transform="matrix(-0.999999847399704 0 0 0.999999847399704 189.360029340768 459.796052509254)" fill="none" stroke="#000000" stroke-width="7.2" stroke-linecap="square" stroke-linejoin="miter" stroke-miterlimit="2" marker-end="url(#lineMarker5)" krita:marker-fill-method="auto" d="M0 0L113.76 0"/><g id="group01" transform="matrix(0.999999847449436 0 0 0.999999847449436 235.371766480749 120.0393454587)" fill="none">
  <path id="shape013" transform="matrix(1 0 0 -1 0.713921655037751 19.5287791823502)" fill="none" stroke="#000000" stroke-width="7.2" stroke-linecap="square" stroke-linejoin="miter" stroke-miterlimit="2" d="M0 0L0 19.5288"/>
  <path id="shape111" transform="translate(0, 22.951244300183)" fill="#000000" fill-rule="evenodd" stroke="#000000" stroke-width="7.2" stroke-linecap="square" stroke-linejoin="miter" stroke-miterlimit="2.16000008583069" d="M0 5.40598e-16L1.17733 0L0.58446 0.859136Z"/>
 </g><g id="group011" transform="matrix(0.999999847449436 0 0 0.999999847449436 234.834229040049 199.856220712106)" fill="none">
  <path id="shape014" transform="matrix(1 0 0 -1 0.71392165503778 19.5287791823502)" fill="none" stroke="#000000" stroke-width="7.2" stroke-linecap="square" stroke-linejoin="miter" stroke-miterlimit="2" d="M0 0L0 19.5288"/>
  <path id="shape1111" transform="translate(-2.8421709430404e-14, 22.951244300183)" fill="#000000" fill-rule="evenodd" stroke="#000000" stroke-width="7.2" stroke-linecap="square" stroke-linejoin="miter" stroke-miterlimit="2.16000008583069" d="M0 5.40598e-16L1.17733 0L0.58446 0.859136Z"/>
 </g><g id="group02" transform="matrix(0.999999847449436 0 0 0.999999847449436 360 127.856225973778)" fill="none">
  <path id="shape015" transform="matrix(1 0 0 -1 0.71392165503778 19.5287791823502)" fill="none" stroke="#000000" stroke-width="7.2" stroke-linecap="square" stroke-linejoin="miter" stroke-miterlimit="2" d="M0 0L0 19.5288"/>
  <path id="shape121" transform="translate(0, 22.951244300183)" fill="#000000" fill-rule="evenodd" stroke="#000000" stroke-width="7.2" stroke-linecap="square" stroke-linejoin="miter" stroke-miterlimit="2.16000008583069" d="M0 5.40598e-16L1.17733 0L0.58446 0.859136Z"/>
 </g><g id="group03" transform="matrix(0.999999847449436 0 0 0.999999847449436 360 197.416220957973)" fill="none">
  <path id="shape016" transform="matrix(1 0 0 -1 0.71392165503778 19.5287791823501)" fill="none" stroke="#000000" stroke-width="7.2" stroke-linecap="square" stroke-linejoin="miter" stroke-miterlimit="2" d="M0 0L0 19.5288"/>
  <path id="shape131" transform="translate(0, 22.951244300183)" fill="#000000" fill-rule="evenodd" stroke="#000000" stroke-width="7.2" stroke-linecap="square" stroke-linejoin="miter" stroke-miterlimit="2.16000008583069" d="M0 5.40598e-16L1.17733 0L0.58446 0.859136Z"/>
 </g><g id="group05" transform="matrix(0.999999847449436 0 0 0.999999847449436 234.474229066357 269.056215722609)" fill="none">
  <path id="shape018" transform="matrix(1 0 0 -1 0.713921655037751 19.5287791823503)" fill="none" stroke="#000000" stroke-width="7.2" stroke-linecap="square" stroke-linejoin="miter" stroke-miterlimit="2" d="M0 0L0 19.5288"/>
  <path id="shape151" transform="translate(0, 22.951244300183)" fill="#000000" fill-rule="evenodd" stroke="#000000" stroke-width="7.2" stroke-linecap="square" stroke-linejoin="miter" stroke-miterlimit="2.16000008583069" d="M0 5.40598e-16L1.17733 0L0.58446 0.859136Z"/>
 </g><g id="group06" transform="matrix(0.999999826868164 0 0 0.999999826868164 234.647661121523 340.36307704204)" fill="none">
  <path id="shape019" transform="matrix(1 0 0 -1 0.713921655037751 19.5287791823501)" fill="none" stroke="#000000" stroke-width="7.2" stroke-linecap="square" stroke-linejoin="miter" stroke-miterlimit="2" d="M0 0L0 19.5288"/>
  <path id="shape161" transform="translate(-2.8421709430404e-14, 22.9512443001831)" fill="#000000" fill-rule="evenodd" stroke="#000000" stroke-width="7.2" stroke-linecap="square" stroke-linejoin="miter" stroke-miterlimit="2.16000008583069" d="M0 5.40598e-16L1.17733 0L0.58446 0.859136Z"/>
 </g><g id="group07" transform="matrix(0.999999826868164 0 0 0.999999826868164 360 342.399544304255)" fill="none">
  <path id="shape020" transform="matrix(1 0 0 -1 0.71392165503778 19.5287791823503)" fill="none" stroke="#000000" stroke-width="7.2" stroke-linecap="square" stroke-linejoin="miter" stroke-miterlimit="2" d="M0 0L0 19.5288"/>
  <path id="shape17" transform="translate(0, 22.951244300183)" fill="#000000" fill-rule="evenodd" stroke="#000000" stroke-width="7.2" stroke-linecap="square" stroke-linejoin="miter" stroke-miterlimit="2.16000008583069" d="M0 5.40598e-16L1.17733 0L0.58446 0.859136Z"/>
 </g><path id="shape021" transform="matrix(0.999999792149469 0 0 -0.999999792149469 48.6891396457678 431.435031654691)" fill="none" stroke="#000000" stroke-width="7.2" stroke-linecap="square" stroke-linejoin="miter" stroke-miterlimit="2" d="M0 0L0 105.275"/><path id="shape18" transform="matrix(0.999999792149469 0 0 0.999999792149469 47.975218139119 434.857496061163)" fill="#000000" fill-rule="evenodd" stroke="#000000" stroke-width="7.2" stroke-linecap="square" stroke-linejoin="miter" stroke-miterlimit="2.16000008583069" d="M0 5.40598e-16L1.17733 0L0.58446 0.859136Z"/><g id="group08" transform="matrix(0.999999792149469 0 0 0.999999792149469 234.057414223896 410.142581448712)" fill="none">
  <path id="shape022" transform="matrix(1 0 0 -1 0.71392165503778 19.52877918235)" fill="none" stroke="#000000" stroke-width="7.2" stroke-linecap="square" stroke-linejoin="miter" stroke-miterlimit="2" d="M0 0L0 19.5288"/>
  <path id="shape19" transform="translate(-2.8421709430404e-14, 22.9512443001831)" fill="#000000" fill-rule="evenodd" stroke="#000000" stroke-width="7.2" stroke-linecap="square" stroke-linejoin="miter" stroke-miterlimit="2.16000008583069" d="M0 5.40598e-16L1.17733 0L0.58446 0.859136Z"/>
 </g><g id="group09" transform="matrix(0.999999792149469 0 0 0.999999792149469 48.4843379539911 480.655258266249)" fill="none">
  <path id="shape023" transform="matrix(1 0 0 -1 0.713921655037787 19.5287791823501)" fill="none" stroke="#000000" stroke-width="7.2" stroke-linecap="square" stroke-linejoin="miter" stroke-miterlimit="2" d="M0 0L0 19.5288"/>
  <path id="shape110" transform="translate(0, 22.9512443001831)" fill="#000000" fill-rule="evenodd" stroke="#000000" stroke-width="7.2" stroke-linecap="square" stroke-linejoin="miter" stroke-miterlimit="2.16000008583069" d="M0 5.40598e-16L1.17733 0L0.58446 0.859136Z"/>
 </g><g id="group010" transform="matrix(0.999999792149469 0 0 0.999999792149469 457.305134369055 482.182608688723)" fill="none">
  <path id="shape024" transform="matrix(1 0 0 -1 0.713921655037609 19.52877918235)" fill="none" stroke="#000000" stroke-width="7.2" stroke-linecap="square" stroke-linejoin="miter" stroke-miterlimit="2" d="M0 0L0 19.5288"/>
  <path id="shape11111" transform="translate(0, 22.9512443001831)" fill="#000000" fill-rule="evenodd" stroke="#000000" stroke-width="7.2" stroke-linecap="square" stroke-linejoin="miter" stroke-miterlimit="2.16000008583069" d="M0 5.40598e-16L1.17733 0L0.58446 0.859136Z"/>
 </g><path id="shape025" transform="matrix(0.999999792149469 0 0 -0.999999792149469 458.019055875706 431.435030622667)" fill="none" stroke="#000000" stroke-width="7.2" stroke-linecap="square" stroke-linejoin="miter" stroke-miterlimit="2" d="M0 0L0 328.475"/><path id="shape112" transform="matrix(0.999999792149469 0 0 0.999999792149469 457.305134369055 434.85749502914)" fill="#000000" fill-rule="evenodd" stroke="#000000" stroke-width="7.2" stroke-linecap="square" stroke-linejoin="miter" stroke-miterlimit="2.16000008583069" d="M0 5.40598e-16L1.17733 0L0.58446 0.859136Z"/><g id="group0111" transform="matrix(0.999999792149469 0 0 0.999999792149469 577.456700936872 481.655258125616)" fill="none">
  <path id="shape026" transform="matrix(1 0 0 -1 0.713921655037893 19.5287791823501)" fill="none" stroke="#000000" stroke-width="7.2" stroke-linecap="square" stroke-linejoin="miter" stroke-miterlimit="2" d="M0 0L0 19.5288"/>
  <path id="shape113" transform="translate(0, 22.9512443001831)" fill="#000000" fill-rule="evenodd" stroke="#000000" stroke-width="7.2" stroke-linecap="square" stroke-linejoin="miter" stroke-miterlimit="2.16000008583069" d="M0 5.40598e-16L1.17733 0L0.58446 0.859136Z"/>
 </g><g id="group012" transform="matrix(0.999999792149469 0 0 0.999999792149469 578.474934551853 552.440728122445)" fill="none">
  <path id="shape027" transform="matrix(1 0 0 -1 0.713921655037893 19.52877918235)" fill="none" stroke="#000000" stroke-width="7.2" stroke-linecap="square" stroke-linejoin="miter" stroke-miterlimit="2" d="M0 0L0 19.5288"/>
  <path id="shape114" transform="translate(0, 22.9512443001831)" fill="#000000" fill-rule="evenodd" stroke="#000000" stroke-width="7.2" stroke-linecap="square" stroke-linejoin="miter" stroke-miterlimit="2.16000008583069" d="M0 5.40598e-16L1.17733 0L0.58446 0.859136Z"/>
 </g><path id="shape171" transform="matrix(0.999999859366012 0 0 0.999999859366012 48.6000397895546 319.679932127538)" fill="none" stroke="#000000" stroke-width="7.2" stroke-linecap="square" stroke-linejoin="miter" stroke-miterlimit="2" d="M0 0L132.95 0"/><path id="shape181" transform="matrix(0.999999859366012 0 0 0.999999859366012 401.759992732913 102.959985163026)" fill="none" stroke="#000000" stroke-width="7.2" stroke-linecap="square" stroke-linejoin="miter" stroke-miterlimit="2" d="M0 0L55.44 0"/><rect id="shape191" transform="matrix(0.999999859366012 0 0 0.999999859366012 504.719979647449 205.314062700276)" fill="#a81f3d" fill-rule="evenodd" stroke="#000000" stroke-width="4.32" stroke-linecap="square" stroke-linejoin="miter" stroke-miterlimit="2.16000008583069" width="27.36" height="28.08"/><path id="shape20" transform="matrix(0.999999791098552 0 0 0.999999791098552 492.226885396237 63.8582550151445)" fill="#000000" fill-rule="evenodd" d="M12.3906 17.2813L12.3906 19.7813L0 19.7813L0 1.0625L2.64062 1.0625L2.64062 17.2813L12.3906 17.2813M27.9219 12.2344C27.9219 12.8803 27.8958 13.4792 27.8437 14.0313L18.4062 14.0313C18.6458 15.1876 19.1979 16.0704 20.0625 16.6797C20.9271 17.2891 22.0625 17.5938 23.4687 17.5938C24.5416 17.5938 25.6823 17.4688 26.8906 17.2188L27.2344 19.6719C25.9427 19.9219 24.5781 20.0469 23.1406 20.0469C21.5573 20.0469 20.2083 19.7657 19.0937 19.2032C17.9791 18.6407 17.1328 17.8152 16.5547 16.7266C15.9765 15.6381 15.6875 14.3178 15.6875 12.7657C15.6875 11.2553 15.9323 9.95838 16.4219 8.875C16.9114 7.7917 17.6302 6.9662 18.5781 6.3985C19.526 5.8308 20.6614 5.5469 21.9844 5.5469C23.8802 5.5469 25.3437 6.1224 26.375 7.2735C27.4062 8.4245 27.9219 10.0782 27.9219 12.2344M25.3906 11.8907C25.3906 10.6511 25.0937 9.6928 24.5 9.0157C23.9062 8.3386 23.0781 8 22.0156 8C20.9323 8 20.0703 8.3386 19.4297 9.0157C18.789 9.6928 18.4114 10.6511 18.2969 11.8907L25.3906 11.8907M43.5 5.8125L43.5 18.5469C43.5 20.2136 43.25 21.5782 42.75 22.6407C42.25 23.7032 41.4791 24.5053 40.4375 25.0469C39.3958 25.5886 38.0416 25.8907 36.375 25.9532L32.2969 26.0782L32.1562 23.6094L36.6406 23.3907C38.0364 23.3282 39.0573 22.9376 39.7031 22.2188C40.3489 21.5001 40.6719 20.4167 40.6719 18.9688L40.6719 17.6251L40.4375 17.6251C40.3541 18.4167 39.9817 19.0183 39.3203 19.4297C38.6588 19.8412 37.7916 20.0469 36.7187 20.0469C35.5416 20.0469 34.539 19.7709 33.7109 19.2188C32.8828 18.6667 32.25 17.8594 31.8125 16.7969C31.375 15.7344 31.1562 14.4428 31.1562 12.9219C31.1562 11.3698 31.375 10.0391 31.8125 8.9297C32.25 7.8204 32.888 6.9792 33.7265 6.4063C34.5651 5.8334 35.5729 5.5469 36.75 5.5469C37.8646 5.5469 38.7265 5.7761 39.3359 6.2344C39.9453 6.6928 40.3125 7.3959 40.4375 8.3438L40.7344 8.3438L40.9687 5.8125L43.5 5.8125M37.1719 17.6719C39.526 17.6719 40.7031 16.8803 40.7031 15.2969L40.7031 11.9219C40.7031 9.2553 39.5156 7.9219 37.1406 7.9219C36.1094 7.9219 35.3151 8.3568 34.7578 9.2266C34.2005 10.0964 33.9219 11.3282 33.9219 12.9219C33.9219 14.4844 34.1953 15.6667 34.7422 16.4688C35.289 17.2709 36.0989 17.6719 37.1719 17.6719M59.9219 12.2344C59.9219 12.8803 59.8958 13.4792 59.8437 14.0313L50.4062 14.0313C50.6458 15.1876 51.1979 16.0704 52.0625 16.6797C52.9271 17.2891 54.0625 17.5938 55.4687 17.5938C56.5416 17.5938 57.6823 17.4688 58.8906 17.2188L59.2344 19.6719C57.9427 19.9219 56.5781 20.0469 55.1406 20.0469C53.5573 20.0469 52.2083 19.7657 51.0937 19.2032C49.9791 18.6407 49.1328 17.8152 48.5547 16.7266C47.9765 15.6381 47.6875 14.3178 47.6875 12.7657C47.6875 11.2553 47.9323 9.95838 48.4219 8.875C48.9114 7.7917 49.6302 6.9662 50.5781 6.3985C51.526 5.8308 52.6614 5.5469 53.9844 5.5469C55.8802 5.5469 57.3437 6.1224 58.375 7.2735C59.4062 8.4245 59.9219 10.0782 59.9219 12.2344M57.3906 11.8907C57.3906 10.6511 57.0937 9.6928 56.5 9.0157C55.9062 8.3386 55.0781 8 54.0156 8C52.9323 8 52.0703 8.3386 51.4297 9.0157C50.789 9.6928 50.4114 10.6511 50.2969 11.8907L57.3906 11.8907M70.8594 5.5469C72.3385 5.5469 73.4817 5.9948 74.289 6.8907C75.0963 7.7865 75.5 9.0521 75.5 10.6876L75.5 19.7813L72.7031 19.7813L72.7031 10.6876C72.7031 9.80213 72.4844 9.1198 72.0469 8.6407C71.6094 8.1615 70.9948 7.9219 70.2031 7.9219C68.0052 7.9219 66.9062 9.2553 66.9062 11.9219L66.9062 19.7813L64.1094 19.7813L64.1094 5.8125L66.6406 5.8125L66.8594 8.3438L67.1719 8.3438C67.2448 7.3959 67.5859 6.6928 68.1953 6.2344C68.8047 5.7761 69.6927 5.5469 70.8594 5.5469M91.5 0L91.5 19.7813L88.9844 19.9063L88.75 17.6251L88.4375 17.6251C88.3541 18.4167 87.9817 19.0183 87.3203 19.4297C86.6588 19.8412 85.7916 20.0469 84.7187 20.0469C83.5416 20.0469 82.539 19.7709 81.7109 19.2188C80.8828 18.6667 80.25 17.8594 79.8125 16.7969C79.375 15.7344 79.1562 14.4428 79.1562 12.9219C79.1562 11.3698 79.375 10.0391 79.8125 8.9297C80.25 7.8204 80.888 6.9792 81.7265 6.4063C82.5651 5.8334 83.5729 5.5469 84.75 5.5469C85.8646 5.5469 86.7265 5.7761 87.3359 6.2344C87.9453 6.6928 88.3125 7.3959 88.4375 8.3438L88.7031 8.3438L88.7031 0L91.5 0M85.1719 17.6719C87.526 17.6719 88.7031 16.8803 88.7031 15.2969L88.7031 11.9219C88.7031 9.2553 87.5156 7.9219 85.1406 7.9219C84.1094 7.9219 83.3151 8.3568 82.7578 9.2266C82.2005 10.0964 81.9219 11.3282 81.9219 12.9219C81.9219 14.4844 82.1953 15.6667 82.7422 16.4688C83.289 17.2709 84.0989 17.6719 85.1719 17.6719"/><path id="shape21" transform="matrix(0.999999823232178 0 0 0.999999823232178 551.133762182808 211.133462212793)" fill="#000000" fill-rule="evenodd" d="M5.60938 6.98435C6.63021 7.4531 7.38542 7.98175 7.875 8.57029C8.36458 9.15883 8.60938 9.88539 8.60938 10.75C8.60938 11.9687 8.22135 12.8854 7.44531 13.5C6.66927 14.1146 5.48958 14.4218 3.90625 14.4218C2.41667 14.4218 1.11458 14.1771 0 13.6875L0.23438 11.8906C1.60938 12.4427 2.88542 12.7187 4.0625 12.7187C4.91667 12.7187 5.55729 12.5573 5.98438 12.2343C6.41146 11.9114 6.625 11.4271 6.625 10.7812C6.625 9.99997 6.21875 9.42706 5.40625 9.06247L3.125 8.0156C2.19792 7.59893 1.5026 7.09893 1.03906 6.5156C0.57552 5.93227 0.34375 5.22914 0.34375 4.40622C0.34375 3.6458 0.50781 2.9948 0.83594 2.4531C1.16406 1.9114 1.64063 1.4974 2.26563 1.2109C2.89063 0.9245 3.64063 0.7812 4.51563 0.7812C5.30729 0.7812 5.98698 0.9036 6.55469 1.1484C7.1224 1.3932 7.55208 1.75 7.84375 2.2187C8.13542 2.6875 8.28125 3.2552 8.28125 3.9218L6.46875 3.9218C6.46875 3.4635 6.29948 3.1093 5.96094 2.8593C5.6224 2.6093 5.14063 2.4843 4.51563 2.4843C3.82813 2.4843 3.29167 2.6432 2.90625 2.9609C2.52083 3.2786 2.32813 3.7291 2.32813 4.31247C2.32813 4.71872 2.4375 5.05727 2.65625 5.3281C2.875 5.59893 3.21875 5.84372 3.6875 6.06247L5.60938 6.98435M15.9532 2.75C15.7032 2.75 15.4739 2.6875 15.2657 2.5625C15.0572 2.4375 14.8907 2.2708 14.7657 2.0625C14.6407 1.8541 14.5782 1.625 14.5782 1.375C14.5782 1.125 14.6407 0.8958 14.7657 0.6875C14.8907 0.4791 15.0572 0.3125 15.2657 0.1875C15.4739 0.0625 15.7032 0 15.9532 0C16.1928 0 16.4193 0.0625 16.6329 0.1875C16.8464 0.3125 17.0157 0.4791 17.1407 0.6875C17.2657 0.8958 17.3282 1.125 17.3282 1.375C17.3282 1.625 17.2657 1.8541 17.1407 2.0625C17.0157 2.2708 16.8464 2.4375 16.6329 2.5625C16.4193 2.6875 16.1928 2.75 15.9532 2.75M17.0468 12.5312L20.0626 12.5312L20.0626 14.1406L11.3282 14.1406L11.3282 12.5312L15.0782 12.5312L15.0782 5.93747L11.8907 5.93747L11.8907 4.31247L17.0468 4.31247L17.0468 12.5312M30.4218 4.31247L30.4218 13.2656C30.4218 14.4427 30.2474 15.4062 29.8985 16.1562C29.5495 16.9062 29.0053 17.4713 28.2657 17.8515C27.5261 18.2317 26.5729 18.4427 25.4063 18.4843L22.5313 18.5781L22.4376 16.8281L25.5938 16.6875C26.5729 16.6458 27.2917 16.3698 27.7501 15.8593C28.2083 15.3489 28.4376 14.5833 28.4376 13.5625L28.4376 12.625L28.2657 12.625C28.2032 13.1771 27.9401 13.5989 27.4765 13.8906C27.013 14.1823 26.4063 14.3281 25.6563 14.3281C24.8229 14.3281 24.1146 14.1354 23.5313 13.75C22.9479 13.3646 22.5026 12.7968 22.1954 12.0468C21.888 11.2968 21.7343 10.3854 21.7343 9.31247C21.7343 8.21872 21.888 7.28383 22.1954 6.50779C22.5026 5.73175 22.9505 5.1406 23.539 4.73435C24.1276 4.3281 24.8386 4.125 25.6718 4.125C26.4532 4.125 27.0599 4.28643 27.4921 4.60935C27.9245 4.93227 28.1822 5.42706 28.2657 6.09372L28.4843 6.09372L28.6407 4.31247L30.4218 4.31247M25.9688 12.6562C27.6251 12.6562 28.4532 12.0989 28.4532 10.9843L28.4532 8.60935C28.4532 6.73435 27.6197 5.79685 25.9532 5.79685C25.2239 5.79685 24.664 6.10154 24.2735 6.71091C23.8829 7.32029 23.6876 8.18747 23.6876 9.31247C23.6876 10.4166 23.8776 11.25 24.2579 11.8125C24.638 12.375 25.2083 12.6562 25.9688 12.6562M38.1563 4.125C39.1979 4.125 40.0027 4.44008 40.5703 5.07029C41.138 5.7005 41.4218 6.58852 41.4218 7.73435L41.4218 14.1406L39.4532 14.1406L39.4532 7.73435C39.4532 7.11977 39.2995 6.6432 38.9922 6.30466C38.6848 5.96612 38.2501 5.79685 37.6876 5.79685C36.1459 5.79685 35.3751 6.73435 35.3751 8.60935L35.3751 14.1406L33.4063 14.1406L33.4063 4.31247L35.1876 4.31247L35.3438 6.09372L35.5626 6.09372C35.6146 5.42706 35.8541 4.93227 36.2813 4.60935C36.7084 4.28643 37.3334 4.125 38.1563 4.125M43.7657 8.09372L53.0468 8.09372L53.0468 9.81247L43.7657 9.81247L43.7657 8.09372M64.5938 12.5625L64.5938 14.1406L61.4376 14.2343L61.2968 12.25L61.1251 12.25C60.9688 12.9166 60.6823 13.4297 60.2657 13.789C59.849 14.1484 59.3334 14.3281 58.7188 14.3281C57.6251 14.3281 56.7813 14.0208 56.1876 13.4062C55.5938 12.7916 55.2968 11.9218 55.2968 10.7968L55.2968 4.125L57.2188 4.125L57.2188 10.7968C57.2188 11.3906 57.3828 11.8489 57.7109 12.1718C58.0391 12.4948 58.5001 12.6562 59.0938 12.6562C59.8229 12.6562 60.3672 12.4166 60.7266 11.9375C61.0859 11.4583 61.2657 10.6771 61.2657 9.59372L61.2657 4.125L63.2344 4.125L63.2344 12.3593L64.5938 12.5625M71.1563 4.125C71.9792 4.125 72.6876 4.3281 73.2813 4.73435C73.8751 5.1406 74.3256 5.73175 74.6329 6.50779C74.9402 7.28383 75.0938 8.21872 75.0938 9.31247C75.0938 10.3854 74.9402 11.2968 74.6329 12.0468C74.3256 12.7968 73.8803 13.3646 73.2969 13.75C72.7135 14.1354 72.0053 14.3281 71.1719 14.3281C70.4219 14.3281 69.8126 14.1823 69.3438 13.8906C68.8751 13.5989 68.6145 13.1771 68.5626 12.625L68.3751 12.625L68.3751 18.4062L66.4063 18.4062L66.4063 4.31247L68.1876 4.31247L68.3438 6.09372L68.5626 6.09372C68.6458 5.42706 68.901 4.93227 69.3281 4.60935C69.7553 4.28643 70.3645 4.125 71.1563 4.125M70.8594 12.6562C71.6094 12.6562 72.177 12.375 72.5626 11.8125C72.948 11.25 73.1406 10.4166 73.1406 9.31247C73.1406 8.18747 72.9428 7.32029 72.5469 6.71091C72.151 6.10154 71.5938 5.79685 70.8751 5.79685C69.2083 5.79685 68.3751 6.73435 68.3751 8.60935L68.3751 10.9843C68.3751 12.0989 69.2031 12.6562 70.8594 12.6562"/><rect id="shape028" transform="matrix(0.999999816099086 0 0 0.999999816099086 504.719979647449 110.194222249752)" fill="#358757" fill-rule="evenodd" stroke="#000000" stroke-width="4.32" stroke-linecap="square" stroke-linejoin="miter" stroke-miterlimit="2.16000008583069" width="27.36" height="28.08"/><path id="shape22" transform="matrix(0.999999779965254 0 0 0.999999779965254 551.961891755862 116.982321250606)" fill="#000000" fill-rule="evenodd" d="M4.95312 6.25002C6.2552 6.27086 7.26041 6.55992 7.96875 7.11721C8.67712 7.6745 9.03122 8.45315 9.03122 9.45315C9.03122 10.2344 8.87502 10.9037 8.56252 11.461C8.25 12.0183 7.79687 12.4427 7.20312 12.7344C6.60937 13.0261 5.89062 13.1719 5.04687 13.1719L0 13.1719L0 0L3.92187 0C5.2552 0 6.28645 0.2891 7.01562 0.8672C7.74479 1.4453 8.10937 2.2709 8.10937 3.34377C8.10937 4.13544 7.83593 4.77346 7.28906 5.25784C6.74218 5.74221 5.96354 6.03648 4.95312 6.14065L4.95312 6.25002M1.85937 1.7656L1.85937 5.32815L3.57812 5.32815C4.40104 5.32815 5.03645 5.1719 5.48437 4.8594C5.93229 4.5469 6.15625 4.09898 6.15625 3.51565C6.15625 2.9531 5.92187 2.5209 5.45312 2.2188C4.98437 1.9167 4.3177 1.7656 3.45312 1.7656L1.85937 1.7656M4.51562 11.4063C5.32812 11.4063 5.96093 11.2188 6.41406 10.8438C6.86718 10.4688 7.09375 9.94794 7.09375 9.28127C7.09375 8.58336 6.85677 8.0443 6.38281 7.66409C5.90885 7.28388 5.23958 7.09377 4.375 7.09377L1.85937 7.09377L1.85937 11.4063L4.51562 11.4063M17.3125 3.1563C17.9896 3.1563 18.539 3.28388 18.9609 3.53909C19.3828 3.7943 19.6953 4.19013 19.8984 4.72659C20.1015 5.26305 20.2031 5.96877 20.2031 6.84377L18.25 6.84377C18.25 6.13544 18.1432 5.62242 17.9297 5.30471C17.7161 4.987 17.375 4.82815 16.9062 4.82815C16.0833 4.82815 15.4635 5.17971 15.0469 5.88284C14.6302 6.58596 14.4219 7.60419 14.4219 8.93752L14.4219 11.5313L16.8281 11.5313L16.8281 13.1719L10.2656 13.1719L10.2656 11.5313L12.4531 11.5313L12.4531 4.96877L10.625 4.96877L10.625 3.34377L14.0469 3.34377L14.375 5.8594L14.5937 5.8594C14.6562 4.95315 14.9114 4.27607 15.3594 3.82815C15.8073 3.38023 16.4583 3.1563 17.3125 3.1563M26.0781 13.3594C25.1823 13.3594 24.4088 13.1589 23.7578 12.7578C23.1067 12.3568 22.6146 11.7761 22.2812 11.0157C21.9479 10.2552 21.7812 9.33336 21.7812 8.25002C21.7812 7.17711 21.9479 6.25784 22.2812 5.49221C22.6146 4.72659 23.1067 4.14586 23.7578 3.75002C24.4088 3.35419 25.1823 3.1563 26.0781 3.1563C26.9844 3.1563 27.7604 3.35419 28.4062 3.75002C29.0521 4.14586 29.5442 4.72659 29.8828 5.49221C30.2213 6.25784 30.3906 7.17711 30.3906 8.25002C30.3906 9.33336 30.2213 10.2552 29.8828 11.0157C29.5442 11.7761 29.0521 12.3568 28.4062 12.7578C27.7604 13.1589 26.9844 13.3594 26.0781 13.3594M26.0781 11.5938C26.8073 11.5938 27.3672 11.3047 27.7578 10.7266C28.1484 10.1485 28.3437 9.32294 28.3437 8.25002C28.3437 7.18752 28.1484 6.36721 27.7578 5.78909C27.3672 5.21096 26.8073 4.9219 26.0781 4.9219C25.3594 4.9219 24.8021 5.21096 24.4062 5.78909C24.0104 6.36721 23.8125 7.18752 23.8125 8.25002C23.8125 9.32294 24.0104 10.1485 24.4062 10.7266C24.8021 11.3047 25.3594 11.5938 26.0781 11.5938M40.1406 3.34377L42 3.34377L40.8906 13.3594L38.375 13.3594L37.0469 5.3594L36.9375 5.3594L35.5937 13.3594L33.0937 13.3594L32.1719 3.34377L34.0156 3.34377L34.5781 11.875L34.75 11.875L35.9531 3.34377L38.0312 3.34377L39.2344 11.875L39.4062 11.875L40.1406 3.34377M47.3281 13.3594C46.5677 13.3594 45.9245 13.3386 45.3984 13.2969C44.8724 13.2552 44.3958 13.1823 43.9687 13.0782L44.1875 11.2969C45.4479 11.4948 46.4948 11.5938 47.3281 11.5938C48.3177 11.5938 49.0364 11.4974 49.4844 11.3047C49.9323 11.112 50.1562 10.8021 50.1562 10.375C50.1562 10.0834 50.0807 9.86461 49.9297 9.71877C49.7786 9.57294 49.5364 9.45836 49.2031 9.37502L46.9375 8.7969C46.3021 8.63023 45.7969 8.44273 45.4219 8.2344C45.0469 8.02607 44.7656 7.76044 44.5781 7.43752C44.3906 7.11461 44.2969 6.70836 44.2969 6.21877C44.2969 5.48961 44.4713 4.90107 44.8203 4.45315C45.1692 4.00523 45.7135 3.67711 46.4531 3.46877C47.1927 3.26044 48.1562 3.1563 49.3437 3.1563C50.25 3.1563 51.1146 3.21877 51.9375 3.34377L51.7344 5.0469C50.8073 4.96357 49.9896 4.9219 49.2812 4.9219C48.25 4.9219 47.5026 5.01565 47.039 5.20315C46.5755 5.39065 46.3437 5.69794 46.3437 6.12502C46.3437 6.39586 46.4245 6.59898 46.5859 6.7344C46.7474 6.86982 47.0156 6.9844 47.3906 7.07815L49.2187 7.53127C49.9166 7.70836 50.4844 7.91409 50.9219 8.14846C51.3594 8.38284 51.6823 8.6745 51.8906 9.02346C52.0989 9.37242 52.2031 9.80732 52.2031 10.3282C52.2031 11.0469 52.0338 11.625 51.6953 12.0625C51.3567 12.5 50.8281 12.8255 50.1094 13.0391C49.3906 13.2526 48.4635 13.3594 47.3281 13.3594M63.3906 7.8594C63.3906 8.31773 63.3698 8.73961 63.3281 9.12502L56.6875 9.12502C56.8646 9.93752 57.2552 10.5573 57.8594 10.9844C58.4635 11.4115 59.2604 11.625 60.25 11.625C61.0104 11.625 61.8125 11.5417 62.6562 11.375L62.9062 13.0938C62 13.2709 61.0416 13.3594 60.0312 13.3594C58.9062 13.3594 57.9531 13.1615 57.1719 12.7657C56.3906 12.3698 55.7969 11.7891 55.3906 11.0235C54.9844 10.2578 54.7812 9.32815 54.7812 8.2344C54.7812 7.1719 54.9531 6.26044 55.2969 5.50002C55.6406 4.73961 56.1458 4.15888 56.8125 3.75784C57.4791 3.3568 58.2812 3.1563 59.2187 3.1563C60.5521 3.1563 61.5807 3.55992 62.3047 4.36721C63.0286 5.1745 63.3906 6.33857 63.3906 7.8594M61.6094 7.62502C61.6094 6.75002 61.401 6.07294 60.9844 5.59377C60.5677 5.11461 59.9844 4.87502 59.2344 4.87502C58.4739 4.87502 57.8672 5.11461 57.414 5.59377C56.9609 6.07294 56.6927 6.75002 56.6094 7.62502L61.6094 7.62502M72.3125 3.1563C72.9896 3.1563 73.539 3.28388 73.9609 3.53909C74.3828 3.7943 74.6953 4.19013 74.8984 4.72659C75.1015 5.26305 75.2031 5.96877 75.2031 6.84377L73.25 6.84377C73.25 6.13544 73.1432 5.62242 72.9297 5.30471C72.7161 4.987 72.375 4.82815 71.9062 4.82815C71.0833 4.82815 70.4635 5.17971 70.0469 5.88284C69.6302 6.58596 69.4219 7.60419 69.4219 8.93752L69.4219 11.5313L71.8281 11.5313L71.8281 13.1719L65.2656 13.1719L65.2656 11.5313L67.4531 11.5313L67.4531 4.96877L65.625 4.96877L65.625 3.34377L69.0469 3.34377L69.375 5.8594L69.5937 5.8594C69.6562 4.95315 69.9114 4.27607 70.3594 3.82815C70.8073 3.38023 71.4583 3.1563 72.3125 3.1563"/><path id="shape23" transform="matrix(0.999999779965254 0 0 0.999999779965254 551.368136886509 258.693383354473)" fill="#000000" fill-rule="evenodd" d="M7.48438 10.9375L2.8125 10.9375L1.95313 14.1406L0 14.1406L3.79688 0.9687L6.5 0.9687L10.2969 14.1406L8.34375 14.1406L7.48438 10.9375M7.01563 9.17185L5.23438 2.5625L5.0625 2.5625L3.28126 9.17185L7.01563 9.17185M21.3594 12.5625L21.3594 14.1406L18.2032 14.2343L18.0625 12.25L17.8907 12.25C17.7344 12.9166 17.4479 13.4297 17.0313 13.789C16.6146 14.1484 16.099 14.3281 15.4844 14.3281C14.3907 14.3281 13.5469 14.0208 12.9532 13.4062C12.3594 12.7916 12.0625 11.9218 12.0625 10.7968L12.0625 4.125L13.9844 4.125L13.9844 10.7968C13.9844 11.3906 14.1485 11.8489 14.4766 12.1718C14.8047 12.4948 15.2657 12.6562 15.8594 12.6562C16.5886 12.6562 17.1328 12.4166 17.4922 11.9375C17.8516 11.4583 18.0313 10.6771 18.0313 9.59372L18.0313 4.125L20 4.125L20 12.3593L21.3594 12.5625M31.4375 14.1093C30.5729 14.2552 29.7136 14.3281 28.8594 14.3281C27.8594 14.3281 27.0495 14.1927 26.4297 13.9218C25.8099 13.651 25.3568 13.2291 25.0703 12.6562C24.7839 12.0833 24.6407 11.3385 24.6407 10.4218L24.6407 5.93747L22.1719 5.93747L22.1719 4.31247L24.6407 4.31247L24.6407 1.3437L26.5938 1.3437L26.5938 4.31247L31.0782 4.31247L31.0782 5.93747L26.5938 5.93747L26.5938 10.3437C26.5938 11.125 26.7865 11.6901 27.1719 12.039C27.5573 12.388 28.1823 12.5625 29.0469 12.5625C29.3386 12.5625 29.6459 12.5468 29.9688 12.5156C30.2917 12.4843 30.7084 12.4375 31.2188 12.375L31.4375 14.1093M38.9219 4.125C39.9636 4.125 40.7683 4.44008 41.336 5.07029C41.9037 5.7005 42.1875 6.58852 42.1875 7.73435L42.1875 14.1406L40.2188 14.1406L40.2188 7.73435C40.2188 7.11977 40.0651 6.6432 39.7578 6.30466C39.4505 5.96612 39.0157 5.79685 38.4532 5.79685C36.9115 5.79685 36.1407 6.73435 36.1407 8.60935L36.1407 14.1406L34.1719 14.1406L34.1719 0.2187L36.1407 0.2187L36.1407 6.09372L36.3282 6.09372C36.3802 5.42706 36.6198 4.93227 37.0469 4.60935C37.474 4.28643 38.099 4.125 38.9219 4.125M53.4844 8.8281C53.4844 9.28643 53.4636 9.70831 53.4219 10.0937L46.7813 10.0937C46.9584 10.9062 47.349 11.526 47.9532 11.9531C48.5573 12.3802 49.3542 12.5937 50.3438 12.5937C51.1042 12.5937 51.9063 12.5104 52.75 12.3437L53 14.0625C52.0938 14.2396 51.1354 14.3281 50.125 14.3281C49 14.3281 48.0469 14.1302 47.2657 13.7343C46.4844 13.3385 45.8907 12.7578 45.4844 11.9922C45.0782 11.2265 44.875 10.2968 44.875 9.2031C44.875 8.1406 45.0469 7.22914 45.3907 6.46872C45.7344 5.70831 46.2396 5.12758 46.9063 4.72654C47.5729 4.3255 48.375 4.125 49.3125 4.125C50.6459 4.125 51.6745 4.52862 52.3985 5.33591C53.1224 6.1432 53.4844 7.30727 53.4844 8.8281M51.7032 8.59372C51.7032 7.71872 51.4948 7.04164 51.0782 6.56247C50.6615 6.08331 50.0782 5.84372 49.3282 5.84372C48.5677 5.84372 47.961 6.08331 47.5078 6.56247C47.0547 7.04164 46.7865 7.71872 46.7032 8.59372L51.7032 8.59372M60.9219 4.125C61.9636 4.125 62.7683 4.44008 63.336 5.07029C63.9037 5.7005 64.1875 6.58852 64.1875 7.73435L64.1875 14.1406L62.2188 14.1406L62.2188 7.73435C62.2188 7.11977 62.0651 6.6432 61.7578 6.30466C61.4505 5.96612 61.0157 5.79685 60.4532 5.79685C58.9115 5.79685 58.1407 6.73435 58.1407 8.60935L58.1407 14.1406L56.1719 14.1406L56.1719 4.31247L57.9532 4.31247L58.1094 6.09372L58.3282 6.09372C58.3802 5.42706 58.6198 4.93227 59.0469 4.60935C59.474 4.28643 60.099 4.125 60.9219 4.125M75.4375 14.1093C74.5729 14.2552 73.7136 14.3281 72.8594 14.3281C71.8594 14.3281 71.0495 14.1927 70.4297 13.9218C69.8099 13.651 69.3568 13.2291 69.0703 12.6562C68.7839 12.0833 68.6407 11.3385 68.6407 10.4218L68.6407 5.93747L66.1719 5.93747L66.1719 4.31247L68.6407 4.31247L68.6407 1.3437L70.5938 1.3437L70.5938 4.31247L75.0782 4.31247L75.0782 5.93747L70.5938 5.93747L70.5938 10.3437C70.5938 11.125 70.7865 11.6901 71.1719 12.039C71.5573 12.388 72.1823 12.5625 73.0469 12.5625C73.3386 12.5625 73.6459 12.5468 73.9688 12.5156C74.2917 12.4843 74.7084 12.4375 75.2188 12.375L75.4375 14.1093M82.7188 2.75C82.4688 2.75 82.2396 2.6875 82.0313 2.5625C81.8229 2.4375 81.6563 2.2708 81.5313 2.0625C81.4063 1.8541 81.3438 1.625 81.3438 1.375C81.3438 1.125 81.4063 0.8958 81.5313 0.6875C81.6563 0.4791 81.8229 0.3125 82.0313 0.1875C82.2396 0.0625 82.4688 0 82.7188 0C82.9584 0 83.1849 0.0625 83.3985 0.1875C83.612 0.3125 83.7813 0.4791 83.9063 0.6875C84.0313 0.8958 84.0938 1.125 84.0938 1.375C84.0938 1.625 84.0313 1.8541 83.9063 2.0625C83.7813 2.2708 83.612 2.4375 83.3985 2.5625C83.1849 2.6875 82.9584 2.75 82.7188 2.75M83.8125 12.5312L86.8282 12.5312L86.8282 14.1406L78.0938 14.1406L78.0938 12.5312L81.8438 12.5312L81.8438 5.93747L78.6563 5.93747L78.6563 4.31247L83.8125 4.31247L83.8125 12.5312M93.9375 14.3281C92.8646 14.3281 91.9505 14.1302 91.1953 13.7343C90.4401 13.3385 89.8646 12.7578 89.4688 11.9922C89.0729 11.2265 88.875 10.2968 88.875 9.2031C88.875 8.13018 89.0573 7.21352 89.4219 6.4531C89.7865 5.69268 90.3203 5.11456 91.0235 4.71872C91.7266 4.32289 92.5782 4.125 93.5782 4.125C94.1094 4.125 94.6511 4.18487 95.2032 4.30466C95.7552 4.42445 96.2735 4.74477 96.7578 5.2656C97.2422 5.78643 97.4844 6.57289 97.4844 7.62497L95.4532 7.62497C95.4532 7.07289 95.2891 6.64581 94.961 6.34372C94.6328 6.04164 94.1823 5.8906 93.6094 5.8906C92.7552 5.8906 92.0912 6.17185 91.6172 6.73435C91.1433 7.29685 90.9063 8.08852 90.9063 9.10935C90.9063 10.2343 91.1875 11.0911 91.75 11.6797C92.3125 12.2682 93.1146 12.5625 94.1563 12.5625C95.0834 12.5625 96.0469 12.4843 97.0469 12.3281L97.2813 14.0468C96.3854 14.2343 95.2709 14.3281 93.9375 14.3281M109.359 12.5625L109.359 14.1406L106.203 14.2343L106.109 12.0625L105.906 12.0625C105.843 12.8021 105.531 13.3646 104.968 13.75C104.406 14.1354 103.661 14.3281 102.734 14.3281C101.703 14.3281 100.906 14.0807 100.343 13.5859C99.7814 13.0911 99.5 12.3906 99.5 11.4843C99.5 10.4427 99.8774 9.64581 100.632 9.09372C101.388 8.54164 102.463 8.2656 103.859 8.2656C104.619 8.2656 105.27 8.33852 105.812 8.48435L105.812 7.96872C105.812 7.29164 105.583 6.78904 105.125 6.46091C104.666 6.13279 103.979 5.94789 103.062 5.90622L100.703 5.79685L100.89 4.125L102.875 4.18747C104.5 4.24997 105.708 4.61977 106.5 5.29685C107.291 5.97393 107.687 6.96352 107.687 8.2656L107.687 12.3593L109.359 12.5625M103.047 12.75C103.63 12.75 104.13 12.6484 104.547 12.4453C104.963 12.2422 105.278 11.9765 105.492 11.6484C105.705 11.3203 105.812 10.9739 105.812 10.6093L105.812 10.0156C105.5 9.94268 105.19 9.8932 104.882 9.86716C104.575 9.84112 104.192 9.8281 103.734 9.8281C102.953 9.8281 102.362 9.9531 101.961 10.2031C101.56 10.4531 101.359 10.8177 101.359 11.2968C101.359 11.776 101.5 12.138 101.781 12.3828C102.062 12.6276 102.484 12.75 103.047 12.75M119.437 14.1093C118.573 14.2552 117.713 14.3281 116.859 14.3281C115.859 14.3281 115.049 14.1927 114.429 13.9218C113.81 13.651 113.356 13.2291 113.07 12.6562C112.783 12.0833 112.64 11.3385 112.64 10.4218L112.64 5.93747L110.172 5.93747L110.172 4.31247L112.64 4.31247L112.64 1.3437L114.593 1.3437L114.593 4.31247L119.078 4.31247L119.078 5.93747L114.593 5.93747L114.593 10.3437C114.593 11.125 114.786 11.6901 115.172 12.039C115.557 12.388 116.182 12.5625 117.047 12.5625C117.338 12.5625 117.645 12.5468 117.968 12.5156C118.291 12.4843 118.708 12.4375 119.218 12.375L119.437 14.1093M126.718 2.75C126.468 2.75 126.239 2.6875 126.031 2.5625C125.823 2.4375 125.656 2.2708 125.531 2.0625C125.406 1.8541 125.343 1.625 125.343 1.375C125.343 1.125 125.406 0.8958 125.531 0.6875C125.656 0.4791 125.823 0.3125 126.031 0.1875C126.239 0.0625 126.468 0 126.718 0C126.958 0 127.185 0.0625 127.398 0.1875C127.612 0.3125 127.781 0.4791 127.906 0.6875C128.031 0.8958 128.093 1.125 128.093 1.375C128.093 1.625 128.031 1.8541 127.906 2.0625C127.781 2.2708 127.612 2.4375 127.398 2.5625C127.185 2.6875 126.958 2.75 126.718 2.75M127.812 12.5312L130.828 12.5312L130.828 14.1406L122.093 14.1406L122.093 12.5312L125.843 12.5312L125.843 5.93747L122.656 5.93747L122.656 4.31247L127.812 4.31247L127.812 12.5312M137.172 14.3281C136.276 14.3281 135.502 14.1276 134.851 13.7265C134.2 13.3255 133.708 12.7448 133.375 11.9843C133.041 11.2239 132.875 10.3021 132.875 9.21872C132.875 8.14581 133.041 7.22654 133.375 6.46091C133.708 5.69529 134.2 5.11456 134.851 4.71872C135.502 4.32289 136.276 4.125 137.172 4.125C138.078 4.125 138.854 4.32289 139.5 4.71872C140.145 5.11456 140.638 5.69529 140.976 6.46091C141.315 7.22654 141.484 8.14581 141.484 9.21872C141.484 10.3021 141.315 11.2239 140.976 11.9843C140.638 12.7448 140.145 13.3255 139.5 13.7265C138.854 14.1276 138.078 14.3281 137.172 14.3281M137.172 12.5625C137.901 12.5625 138.461 12.2734 138.851 11.6953C139.242 11.1172 139.437 10.2916 139.437 9.21872C139.437 8.15622 139.242 7.33591 138.851 6.75779C138.461 6.17966 137.901 5.8906 137.172 5.8906C136.453 5.8906 135.895 6.17966 135.5 6.75779C135.104 7.33591 134.906 8.15622 134.906 9.21872C134.906 10.2916 135.104 11.1172 135.5 11.6953C135.895 12.2734 136.453 12.5625 137.172 12.5625M148.922 4.125C149.963 4.125 150.768 4.44008 151.336 5.07029C151.903 5.7005 152.187 6.58852 152.187 7.73435L152.187 14.1406L150.218 14.1406L150.218 7.73435C150.218 7.11977 150.065 6.6432 149.757 6.30466C149.45 5.96612 149.015 5.79685 148.453 5.79685C146.911 5.79685 146.14 6.73435 146.14 8.60935L146.14 14.1406L144.172 14.1406L144.172 4.31247L145.953 4.31247L146.109 6.09372L146.328 6.09372C146.38 5.42706 146.619 4.93227 147.047 4.60935C147.474 4.28643 148.099 4.125 148.922 4.125"/><rect id="shape029" transform="matrix(0.999999816099086 0 0 0.999999816099086 504.719979647449 252.873984140473)" fill="#0046aa" fill-rule="evenodd" stroke="#000000" stroke-width="4.32" stroke-linecap="square" stroke-linejoin="miter" stroke-miterlimit="2.16000008583069" width="27.36" height="28.08"/><path id="shape24" transform="matrix(0.999999779965254 0 0 0.999999779965254 551.165011931204 163.573541689014)" fill="#000000" fill-rule="evenodd" d="M9 0.9687L10.7656 0.9687L9.46875 14.3281L6.45313 14.3281L5.4375 6.7031L5.32813 6.7031L4.29688 14.3281L1.29688 14.3281L0 0.9687L1.76563 0.9687L2.875 12.8437L3.0625 12.8437L4.42188 4.85935L6.35938 4.85935L7.70313 12.8437L7.89063 12.8437L9 0.9687M20.6875 8.8281C20.6875 9.28643 20.6667 9.70831 20.625 10.0937L13.9844 10.0937C14.1615 10.9062 14.5521 11.526 15.1563 11.9531C15.7604 12.3802 16.5573 12.5937 17.5469 12.5937C18.3073 12.5937 19.1094 12.5104 19.9531 12.3437L20.2031 14.0625C19.2969 14.2396 18.3385 14.3281 17.3281 14.3281C16.2031 14.3281 15.25 14.1302 14.4688 13.7343C13.6875 13.3385 13.0938 12.7578 12.6875 11.9922C12.2813 11.2265 12.0781 10.2968 12.0781 9.2031C12.0781 8.1406 12.25 7.22914 12.5938 6.46872C12.9375 5.70831 13.4427 5.12758 14.1094 4.72654C14.776 4.3255 15.5781 4.125 16.5156 4.125C17.849 4.125 18.8776 4.52862 19.6016 5.33591C20.3255 6.1432 20.6875 7.30727 20.6875 8.8281M18.9063 8.59372C18.9063 7.71872 18.6979 7.04164 18.2813 6.56247C17.8646 6.08331 17.2813 5.84372 16.5313 5.84372C15.7708 5.84372 15.1641 6.08331 14.7109 6.56247C14.2578 7.04164 13.9896 7.71872 13.9063 8.59372L18.9063 8.59372M27.9375 4.125C28.8021 4.125 29.5443 4.32029 30.1641 4.71091C30.7839 5.10154 31.2552 5.67185 31.5781 6.42185C31.901 7.17185 32.0625 8.07289 32.0625 9.12497C32.0625 10.2187 31.849 11.1536 31.4219 11.9297C30.9948 12.7057 30.3776 13.2995 29.5703 13.7109C28.763 14.1224 27.7917 14.3281 26.6563 14.3281C25.7083 14.3281 24.6146 14.2656 23.375 14.1406L23.375 0.2187L25.3438 0.2187L25.3438 6.09372L25.5313 6.09372C25.6146 4.78122 26.4167 4.125 27.9375 4.125M27.0469 12.6562C28.026 12.6562 28.7813 12.3489 29.3125 11.7343C29.8438 11.1198 30.1094 10.25 30.1094 9.12497C30.1094 8.06247 29.9115 7.24216 29.5156 6.66404C29.1198 6.08591 28.5625 5.79685 27.8438 5.79685C26.1771 5.79685 25.3438 6.73435 25.3438 8.60935L25.3438 12.5937C25.7083 12.6354 26.276 12.6562 27.0469 12.6562M37.625 14.3281C36.8646 14.3281 36.2214 14.3073 35.6953 14.2656C35.1693 14.2239 34.6927 14.151 34.2656 14.0468L34.4844 12.2656C35.7448 12.4635 36.7917 12.5625 37.625 12.5625C38.6146 12.5625 39.3333 12.4661 39.7813 12.2734C40.2292 12.0807 40.4531 11.7708 40.4531 11.3437C40.4531 11.0521 40.3776 10.8333 40.2266 10.6875C40.0755 10.5416 39.8333 10.4271 39.5 10.3437L37.2344 9.7656C36.599 9.59893 36.0938 9.41143 35.7188 9.2031C35.3438 8.99477 35.0625 8.72914 34.875 8.40622C34.6875 8.08331 34.5938 7.67706 34.5938 7.18747C34.5938 6.45831 34.7682 5.86977 35.1172 5.42185C35.4661 4.97393 36.0104 4.64581 36.75 4.43747C37.4896 4.22914 38.4531 4.125 39.6406 4.125C40.5469 4.125 41.4115 4.18747 42.2344 4.31247L42.0313 6.0156C41.1042 5.93227 40.2865 5.8906 39.5781 5.8906C38.5469 5.8906 37.7995 5.98435 37.3359 6.17185C36.8724 6.35935 36.6406 6.66664 36.6406 7.09372C36.6406 7.36456 36.7214 7.56768 36.8828 7.7031C37.0443 7.83852 37.3125 7.9531 37.6875 8.04685L39.5156 8.49997C40.2135 8.67706 40.7813 8.88279 41.2188 9.11716C41.6563 9.35154 41.9792 9.6432 42.1875 9.99216C42.3958 10.3411 42.5 10.776 42.5 11.2968C42.5 12.0156 42.3307 12.5937 41.9922 13.0312C41.6536 13.4687 41.125 13.7942 40.4063 14.0078C39.6875 14.2213 38.7604 14.3281 37.625 14.3281M49.9219 2.75C49.6719 2.75 49.4427 2.6875 49.2344 2.5625C49.026 2.4375 48.8594 2.2708 48.7344 2.0625C48.6094 1.8541 48.5469 1.625 48.5469 1.375C48.5469 1.125 48.6094 0.8958 48.7344 0.6875C48.8594 0.4791 49.026 0.3125 49.2344 0.1875C49.4427 0.0625 49.6719 0 49.9219 0C50.1615 0 50.388 0.0625 50.6016 0.1875C50.8151 0.3125 50.9844 0.4791 51.1094 0.6875C51.2344 0.8958 51.2969 1.125 51.2969 1.375C51.2969 1.625 51.2344 1.8541 51.1094 2.0625C50.9844 2.2708 50.8151 2.4375 50.6016 2.5625C50.388 2.6875 50.1615 2.75 49.9219 2.75M51.0156 12.5312L54.0313 12.5312L54.0313 14.1406L45.2969 14.1406L45.2969 12.5312L49.0469 12.5312L49.0469 5.93747L45.8594 5.93747L45.8594 4.31247L51.0156 4.31247L51.0156 12.5312M64.6406 14.1093C63.776 14.2552 62.9167 14.3281 62.0625 14.3281C61.0625 14.3281 60.2526 14.1927 59.6328 13.9218C59.013 13.651 58.5599 13.2291 58.2734 12.6562C57.987 12.0833 57.8438 11.3385 57.8438 10.4218L57.8438 5.93747L55.375 5.93747L55.375 4.31247L57.8438 4.31247L57.8438 1.3437L59.7969 1.3437L59.7969 4.31247L64.2813 4.31247L64.2813 5.93747L59.7969 5.93747L59.7969 10.3437C59.7969 11.125 59.9896 11.6901 60.375 12.039C60.7604 12.388 61.3854 12.5625 62.25 12.5625C62.5417 12.5625 62.849 12.5468 63.1719 12.5156C63.4948 12.4843 63.9115 12.4375 64.4219 12.375L64.6406 14.1093M75.6875 8.8281C75.6875 9.28643 75.6667 9.70831 75.625 10.0937L68.9844 10.0937C69.1615 10.9062 69.5521 11.526 70.1563 11.9531C70.7604 12.3802 71.5573 12.5937 72.5469 12.5937C73.3073 12.5937 74.1094 12.5104 74.9531 12.3437L75.2031 14.0625C74.2969 14.2396 73.3385 14.3281 72.3281 14.3281C71.2031 14.3281 70.25 14.1302 69.4688 13.7343C68.6875 13.3385 68.0938 12.7578 67.6875 11.9922C67.2813 11.2265 67.0781 10.2968 67.0781 9.2031C67.0781 8.1406 67.25 7.22914 67.5938 6.46872C67.9375 5.70831 68.4427 5.12758 69.1094 4.72654C69.776 4.3255 70.5781 4.125 71.5156 4.125C72.849 4.125 73.8776 4.52862 74.6016 5.33591C75.3255 6.1432 75.6875 7.30727 75.6875 8.8281M73.9063 8.59372C73.9063 7.71872 73.6979 7.04164 73.2813 6.56247C72.8646 6.08331 72.2813 5.84372 71.5313 5.84372C70.7708 5.84372 70.1641 6.08331 69.7109 6.56247C69.2578 7.04164 68.9896 7.71872 68.9063 8.59372L73.9063 8.59372"/><rect id="shape030" transform="matrix(0.999999816099086 0 0 0.999999816099086 504.719979647449 157.754142475015)" fill="#891688" fill-rule="evenodd" stroke="#000000" stroke-width="4.32" stroke-linecap="square" stroke-linejoin="miter" stroke-miterlimit="2.16000008583069" width="27.36" height="28.08"/><path id="shape011" transform="matrix(0.999999803828638 0 0 0.999999803828638 202.938734531825 161.343245464147)" fill="#358757" fill-rule="evenodd" d="M8.23435 25.6563C2.74479 25.6563 0 22.7917 0 17.0626L0 0L3.60938 0L3.60938 17.0626C3.60938 18.7917 3.98958 20.0834 4.75 20.9376C5.51042 21.7917 6.69792 22.2188 8.31255 22.2188C9.86455 22.2188 11.0338 21.7865 11.8203 20.9219C12.6067 20.0573 13 18.7709 13 17.0626L13 0L16.6251 0L16.6251 17.0626C16.6251 19.9167 15.9167 22.0626 14.5001 23.5001C13.0833 24.9376 10.9947 25.6563 8.23435 25.6563M37.3593 0L40.7813 0L38.2657 26.0157L32.4063 26.0157L30.4218 11.1719L30.2032 11.1719L28.2188 26.0157L22.3593 26.0157L19.8282 0L23.2657 0L25.4376 23.1251L25.7968 23.1251L28.4376 7.5938L32.2188 7.5938L34.8282 23.1251L35.1876 23.1251L37.3593 0M52.8438 15.2344C51.3438 15.9532 49.7188 16.3855 47.9688 16.5313L47.9688 25.6563L44.3593 25.6563L44.3593 0L47.9688 0L47.9688 13.1563C50.1146 12.9792 51.9166 12.2605 53.3751 11C54.8334 9.7396 55.9166 8.1459 56.6251 6.2188C57.3334 4.2917 57.6876 2.2188 57.6876 0L61.4218 0C61.4218 2.6042 60.9505 5.0599 60.0078 7.3672C59.0652 9.6745 57.7291 11.599 56.0001 13.1407L62.6406 25.6563L58.2657 25.6563L52.8438 15.2344"/><path id="shape0201" transform="matrix(0.999999818379398 0 0 0.999999818379398 287.588111609298 320.8360674686)" fill="none" stroke="#000000" stroke-width="7.2" stroke-linecap="square" stroke-linejoin="miter" stroke-miterlimit="2" d="M0 0L34.5219 0"/><path id="shape0291" transform="matrix(0.999999820643455 0 0 0.999999820643455 360.713920731907 272.216187309455)" fill="none" stroke="#000000" stroke-width="7.2" stroke-linecap="square" stroke-linejoin="miter" stroke-miterlimit="2" marker-end="url(#lineMarker6)" krita:marker-fill-method="auto" d="M0 0L0 28.9265"/><path id="shape141" transform="matrix(-7.77156121179879e-16 -0.99999985252216 0.99999985252216 -7.77156121179879e-16 329.16226984777 321.340159872001)" fill="#000000" fill-rule="evenodd" stroke="#000000" stroke-width="7.2" stroke-linecap="square" stroke-linejoin="miter" stroke-miterlimit="2.16000008583069" d="M0 5.40598e-16L1.17733 0L0.58446 0.859136Z"/>
</svg>
