<?xml version="1.0" standalone="no"?>
<!DOCTYPE svg PUBLIC "-//W3C//DTD SVG 20010904//EN" "http://www.w3.org/TR/2001/REC-SVG-20010904/DTD/svg10.dtd">
<!-- Created using Krita: http://krita.org -->
<svg xmlns="http://www.w3.org/2000/svg" 
    xmlns:xlink="http://www.w3.org/1999/xlink"
    xmlns:krita="http://krita.org/namespaces/svg/krita"
    xmlns:sodipodi="http://sodipodi.sourceforge.net/DTD/sodipodi-0.dtd"
    width="1659.6pt"
    height="473.04pt"
    viewBox="0 0 1659.6 473.04">
<defs/>
<rect id="shape0" transform="matrix(0.999999925615904 0 0 0.999999925615904 427.682818251542 12.2479211935102)" fill="none" stroke="#000000" stroke-width="2.88" stroke-linecap="square" stroke-linejoin="miter" stroke-miterlimit="2.16000008583069" width="357.840033625952" height="35.9785614741611"/><rect id="shape01" transform="matrix(0.999999937585395 0 0 0.999999937585395 427.677159903789 424.80340990527)" fill="none" stroke="#000000" stroke-width="2.88" stroke-linecap="square" stroke-linejoin="miter" stroke-miterlimit="2.16000008583069" width="357.840033625952" height="35.9965994579921"/><g id="group0" transform="translate(426.964644127784, 317.525094103872)" fill="none">
  <rect id="shape02" transform="matrix(0.999999977181431 0 0 0.999999977181431 0 0)" fill="none" stroke="#000000" stroke-width="2.88" stroke-linecap="square" stroke-linejoin="miter" stroke-miterlimit="2.16000008583069" width="36" height="36"/>
  <path id="shape03" transform="matrix(0.999999958078448 0 0 0.999999958078448 17.9999999999999 1.44)" fill="none" stroke="#000000" stroke-width="2.88" stroke-linecap="square" stroke-linejoin="miter" stroke-miterlimit="2" d="M0 0L0 33.8553"/>
  <path id="shape0" transform="matrix(-1 0 0 1 34.56 18)" fill="none" stroke="#000000" stroke-width="2.88" stroke-linecap="square" stroke-linejoin="miter" stroke-miterlimit="2" d="M0 0L33.1583 0"/>
 </g><rect id="shape1" transform="translate(412.557159903788, 179.282355328875)" fill="none" stroke="#000000" stroke-width="2.88" stroke-linecap="square" stroke-linejoin="miter" stroke-miterlimit="2.16" width="64.8031605430267" height="35.9976435989342"/><path id="shape2" transform="translate(444.957161304341, 49.6834110987486)" fill="none" stroke="#000000" stroke-width="2.88" stroke-linecap="square" stroke-linejoin="miter" stroke-miterlimit="2" d="M0 0L0 119.949"/><path id="shape3" transform="translate(419.15715989101, 207.56340990527)" fill="#000000" fill-rule="evenodd" d="M3.96875 -5.57813L13.8906 -9.90625L13.8906 -10.1719L3.96875 -14.5L3.96875 -17.6094L17.5313 -11.4688L17.5313 -8.60938L3.96875 -2.46875L3.96875 -5.57813M17.0313 -5.57813L26.9375 -9.90625L26.9375 -10.1719L17.0313 -14.5L17.0313 -17.6094L30.5938 -11.4688L30.5938 -8.60938L17.0313 -2.46875L17.0313 -5.57813M44.4219 -2.64063L48.8906 -2.64063L48.8906 0L36.4063 0L36.4063 -2.64063L41.4219 -2.64063L41.4219 -17.3281L36.6875 -16.25L36.6875 -18.9688L41.4219 -20.1094L44.4219 -20.1094L44.4219 -2.64063"/><path id="shape4" transform="translate(439.908393075324, 166.32340990527)" fill="#000000" fill-rule="evenodd" stroke="#000000" stroke-width="2.88" stroke-linecap="square" stroke-linejoin="miter" stroke-miterlimit="2.16" d="M0 0L5.02628 9.66376L10.1028 0C5.78654 0 4.31625 0 0 0Z"/><rect id="shape04" transform="matrix(0.999999977181431 0 0 0.999999977181431 520.557159903787 179.282355032543)" fill="none" stroke="#000000" stroke-width="2.88" stroke-linecap="square" stroke-linejoin="miter" stroke-miterlimit="2.16000008583069" width="64.8031605430267" height="35.9976459255434"/><path id="shape1" transform="matrix(0.999999977181431 0 0 0.999999977181431 552.957160565017 49.6834137603066)" fill="none" stroke="#000000" stroke-width="2.88" stroke-linecap="square" stroke-linejoin="miter" stroke-miterlimit="2" d="M0 0L0 119.949"/><path id="shape5" transform="matrix(0.999999977181431 0 0 0.999999977181431 527.157159740407 207.563408964232)" fill="#000000" fill-rule="evenodd" d="M3.96875 -5.57813L13.8906 -9.90625L13.8906 -10.1719L3.96875 -14.5L3.96875 -17.6094L17.5313 -11.4688L17.5313 -8.60938L3.96875 -2.46875L3.96875 -5.57813M17.0313 -5.57813L26.9375 -9.90625L26.9375 -10.1719L17.0313 -14.5L17.0313 -17.6094L30.5938 -11.4688L30.5938 -8.60938L17.0313 -2.46875L17.0313 -5.57813M44.4219 -2.64063L48.8906 -2.64063L48.8906 0L36.4063 0L36.4063 -2.64063L41.4219 -2.64063L41.4219 -17.3281L36.6875 -16.25L36.6875 -18.9688L41.4219 -20.1094L44.4219 -20.1094L44.4219 -2.64063"/><path id="shape3" transform="matrix(0.999999977181431 0 0 0.999999977181431 547.908392451207 166.32340990527)" fill="#000000" fill-rule="evenodd" stroke="#000000" stroke-width="2.88" stroke-linecap="square" stroke-linejoin="miter" stroke-miterlimit="2.16000008583069" d="M0 0L5.02628 9.66376L10.1028 0C5.78654 0 4.31625 0 0 0Z"/><rect id="shape05" transform="matrix(0.999999977181431 0 0 0.999999977181431 628.568409902968 179.282355034753)" fill="none" stroke="#000000" stroke-width="2.88" stroke-linecap="square" stroke-linejoin="miter" stroke-miterlimit="2.16000008583069" width="64.8031605430267" height="35.9976508373113"/><path id="shape6" transform="matrix(0.999999977181431 0 0 0.999999977181431 635.157159740406 207.563408964232)" fill="#000000" fill-rule="evenodd" d="M3.96875 -5.57813L13.8906 -9.90625L13.8906 -10.1719L3.96875 -14.5L3.96875 -17.6094L17.5313 -11.4688L17.5313 -8.60938L3.96875 -2.46875L3.96875 -5.57813M17.0313 -5.57813L26.9375 -9.90625L26.9375 -10.1719L17.0313 -14.5L17.0313 -17.6094L30.5938 -11.4688L30.5938 -8.60938L17.0313 -2.46875L17.0313 -5.57813M44.4219 -2.64063L48.8906 -2.64063L48.8906 0L36.4063 0L36.4063 -2.64063L41.4219 -2.64063L41.4219 -17.3281L36.6875 -16.25L36.6875 -18.9688L41.4219 -20.1094L44.4219 -20.1094L44.4219 -2.64063"/><path id="shape11" transform="matrix(0.999999977181431 0 0 0.999999977181431 660.957160565017 49.6834137603065)" fill="none" stroke="#000000" stroke-width="2.88" stroke-linecap="square" stroke-linejoin="miter" stroke-miterlimit="2" d="M0 0L0 119.949"/><path id="shape31" transform="matrix(0.999999977181431 0 0 0.999999977181431 655.908392451207 166.323409905269)" fill="#000000" fill-rule="evenodd" stroke="#000000" stroke-width="2.88" stroke-linecap="square" stroke-linejoin="miter" stroke-miterlimit="2.16000008583069" d="M0 0L5.02628 9.66376L10.1028 0C5.78654 0 4.31625 0 0 0Z"/><path id="shape7" transform="matrix(0.999999954362863 0 0 0.999999954362863 743.157157125401 207.563408023194)" fill="#000000" fill-rule="evenodd" d="M3.96875 -5.57813L13.8906 -9.90625L13.8906 -10.1719L3.96875 -14.5L3.96875 -17.6094L17.5313 -11.4688L17.5313 -8.60938L3.96875 -2.46875L3.96875 -5.57813M17.0313 -5.57813L26.9375 -9.90625L26.9375 -10.1719L17.0313 -14.5L17.0313 -17.6094L30.5938 -11.4688L30.5938 -8.60938L17.0313 -2.46875L17.0313 -5.57813M44.4219 -2.64063L48.8906 -2.64063L48.8906 0L36.4063 0L36.4063 -2.64063L41.4219 -2.64063L41.4219 -17.3281L36.6875 -16.25L36.6875 -18.9688L41.4219 -20.1094L44.4219 -20.1094L44.4219 -2.64063"/><rect id="shape06" transform="matrix(0.999999954362863 0 0 0.999999954362863 736.557157439384 179.28235473688)" fill="none" stroke="#000000" stroke-width="2.88" stroke-linecap="square" stroke-linejoin="miter" stroke-miterlimit="2.16000008583069" width="64.8031605430267" height="35.9976474470712"/><path id="shape12" transform="matrix(0.999999954362863 0 0 0.999999954362863 768.957157361292 49.6834164218644)" fill="none" stroke="#000000" stroke-width="2.88" stroke-linecap="square" stroke-linejoin="miter" stroke-miterlimit="2" d="M0 0L0 119.949"/><path id="shape32" transform="matrix(0.999999954362863 0 0 0.999999954362863 763.908389362688 166.323409905269)" fill="#000000" fill-rule="evenodd" stroke="#000000" stroke-width="2.88" stroke-linecap="square" stroke-linejoin="miter" stroke-miterlimit="2.16000008583069" d="M0 0L5.02628 9.66376L10.1028 0C5.78654 0 4.31625 0 0 0Z"/><path id="shape07" transform="matrix(0.999999997193592 0 0 0.999999997193592 444.965928118635 217.443411426091)" fill="none" stroke="#000000" stroke-width="2.88" stroke-linecap="square" stroke-linejoin="miter" stroke-miterlimit="2" d="M0 0L0 119.949"/><path id="shape13" transform="matrix(0.169291411861109 -0.985566036477143 0.985566036477143 0.169291411861109 413.259024639816 325.930367097879)" fill="#000000" fill-rule="evenodd" stroke="#000000" stroke-width="2.88" stroke-linecap="square" stroke-linejoin="miter" stroke-miterlimit="2.16000008583069" d="M0 0L5.02628 9.66376L10.1028 0C5.78654 0 4.31625 0 0 0Z"/><path id="shape14" transform="matrix(0.999999974375023 0 0 0.999999974375023 552.965927076219 217.44341408765)" fill="none" stroke="#000000" stroke-width="2.88" stroke-linecap="square" stroke-linejoin="miter" stroke-miterlimit="2" d="M0 0L0 119.949"/><path id="shape11" transform="matrix(0.999999974375023 0 0 0.999999974375023 660.965926773127 217.44341408765)" fill="none" stroke="#000000" stroke-width="2.88" stroke-linecap="square" stroke-linejoin="miter" stroke-miterlimit="2" d="M0 0L0 119.949"/><path id="shape12" transform="matrix(0.999999951556455 0 0 0.999999951556455 768.965923266311 217.443416749208)" fill="none" stroke="#000000" stroke-width="2.88" stroke-linecap="square" stroke-linejoin="miter" stroke-miterlimit="2" d="M0 0L0 119.949"/><path id="shape08" transform="matrix(0.198376277823444 0.980125899576294 -0.980125899576294 0.198376277823444 768.93112258599 68.1687729052658)" fill="none" stroke="#000000" stroke-width="2.88" stroke-linecap="square" stroke-linejoin="miter" stroke-miterlimit="2" d="M0 0L0 420.257"/><path id="shape09" transform="matrix(0.198376273673793 0.980125879073942 -0.980125879073942 0.198376273673793 660.437159903788 68.4034099052692)" fill="none" stroke="#000000" stroke-width="2.88" stroke-linecap="square" stroke-linejoin="miter" stroke-miterlimit="2" d="M0 0L0 420.257"/><path id="shape010" transform="matrix(0.198376275758423 0.98012588937356 -0.98012588937356 0.198376275758423 552.237159903785 68.4034099052692)" fill="none" stroke="#000000" stroke-width="2.88" stroke-linecap="square" stroke-linejoin="miter" stroke-miterlimit="2" d="M0 0L0 420.257"/><path id="shape01" transform="matrix(0.198376271608772 0.980125868871208 -0.980125868871208 0.198376271608772 443.517159903788 68.4034099052695)" fill="none" stroke="#000000" stroke-width="2.88" stroke-linecap="square" stroke-linejoin="miter" stroke-miterlimit="2" d="M0 0L0 420.257"/><rect id="shape011" transform="matrix(0.999999977181431 0 0 0.999999977181431 12.2371694141398 179.28340990527)" fill="none" stroke="#000000" stroke-width="2.88" stroke-linecap="square" stroke-linejoin="miter" stroke-miterlimit="2.16000008583069" width="357.840033625952" height="35.9965971271348"/><g id="group1" transform="translate(25.9096599159164, 152.643141513921)" fill="none">
  <path id="shape012" transform="matrix(0.999999969869055 0 0 0.999999969869055 5.05178568707709 0)" fill="none" stroke="#000000" stroke-width="2.88" stroke-linecap="square" stroke-linejoin="miter" stroke-miterlimit="2" d="M0 0L0 17.2544"/>
  <path id="shape013" transform="matrix(0.999999997193592 0 0 0.999999997193592 -2.8421709430404e-14 13.6802683913481)" fill="#000000" fill-rule="evenodd" stroke="#000000" stroke-width="2.88" stroke-linecap="square" stroke-linejoin="miter" stroke-miterlimit="2.16000008583069" d="M0 0L5.02628 9.66376L10.1028 0C5.78654 0 4.31625 0 0 0Z"/>
 </g><g id="group0" transform="matrix(0.999999997193592 0 0 0.999999997193592 134.615909866107 152.632159904915)" fill="none">
  <path id="shape014" transform="matrix(0.999999969869055 0 0 0.999999969869055 5.05178568707711 2.8421709430404e-14)" fill="none" stroke="#000000" stroke-width="2.88" stroke-linecap="square" stroke-linejoin="miter" stroke-miterlimit="2" d="M0 0L0 17.2544"/>
  <path id="shape011" transform="matrix(0.999999997193592 0 0 0.999999997193592 -5.6843418860808e-14 13.6802683913481)" fill="#000000" fill-rule="evenodd" stroke="#000000" stroke-width="2.88" stroke-linecap="square" stroke-linejoin="miter" stroke-miterlimit="2.16000008583069" d="M0 0L5.02628 9.66376L10.1028 0C5.78654 0 4.31625 0 0 0Z"/>
 </g><g id="group01" transform="matrix(0.999999997193592 0 0 0.999999997193592 243.337018053296 152.649084801191)" fill="none">
  <path id="shape015" transform="matrix(0.999999969869055 0 0 0.999999969869055 5.05178568707711 2.8421709430404e-14)" fill="none" stroke="#000000" stroke-width="2.88" stroke-linecap="square" stroke-linejoin="miter" stroke-miterlimit="2" d="M0 0L0 17.2544"/>
  <path id="shape012" transform="matrix(0.999999997193592 0 0 0.999999997193592 -5.6843418860808e-14 13.6802683913481)" fill="#000000" fill-rule="evenodd" stroke="#000000" stroke-width="2.88" stroke-linecap="square" stroke-linejoin="miter" stroke-miterlimit="2.16000008583069" d="M0 0L5.02628 9.66376L10.1028 0C5.78654 0 4.31625 0 0 0Z"/>
 </g><g id="group02" transform="matrix(0.999999997193592 0 0 0.999999997193592 351.342853881402 152.654373801347)" fill="none">
  <path id="shape016" transform="matrix(0.999999969869055 0 0 0.999999969869055 5.05178568707711 2.8421709430404e-14)" fill="none" stroke="#000000" stroke-width="2.88" stroke-linecap="square" stroke-linejoin="miter" stroke-miterlimit="2" d="M0 0L0 17.2544"/>
  <path id="shape013" transform="matrix(0.999999997193592 0 0 0.999999997193592 -5.6843418860808e-14 13.6802683913481)" fill="#000000" fill-rule="evenodd" stroke="#000000" stroke-width="2.88" stroke-linecap="square" stroke-linejoin="miter" stroke-miterlimit="2.16000008583069" d="M0 0L5.02628 9.66376L10.1028 0C5.78654 0 4.31625 0 0 0Z"/>
 </g><path id="shape8" transform="matrix(1.00000001465782 0 0 1.00000001465782 148.797159903788 207.563410330346)" fill="#000000" fill-rule="evenodd" d="M34.0313 -6.14063L43.9375 -9.90625L43.9375 -10.1719L34.0313 -13.9375L34.0313 -17.0469L47.5938 -11.4688L47.5938 -8.60938L34.0313 -3.03125L34.0313 -6.14063M3.98438 -6.14063L13.8906 -9.90625L13.8906 -10.1719L3.98438 -13.9375L3.98438 -17.0469L17.5469 -11.4688L17.5469 -8.60938L3.98438 -3.03125L3.98438 -6.14063M19.0781 -6.14063L28.9844 -9.90625L28.9844 -10.1719L19.0781 -13.9375L19.0781 -17.0469L32.6406 -11.4688L32.6406 -8.60938L19.0781 -3.03125L19.0781 -6.14063M59.2656 -20.3906C60.7656 -20.3906 62.0443 -20.0885 63.1016 -19.4844C64.1589 -18.8802 64.9635 -18 65.5156 -16.8438C66.0677 -15.6875 66.3438 -14.2917 66.3438 -12.6563L66.3438 -11.9844C66.3438 -8.14063 65.3672 -5.21875 63.4141 -3.21875C61.4609 -1.21875 58.4948 -0.119792 54.5156 0.078125L54.2344 -2.60938C57.2448 -2.73438 59.4896 -3.46354 60.9688 -4.79688C62.4479 -6.13021 63.1927 -8.08333 63.2031 -10.6563L62.9531 -10.6563C62.6719 -9.61458 62.1094 -8.80469 61.2656 -8.22656C60.4219 -7.64844 59.3906 -7.35938 58.1719 -7.35938C56.4115 -7.35938 55.0547 -7.90365 54.1016 -8.99219C53.1484 -10.0807 52.6719 -11.6146 52.6719 -13.5938C52.6719 -15.0208 52.9297 -16.2448 53.4453 -17.2656C53.9609 -18.2865 54.7109 -19.0625 55.6953 -19.5938C56.6797 -20.125 57.8698 -20.3906 59.2656 -20.3906M59.4375 -9.96875C60.6354 -9.96875 61.5625 -10.3099 62.2188 -10.9922C62.875 -11.6745 63.2031 -12.6354 63.2031 -13.875C63.2031 -16.4792 61.8802 -17.7813 59.2344 -17.7813C58.1094 -17.7813 57.2396 -17.4167 56.625 -16.6875C56.0104 -15.9583 55.7031 -14.9271 55.7031 -13.5938C55.7031 -12.4375 56.026 -11.5443 56.6719 -10.9141C57.3177 -10.2839 58.2396 -9.96875 59.4375 -9.96875M77.8594 -12.75C79.6094 -12.75 80.9609 -12.2057 81.9141 -11.1172C82.8672 -10.0286 83.3438 -8.49479 83.3438 -6.51563C83.3438 -5.08854 83.0885 -3.86458 82.5781 -2.84375C82.0677 -1.82292 81.3177 -1.04688 80.3281 -0.515625C79.3385 0.015625 78.1458 0.28125 76.75 0.28125C75.25 0.28125 73.9714 -0.0208333 72.9141 -0.625C71.8568 -1.22917 71.0521 -2.10938 70.5 -3.26563C69.9479 -4.42188 69.6719 -5.81771 69.6719 -7.45313L69.6719 -8.125C69.6719 -11.9688 70.6484 -14.8906 72.6016 -16.8906C74.5547 -18.8906 77.526 -19.9896 81.5156 -20.1875L81.7969 -17.5C78.7865 -17.375 76.5391 -16.6458 75.0547 -15.3125C73.5703 -13.9792 72.8229 -12.026 72.8125 -9.45313L73.0625 -9.45313C73.3542 -10.4948 73.9193 -11.3047 74.7578 -11.8828C75.5964 -12.4609 76.6302 -12.75 77.8594 -12.75M76.7813 -2.32813C77.9167 -2.32813 78.7891 -2.69271 79.3984 -3.42188C80.0078 -4.15104 80.3125 -5.18229 80.3125 -6.51563C80.3125 -7.67188 79.9896 -8.5651 79.3438 -9.19531C78.6979 -9.82552 77.776 -10.1406 76.5781 -10.1406C75.3802 -10.1406 74.4531 -9.79948 73.7969 -9.11719C73.1406 -8.4349 72.8125 -7.47396 72.8125 -6.23438C72.8125 -3.63021 74.1354 -2.32813 76.7813 -2.32813"/><path id="shape017" transform="matrix(0.198376275758423 -0.98012588937356 0.98012588937356 0.198376275758423 357.033848948826 243.344019456193)" fill="none" stroke="#000000" stroke-width="2.88" stroke-linecap="square" stroke-linejoin="miter" stroke-miterlimit="2" d="M0 0L0 390.856"/><path id="shape014" transform="matrix(0.198376271608772 -0.980125868871208 0.980125868871208 0.198376271608772 248.539896012266 243.109384202552)" fill="none" stroke="#000000" stroke-width="2.88" stroke-linecap="square" stroke-linejoin="miter" stroke-miterlimit="2" d="M0 0L0 392.947"/><path id="shape02" transform="matrix(0.198376273693402 -0.980125879170826 0.980125879170826 0.198376273693402 140.3398928101 243.109383326471)" fill="none" stroke="#000000" stroke-width="2.88" stroke-linecap="square" stroke-linejoin="miter" stroke-miterlimit="2" d="M0 0L0 390.352"/><path id="shape015" transform="matrix(0.198376269543751 -0.980125858668474 0.980125858668474 0.198376269543751 31.6199025580891 243.019385066072)" fill="none" stroke="#000000" stroke-width="2.88" stroke-linecap="square" stroke-linejoin="miter" stroke-miterlimit="2" d="M0 0L0 397.961"/><path id="shape03" transform="matrix(0.999999959459439 0 0 -0.999999959459439 30.9689455382781 242.238670248291)" fill="none" stroke="#000000" stroke-width="2.88" stroke-linecap="square" stroke-linejoin="miter" stroke-miterlimit="2" d="M0 0L0 25.5024"/><path id="shape05" transform="matrix(0.999999956653032 0 0 -0.999999956653032 139.675194342702 242.249651857184)" fill="none" stroke="#000000" stroke-width="2.88" stroke-linecap="square" stroke-linejoin="miter" stroke-miterlimit="2" d="M0 0L0 25.768"/><path id="shape06" transform="matrix(0.999999956653032 0 0 -0.999999956653032 248.396301398146 242.232726961083)" fill="none" stroke="#000000" stroke-width="2.88" stroke-linecap="square" stroke-linejoin="miter" stroke-miterlimit="2" d="M0 0L0 25.751"/><path id="shape07" transform="matrix(0.999999956653032 0 0 -0.999999956653032 356.402136101953 242.227437960982)" fill="none" stroke="#000000" stroke-width="2.88" stroke-linecap="square" stroke-linejoin="miter" stroke-miterlimit="2" d="M0 0L0 26.0003"/><path id="shape018" transform="matrix(0.99999997494452 0 0 0.99999997494452 609.848768102517 390.400004115954)" fill="none" stroke="#000000" stroke-width="2.88" stroke-linecap="square" stroke-linejoin="miter" stroke-miterlimit="2" d="Mnan 0Lnan 9.94059e+24"/><path id="shape15" transform="matrix(0.99999997494452 0 0 0.99999997494452 439.905909903614 411.853409906669)" fill="#000000" fill-rule="evenodd" stroke="#000000" stroke-width="2.88" stroke-linecap="square" stroke-linejoin="miter" stroke-miterlimit="2.16000008583069" d="M0 0L5.02628 9.66376L10.1028 0C5.78654 0 4.31625 0 0 0Z"/><path id="shape111" transform="matrix(0.999999952125951 0 0 0.999999952125951 552.965924560991 355.123416682781)" fill="none" stroke="#000000" stroke-width="2.88" stroke-linecap="square" stroke-linejoin="miter" stroke-miterlimit="2" d="M0 0L0 57.44"/><path id="shape33" transform="matrix(0.999999952125951 0 0 0.999999952125951 547.905906573506 411.853409906666)" fill="#000000" fill-rule="evenodd" stroke="#000000" stroke-width="2.88" stroke-linecap="square" stroke-linejoin="miter" stroke-miterlimit="2.16000008583069" d="M0 0L5.02628 9.66376L10.1028 0C5.78654 0 4.31625 0 0 0Z"/><path id="shape112" transform="matrix(0.999999952125951 0 0 0.999999952125951 660.954671854861 355.202166683749)" fill="none" stroke="#000000" stroke-width="2.88" stroke-linecap="square" stroke-linejoin="miter" stroke-miterlimit="2" d="M0 0L0 57.3683"/><path id="shape31" transform="matrix(0.999999952125951 0 0 0.999999952125951 655.905903867514 411.853409906666)" fill="#000000" fill-rule="evenodd" stroke="#000000" stroke-width="2.88" stroke-linecap="square" stroke-linejoin="miter" stroke-miterlimit="2.16000008583069" d="M0 0L5.02628 9.66376L10.1028 0C5.78654 0 4.31625 0 0 0Z"/><path id="shape121" transform="matrix(0.999999929307384 0 0 0.999999929307384 933.848756041492 390.400009439069)" fill="none" stroke="#000000" stroke-width="2.88" stroke-linecap="square" stroke-linejoin="miter" stroke-miterlimit="2" d="Mnan 0Lnan 5.78634e+09"/><path id="shape32" transform="matrix(0.999999929307384 0 0 0.999999929307384 763.905898073 411.85340990667)" fill="#000000" fill-rule="evenodd" stroke="#000000" stroke-width="2.88" stroke-linecap="square" stroke-linejoin="miter" stroke-miterlimit="2.16000008583069" d="M0 0L5.02628 9.66376L10.1028 0C5.78654 0 4.31625 0 0 0Z"/><path id="shape019" transform="matrix(0.19837627193921 -0.980125870503816 0.980125870503816 0.19837627193921 771.91793995343 242.856604279519)" fill="none" stroke="#000000" stroke-width="2.88" stroke-linecap="square" stroke-linejoin="miter" stroke-miterlimit="2" d="M0 0L0 409.439"/><path id="shape016" transform="matrix(0.198376267789559 -0.980125850001463 0.980125850001463 0.198376267789559 663.423989105647 242.621969030393)" fill="none" stroke="#000000" stroke-width="2.88" stroke-linecap="square" stroke-linejoin="miter" stroke-miterlimit="2" d="M0 0L0 409.949"/><path id="shape021" transform="matrix(0.198376269874188 -0.980125860301081 0.980125860301081 0.198376269874188 555.223987986588 242.621968154314)" fill="none" stroke="#000000" stroke-width="2.88" stroke-linecap="square" stroke-linejoin="miter" stroke-miterlimit="2" d="M0 0L0 410.737"/><path id="shape011" transform="matrix(0.198376265724538 -0.980125839798728 0.980125839798728 0.198376265724538 446.503999827692 242.621969898232)" fill="none" stroke="#000000" stroke-width="2.88" stroke-linecap="square" stroke-linejoin="miter" stroke-miterlimit="2" d="M0 0L0 410.596"/><g id="group03" transform="matrix(0.99999999196544 0 0 0.99999999196544 534.949029281036 317.522613450253)" fill="none">
  <rect id="shape020" transform="matrix(0.999999977181431 0 0 0.999999977181431 0 -5.6843418860808e-14)" fill="none" stroke="#000000" stroke-width="2.88" stroke-linecap="square" stroke-linejoin="miter" stroke-miterlimit="2.16000008583069" width="36" height="36"/>
  <path id="shape017" transform="matrix(0.999999958078448 0 0 0.999999958078448 17.9999999999999 1.44000000000005)" fill="none" stroke="#000000" stroke-width="2.88" stroke-linecap="square" stroke-linejoin="miter" stroke-miterlimit="2" d="M0 0L0 33.8553"/>
  <path id="shape021" transform="matrix(-1 0 0 1 34.5600000000001 17.9999999999999)" fill="none" stroke="#000000" stroke-width="2.88" stroke-linecap="square" stroke-linejoin="miter" stroke-miterlimit="2" d="M0 0L33.1583 0"/>
 </g><path id="shape16" transform="matrix(0.169291410500927 -0.985566028558553 0.985566028558553 0.169291410500927 521.243409903188 325.939136376792)" fill="#000000" fill-rule="evenodd" stroke="#000000" stroke-width="2.88" stroke-linecap="square" stroke-linejoin="miter" stroke-miterlimit="2.16000008583069" d="M0 0L5.02628 9.66376L10.1028 0C5.78654 0 4.31625 0 0 0Z"/><g id="group04" transform="matrix(0.999999985167304 0 0 0.999999985167304 642.958348991416 317.52261343967)" fill="none">
  <rect id="shape022" transform="matrix(0.999999977181431 0 0 0.999999977181431 -1.13686837721616e-13 0)" fill="none" stroke="#000000" stroke-width="2.88" stroke-linecap="square" stroke-linejoin="miter" stroke-miterlimit="2.16000008583069" width="36" height="36"/>
  <path id="shape018" transform="matrix(0.999999958078448 0 0 0.999999958078448 17.9999999999999 1.43999999999994)" fill="none" stroke="#000000" stroke-width="2.88" stroke-linecap="square" stroke-linejoin="miter" stroke-miterlimit="2" d="M0 0L0 33.8553"/>
  <path id="shape023" transform="matrix(-1 0 0 1 34.5600000000001 18)" fill="none" stroke="#000000" stroke-width="2.88" stroke-linecap="square" stroke-linejoin="miter" stroke-miterlimit="2" d="M0 0L33.1583 0"/>
 </g><path id="shape17" transform="matrix(0.169291409350061 -0.985566021858541 0.985566021858541 0.169291409350061 629.23215990276 325.950386308841)" fill="#000000" fill-rule="evenodd" stroke="#000000" stroke-width="2.88" stroke-linecap="square" stroke-linejoin="miter" stroke-miterlimit="2.16000008583069" d="M0 0L5.02628 9.66376L10.1028 0C5.78654 0 4.31625 0 0 0Z"/><g id="group05" transform="matrix(0.999999977132744 0 0 0.999999977132744 750.95591273872 317.520132787585)" fill="none">
  <rect id="shape022" transform="matrix(0.999999977181431 0 0 0.999999977181431 0 -5.6843418860808e-14)" fill="none" stroke="#000000" stroke-width="2.88" stroke-linecap="square" stroke-linejoin="miter" stroke-miterlimit="2.16000008583069" width="36" height="36"/>
  <path id="shape019" transform="matrix(0.999999958078448 0 0 0.999999958078448 18 1.44000000000005)" fill="none" stroke="#000000" stroke-width="2.88" stroke-linecap="square" stroke-linejoin="miter" stroke-miterlimit="2" d="M0 0L0 33.8553"/>
  <path id="shape031" transform="matrix(-1 0 0 1 34.5600000000002 17.9999999999999)" fill="none" stroke="#000000" stroke-width="2.88" stroke-linecap="square" stroke-linejoin="miter" stroke-miterlimit="2" d="M0 0L33.1583 0"/>
 </g><path id="shape113" transform="matrix(0.169291407989878 -0.985566013939949 0.985566013939949 0.169291407989878 737.21654356443 325.959155587621)" fill="#000000" fill-rule="evenodd" stroke="#000000" stroke-width="2.88" stroke-linecap="square" stroke-linejoin="miter" stroke-miterlimit="2.16000008583069" d="M0 0L5.02628 9.66376L10.1028 0C5.78654 0 4.31625 0 0 0Z"/><g id="group2" transform="translate(858.957159903788, 317.163409933942)" fill="none">
  <circle id="shape9" r="18" cx="18" cy="18" fill="none" stroke="#000000" stroke-width="2.88" stroke-linecap="square" stroke-linejoin="bevel"/>
  <path id="shape0110" transform="matrix(0.999999921614108 0 0 0.999999921614108 18.005411534898 1.08337912315346)" fill="none" stroke="#000000" stroke-width="2.88" stroke-linecap="square" stroke-linejoin="miter" stroke-miterlimit="2" d="M0 0L0 33.8553"/>
  <path id="shape032" transform="matrix(-0.999999963535658 0 0 0.999999963535658 34.5654109310485 17.643378519304)" fill="none" stroke="#000000" stroke-width="2.88" stroke-linecap="square" stroke-linejoin="miter" stroke-miterlimit="2" d="M0 0L33.1583 0"/>
 </g><g id="group06" transform="matrix(0.999999980748898 0 0 0.999999980748898 966.945909904281 317.16340992109)" fill="none">
  <circle id="shape024" r="18" cx="18" cy="18" fill="none" stroke="#000000" stroke-width="2.88" stroke-linecap="square" stroke-linejoin="bevel"/>
  <path id="shape0111" transform="matrix(0.999999921614108 0 0 0.999999921614108 18.0054115348979 1.08337912315341)" fill="none" stroke="#000000" stroke-width="2.88" stroke-linecap="square" stroke-linejoin="miter" stroke-miterlimit="2" d="M0 0L0 33.8553"/>
  <path id="shape033" transform="matrix(-0.999999963535658 0 0 0.999999963535658 34.5654109310486 17.643378519304)" fill="none" stroke="#000000" stroke-width="2.88" stroke-linecap="square" stroke-linejoin="miter" stroke-miterlimit="2" d="M0 0L33.1583 0"/>
 </g><g id="group07" transform="matrix(0.999999980748898 0 0 0.999999980748898 1074.94590990345 317.163409894606)" fill="none">
  <circle id="shape025" r="18" cx="18" cy="18" fill="none" stroke="#000000" stroke-width="2.88" stroke-linecap="square" stroke-linejoin="bevel"/>
  <path id="shape0112" transform="matrix(0.999999921614108 0 0 0.999999921614108 18.0054115348979 1.08337912315341)" fill="none" stroke="#000000" stroke-width="2.88" stroke-linecap="square" stroke-linejoin="miter" stroke-miterlimit="2" d="M0 0L0 33.8553"/>
  <path id="shape034" transform="matrix(-0.999999963535658 0 0 0.999999963535658 34.5654109310484 17.643378519304)" fill="none" stroke="#000000" stroke-width="2.88" stroke-linecap="square" stroke-linejoin="miter" stroke-miterlimit="2" d="M0 0L33.1583 0"/>
 </g><g id="group08" transform="matrix(0.999999961497796 0 0 0.999999961497796 1182.94590990475 317.163409936071)" fill="none">
  <circle id="shape026" r="18" cx="18" cy="18" fill="none" stroke="#000000" stroke-width="2.88" stroke-linecap="square" stroke-linejoin="bevel"/>
  <path id="shape0111" transform="matrix(0.999999921614108 0 0 0.999999921614108 18.0054115348976 1.08337912315335)" fill="none" stroke="#000000" stroke-width="2.88" stroke-linecap="square" stroke-linejoin="miter" stroke-miterlimit="2" d="M0 0L0 33.8553"/>
  <path id="shape031" transform="matrix(-0.999999963535658 0 0 0.999999963535658 34.5654109310485 17.643378519304)" fill="none" stroke="#000000" stroke-width="2.88" stroke-linecap="square" stroke-linejoin="miter" stroke-miterlimit="2" d="M0 0L33.1583 0"/>
 </g><path id="shape18" transform="matrix(0.169291408261815 -0.985566015523089 0.985566015523089 0.169291408261815 847.137124176983 329.158727211778)" fill="#000000" fill-rule="evenodd" stroke="#000000" stroke-width="2.88" stroke-linecap="square" stroke-linejoin="miter" stroke-miterlimit="2.16000008583069" d="M0 0L5.02628 9.66376L10.1028 0C5.78654 0 4.31625 0 0 0Z"/><path id="shape114" transform="matrix(0.169291406901634 -0.985566007604501 0.985566007604501 0.169291406901634 955.121507144508 329.167496490502)" fill="#000000" fill-rule="evenodd" stroke="#000000" stroke-width="2.88" stroke-linecap="square" stroke-linejoin="miter" stroke-miterlimit="2.16000008583069" d="M0 0L5.02628 9.66376L10.1028 0C5.78654 0 4.31625 0 0 0Z"/><path id="shape122" transform="matrix(0.169291405750767 -0.985566000904487 0.985566000904487 0.169291405750767 1063.11025484813 329.178746422311)" fill="#000000" fill-rule="evenodd" stroke="#000000" stroke-width="2.88" stroke-linecap="square" stroke-linejoin="miter" stroke-miterlimit="2.16000008583069" d="M0 0L5.02628 9.66376L10.1028 0C5.78654 0 4.31625 0 0 0Z"/><path id="shape115" transform="matrix(0.169291404390585 -0.985565992985897 0.985565992985897 0.169291404390585 1171.09463621396 329.187515700906)" fill="#000000" fill-rule="evenodd" stroke="#000000" stroke-width="2.88" stroke-linecap="square" stroke-linejoin="miter" stroke-miterlimit="2.16000008583069" d="M0 0L5.02628 9.66376L10.1028 0C5.78654 0 4.31625 0 0 0Z"/><path id="shape116" transform="matrix(0.999999938670229 0 0 0.999999938670229 444.957159903788 354.412159908905)" fill="none" stroke="#000000" stroke-width="2.88" stroke-linecap="square" stroke-linejoin="miter" stroke-miterlimit="2" d="M0 0L0 58.1512"/><path id="shape117" transform="matrix(0.999999928010626 0 0 0.999999928010626 768.957159903786 355.199659905638)" fill="none" stroke="#000000" stroke-width="2.88" stroke-linecap="square" stroke-linejoin="miter" stroke-miterlimit="2" d="M0 0L0 57.3683"/><path id="shape10" transform="matrix(1.00000002931564 0 0 1.00000002931564 515.167164060119 40.2434152363419)" fill="#000000" fill-rule="evenodd" d="M8.5 0.28125C3.55208 0.28125 1.07813 -3.11458 1.07813 -9.90625C1.07813 -16.8958 3.55208 -20.3906 8.5 -20.3906C13.4479 -20.3906 15.9219 -16.8958 15.9219 -9.90625C15.9219 -3.11458 13.4479 0.28125 8.5 0.28125M8.5 -2.32813C11.4583 -2.32813 12.9375 -4.85417 12.9375 -9.90625C12.9375 -15.1563 11.4583 -17.7813 8.5 -17.7813C5.53125 -17.7813 4.04688 -15.1563 4.04688 -9.90625C4.04688 -4.85417 5.53125 -2.32813 8.5 -2.32813M32.5781 -2.6875L32.5781 0L19.2656 0L19.2656 -20.1094L22.0938 -20.1094L22.0938 -2.6875L32.5781 -2.6875M41.1406 -20.1094C44.2135 -20.1094 46.5156 -19.2266 48.0469 -17.4609C49.5781 -15.6953 50.3438 -13.0365 50.3438 -9.48438C50.3438 -6.31771 49.5781 -3.94531 48.0469 -2.36719C46.5156 -0.789063 44.2135 0 41.1406 0L36.2656 0L36.2656 -20.1094L41.1406 -20.1094M41.1406 -2.6875C43.2031 -2.6875 44.7578 -3.27865 45.8047 -4.46094C46.8516 -5.64323 47.375 -7.41146 47.375 -9.76563C47.375 -14.8698 45.2969 -17.4219 41.1406 -17.4219L39.0938 -17.4219L39.0938 -2.6875L41.1406 -2.6875M78.3438 -10.9375C79.8854 -10.2083 81.0286 -9.39844 81.7734 -8.50781C82.5182 -7.61719 82.8906 -6.51042 82.8906 -5.1875C82.8906 -3.3125 82.2995 -1.90885 81.1172 -0.976563C79.9349 -0.0442708 78.1406 0.421875 75.7344 0.421875C73.4531 0.421875 71.4583 0.0520833 69.75 -0.6875L70.125 -3.42188C72.2188 -2.59896 74.1615 -2.1875 75.9531 -2.1875C77.2656 -2.1875 78.2448 -2.42969 78.8906 -2.91406C79.5365 -3.39844 79.8594 -4.13542 79.8594 -5.125C79.8594 -6.32292 79.25 -7.20313 78.0313 -7.76563L74.5469 -9.34375C73.1302 -9.98958 72.0677 -10.7552 71.3594 -11.6406C70.651 -12.526 70.2969 -13.6042 70.2969 -14.875C70.2969 -16.0313 70.5469 -17.0234 71.0469 -17.8516C71.5469 -18.6797 72.2734 -19.3099 73.2266 -19.7422C74.1797 -20.1745 75.3281 -20.3906 76.6719 -20.3906C77.8802 -20.3906 78.9141 -20.2031 79.7734 -19.8281C80.6328 -19.4531 81.2891 -18.9089 81.7422 -18.1953C82.1953 -17.4818 82.4219 -16.6198 82.4219 -15.6094L79.6406 -15.6094C79.6406 -16.3073 79.3802 -16.8438 78.8594 -17.2188C78.3385 -17.5938 77.6094 -17.7813 76.6719 -17.7813C75.6094 -17.7813 74.7865 -17.5391 74.2031 -17.0547C73.6198 -16.5703 73.3281 -15.8906 73.3281 -15.0156C73.3281 -14.3802 73.4948 -13.8568 73.8281 -13.4453C74.1615 -13.0339 74.6823 -12.6563 75.3906 -12.3125L78.3438 -10.9375M100.859 -17.4219L94.9063 -17.4219L94.9063 0L92.0781 0L92.0781 -17.4219L86.1406 -17.4219L86.1406 -20.1094L100.859 -20.1094L100.859 -17.4219M114.016 -4.90625L106.891 -4.90625L105.563 0L102.594 0L108.406 -20.1094L112.5 -20.1094L118.313 0L115.344 0L114.016 -4.90625M113.297 -7.59375L110.578 -17.6719L110.328 -17.6719L107.609 -7.59375L113.297 -7.59375M134.859 -17.4219L128.906 -17.4219L128.906 0L126.078 0L126.078 -17.4219L120.141 -17.4219L120.141 -20.1094L134.859 -20.1094L134.859 -17.4219M141.094 -17.4219L141.094 -11.4063L149.031 -11.4063L149.031 -8.71875L141.094 -8.71875L141.094 -2.6875L151.578 -2.6875L151.578 0L138.266 0L138.266 -20.1094L151.578 -20.1094L151.578 -17.4219L141.094 -17.4219M180.422 -2.64063L184.891 -2.64063L184.891 0L172.406 0L172.406 -2.64063L177.422 -2.64063L177.422 -17.3281L172.688 -16.25L172.688 -18.9688L177.422 -20.1094L180.422 -20.1094L180.422 -2.64063"/><path id="shape11" transform="matrix(1.00000004611219 0 0 1.00000004611219 518.707176506221 452.793414659898)" fill="#000000" fill-rule="evenodd" d="M12.1719 -20.1094L14.8906 -20.1094L14.8906 0L11.3281 0L5.09375 -14.875L4.8125 -14.875L4.8125 0L2.09375 0L2.09375 -20.1094L5.67188 -20.1094L11.8906 -4.5625L12.1719 -4.5625L12.1719 -20.1094M22.0938 -17.4219L22.0938 -11.4063L30.0313 -11.4063L30.0313 -8.71875L22.0938 -8.71875L22.0938 -2.6875L32.5781 -2.6875L32.5781 0L19.2656 0L19.2656 -20.1094L32.5781 -20.1094L32.5781 -17.4219L22.0938 -17.4219M48.0156 -20.1094L50.7031 -20.1094L48.7344 0.28125L44.1406 0.28125L42.5781 -11.3594L42.4063 -11.3594L40.8594 0.28125L36.2656 0.28125L34.2813 -20.1094L36.9688 -20.1094L38.6719 -1.98438L38.9531 -1.98438L41.0313 -14.1563L44 -14.1563L46.0313 -1.98438L46.3125 -1.98438L48.0156 -20.1094M78.3438 -10.9375C79.8854 -10.2083 81.0286 -9.39844 81.7734 -8.50781C82.5182 -7.61719 82.8906 -6.51042 82.8906 -5.1875C82.8906 -3.3125 82.2995 -1.90885 81.1172 -0.976563C79.9349 -0.0442708 78.1406 0.421875 75.7344 0.421875C73.4531 0.421875 71.4583 0.0520833 69.75 -0.6875L70.125 -3.42188C72.2188 -2.59896 74.1615 -2.1875 75.9531 -2.1875C77.2656 -2.1875 78.2448 -2.42969 78.8906 -2.91406C79.5365 -3.39844 79.8594 -4.13542 79.8594 -5.125C79.8594 -6.32292 79.25 -7.20313 78.0313 -7.76563L74.5469 -9.34375C73.1302 -9.98958 72.0677 -10.7552 71.3594 -11.6406C70.651 -12.526 70.2969 -13.6042 70.2969 -14.875C70.2969 -16.0313 70.5469 -17.0234 71.0469 -17.8516C71.5469 -18.6797 72.2734 -19.3099 73.2266 -19.7422C74.1797 -20.1745 75.3281 -20.3906 76.6719 -20.3906C77.8802 -20.3906 78.9141 -20.2031 79.7734 -19.8281C80.6328 -19.4531 81.2891 -18.9089 81.7422 -18.1953C82.1953 -17.4818 82.4219 -16.6198 82.4219 -15.6094L79.6406 -15.6094C79.6406 -16.3073 79.3802 -16.8438 78.8594 -17.2188C78.3385 -17.5938 77.6094 -17.7813 76.6719 -17.7813C75.6094 -17.7813 74.7865 -17.5391 74.2031 -17.0547C73.6198 -16.5703 73.3281 -15.8906 73.3281 -15.0156C73.3281 -14.3802 73.4948 -13.8568 73.8281 -13.4453C74.1615 -13.0339 74.6823 -12.6563 75.3906 -12.3125L78.3438 -10.9375M100.859 -17.4219L94.9063 -17.4219L94.9063 0L92.0781 0L92.0781 -17.4219L86.1406 -17.4219L86.1406 -20.1094L100.859 -20.1094L100.859 -17.4219M114.016 -4.90625L106.891 -4.90625L105.563 0L102.594 0L108.406 -20.1094L112.5 -20.1094L118.313 0L115.344 0L114.016 -4.90625M113.297 -7.59375L110.578 -17.6719L110.328 -17.6719L107.609 -7.59375L113.297 -7.59375M134.859 -17.4219L128.906 -17.4219L128.906 0L126.078 0L126.078 -17.4219L120.141 -17.4219L120.141 -20.1094L134.859 -20.1094L134.859 -17.4219M141.094 -17.4219L141.094 -11.4063L149.031 -11.4063L149.031 -8.71875L141.094 -8.71875L141.094 -2.6875L151.578 -2.6875L151.578 0L138.266 0L138.266 -20.1094L151.578 -20.1094L151.578 -17.4219L141.094 -17.4219M180.422 -2.64063L184.891 -2.64063L184.891 0L172.406 0L172.406 -2.64063L177.422 -2.64063L177.422 -17.3281L172.688 -16.25L172.688 -18.9688L177.422 -20.1094L180.422 -20.1094L180.422 -2.64063"/><rect id="shape027" transform="matrix(0.99999990589147 0 0 0.99999990589147 859.68590974949 424.804659492897)" fill="none" stroke="#000000" stroke-width="2.88" stroke-linecap="square" stroke-linejoin="miter" stroke-miterlimit="2.16000008583069" width="357.840033625952" height="35.9953533661127"/><path id="shape19" transform="matrix(0.999999943250594 0 0 0.999999943250594 871.914659361737 411.854659904733)" fill="#000000" fill-rule="evenodd" stroke="#000000" stroke-width="2.88" stroke-linecap="square" stroke-linejoin="miter" stroke-miterlimit="2.16000008583069" d="M0 0L5.02628 9.66376L10.1028 0C5.78654 0 4.31625 0 0 0Z"/><path id="shape118" transform="matrix(0.999999920432026 0 0 0.999999920432026 984.9746704358 355.124668478841)" fill="none" stroke="#000000" stroke-width="2.88" stroke-linecap="square" stroke-linejoin="miter" stroke-miterlimit="2" d="M0 0L0 57.44"/><path id="shape34" transform="matrix(0.999999920432026 0 0 0.999999920432026 979.914652608686 411.85465990473)" fill="#000000" fill-rule="evenodd" stroke="#000000" stroke-width="2.88" stroke-linecap="square" stroke-linejoin="miter" stroke-miterlimit="2.16000008583069" d="M0 0L5.02628 9.66376L10.1028 0C5.78654 0 4.31625 0 0 0Z"/><path id="shape111" transform="matrix(0.999999920432026 0 0 0.999999920432026 1092.96341430708 355.203418477312)" fill="none" stroke="#000000" stroke-width="2.88" stroke-linecap="square" stroke-linejoin="miter" stroke-miterlimit="2" d="M0 0L0 57.3683"/><path id="shape311" transform="matrix(0.999999920432026 0 0 0.999999920432026 1087.91464647975 411.85465990473)" fill="#000000" fill-rule="evenodd" stroke="#000000" stroke-width="2.88" stroke-linecap="square" stroke-linejoin="miter" stroke-miterlimit="2.16000008583069" d="M0 0L5.02628 9.66376L10.1028 0C5.78654 0 4.31625 0 0 0Z"/><path id="shape321" transform="matrix(0.99999989761346 0 0 0.99999989761346 1195.91463726229 411.854659904733)" fill="#000000" fill-rule="evenodd" stroke="#000000" stroke-width="2.88" stroke-linecap="square" stroke-linejoin="miter" stroke-miterlimit="2.16000008583069" d="M0 0L5.02628 9.66376L10.1028 0C5.78654 0 4.31625 0 0 0Z"/><path id="shape112" transform="matrix(0.999999906976304 0 0 0.999999906976304 876.96590920182 354.413411727508)" fill="none" stroke="#000000" stroke-width="2.88" stroke-linecap="square" stroke-linejoin="miter" stroke-miterlimit="2" d="M0 0L0 58.1512"/><path id="shape12" transform="matrix(1.00000001441826 0 0 1.00000001441826 988.715923466823 452.794663360412)" fill="#000000" fill-rule="evenodd" d="M8.5 0.28125C3.55208 0.28125 1.07813 -3.11458 1.07813 -9.90625C1.07813 -16.8958 3.55208 -20.3906 8.5 -20.3906C13.4479 -20.3906 15.9219 -16.8958 15.9219 -9.90625C15.9219 -3.11458 13.4479 0.28125 8.5 0.28125M8.5 -2.32813C11.4583 -2.32813 12.9375 -4.85417 12.9375 -9.90625C12.9375 -15.1563 11.4583 -17.7813 8.5 -17.7813C5.53125 -17.7813 4.04688 -15.1563 4.04688 -9.90625C4.04688 -4.85417 5.53125 -2.32813 8.5 -2.32813M25.4375 0C21.1354 0 18.9844 -2.24479 18.9844 -6.73438L18.9844 -20.1094L21.8125 -20.1094L21.8125 -6.73438C21.8125 -5.38021 22.1094 -4.36719 22.7031 -3.69531C23.2969 -3.02344 24.2292 -2.6875 25.5 -2.6875C26.7188 -2.6875 27.6354 -3.02865 28.25 -3.71094C28.8646 -4.39323 29.1719 -5.40104 29.1719 -6.73438L29.1719 -20.1094L32.0156 -20.1094L32.0156 -6.73438C32.0156 -4.50521 31.4609 -2.82552 30.3516 -1.69531C29.2422 -0.565104 27.6042 0 25.4375 0M49.8594 -17.4219L43.9063 -17.4219L43.9063 0L41.0781 0L41.0781 -17.4219L35.1406 -17.4219L35.1406 -20.1094L49.8594 -20.1094L49.8594 -17.4219M59.1875 -20.1094C60.8021 -20.1094 62.1849 -19.8438 63.3359 -19.3125C64.487 -18.7813 65.362 -18.0078 65.9609 -16.9922C66.5599 -15.9766 66.8594 -14.75 66.8594 -13.3125C66.8594 -11.8229 66.5599 -10.5469 65.9609 -9.48438C65.362 -8.42188 64.487 -7.61458 63.3359 -7.0625C62.1849 -6.51042 60.8021 -6.23438 59.1875 -6.23438L56.0938 -6.23438L56.0938 0L53.2656 0L53.2656 -20.1094L59.1875 -20.1094M59.1875 -8.92188C60.6771 -8.92188 61.8333 -9.28125 62.6563 -10C63.4792 -10.7188 63.8906 -11.7292 63.8906 -13.0313C63.8906 -14.4271 63.4792 -15.5078 62.6563 -16.2734C61.8333 -17.0391 60.6771 -17.4219 59.1875 -17.4219L56.0938 -17.4219L56.0938 -8.92188L59.1875 -8.92188M76.4375 0C72.1354 0 69.9844 -2.24479 69.9844 -6.73438L69.9844 -20.1094L72.8125 -20.1094L72.8125 -6.73438C72.8125 -5.38021 73.1094 -4.36719 73.7031 -3.69531C74.2969 -3.02344 75.2292 -2.6875 76.5 -2.6875C77.7188 -2.6875 78.6354 -3.02865 79.25 -3.71094C79.8646 -4.39323 80.1719 -5.40104 80.1719 -6.73438L80.1719 -20.1094L83.0156 -20.1094L83.0156 -6.73438C83.0156 -4.50521 82.4609 -2.82552 81.3516 -1.69531C80.2422 -0.565104 78.6042 0 76.4375 0M100.859 -17.4219L94.9063 -17.4219L94.9063 0L92.0781 0L92.0781 -17.4219L86.1406 -17.4219L86.1406 -20.1094L100.859 -20.1094L100.859 -17.4219"/><path id="shape113" transform="matrix(0.999999896316702 0 0 0.999999896316702 1200.96589893299 355.200911699281)" fill="none" stroke="#000000" stroke-width="2.88" stroke-linecap="square" stroke-linejoin="miter" stroke-miterlimit="2" d="M0 0L0 57.3683"/><rect id="shape028" transform="matrix(0.999999892880018 0 0 0.999999892880018 1273.68279514305 12.2466666916322)" fill="none" stroke="#000000" stroke-width="2.88" stroke-linecap="square" stroke-linejoin="miter" stroke-miterlimit="2.16000008583069" width="357.840033625952" height="35.9785614741611"/><rect id="shape0113" transform="matrix(0.999999904849509 0 0 0.999999904849509 1273.66588679429 424.835891900457)" fill="none" stroke="#000000" stroke-width="2.88" stroke-linecap="square" stroke-linejoin="miter" stroke-miterlimit="2.16000008583069" width="357.840033625952" height="35.9626080180848"/><g id="group09" transform="matrix(0.999999967264112 0 0 0.999999967264112 1272.95337104161 317.523829612499)" fill="none">
  <rect id="shape023" transform="matrix(0.999999977181431 0 0 0.999999977181431 0 0)" fill="none" stroke="#000000" stroke-width="2.88" stroke-linecap="square" stroke-linejoin="miter" stroke-miterlimit="2.16000008583069" width="36" height="36"/>
  <path id="shape035" transform="matrix(0.999999958078448 0 0 0.999999958078448 17.9999999999999 1.44)" fill="none" stroke="#000000" stroke-width="2.88" stroke-linecap="square" stroke-linejoin="miter" stroke-miterlimit="2" d="M0 0L0 33.8553"/>
  <path id="shape029" transform="matrix(-1 0 0 1 34.5599999999999 18)" fill="none" stroke="#000000" stroke-width="2.88" stroke-linecap="square" stroke-linejoin="miter" stroke-miterlimit="2" d="M0 0L33.1583 0"/>
 </g><rect id="shape110" transform="matrix(0.999999967264112 0 0 0.999999967264112 1258.56838728937 179.281095360808)" fill="none" stroke="#000000" stroke-width="2.88" stroke-linecap="square" stroke-linejoin="miter" stroke-miterlimit="2.16000008583069" width="64.8031605430267" height="35.998893932656"/><path id="shape2" transform="matrix(0.999999967264112 0 0 0.999999967264112 1290.94588762917 49.7159053738224)" fill="none" stroke="#000000" stroke-width="2.88" stroke-linecap="square" stroke-linejoin="miter" stroke-miterlimit="2" d="M0 0L0 119.949"/><path id="shape13" transform="matrix(0.999999967264112 0 0 0.999999967264112 1265.14588706042 207.595899012002)" fill="#000000" fill-rule="evenodd" d="M3.96875 -5.57813L13.8906 -9.90625L13.8906 -10.1719L3.96875 -14.5L3.96875 -17.6094L17.5313 -11.4688L17.5313 -8.60938L3.96875 -2.46875L3.96875 -5.57813M17.0313 -5.57813L26.9375 -9.90625L26.9375 -10.1719L17.0313 -14.5L17.0313 -17.6094L30.5938 -11.4688L30.5938 -8.60938L17.0313 -2.46875L17.0313 -5.57813M44.7344 -10.75C45.6823 -10.5833 46.5156 -10.2656 47.2344 -9.79688C47.9531 -9.32813 48.5078 -8.71875 48.8984 -7.96875C49.2891 -7.21875 49.4844 -6.35417 49.4844 -5.375C49.4844 -4.1875 49.2135 -3.16927 48.6719 -2.32031C48.1302 -1.47135 47.3411 -0.825521 46.3047 -0.382813C45.2682 0.0598958 44.0156 0.28125 42.5469 0.28125C38.0052 0.28125 35.7344 -1.69271 35.7344 -5.64063L38.7656 -5.64063C38.7656 -3.43229 39.9896 -2.32813 42.4375 -2.32813C43.7083 -2.32813 44.6979 -2.61979 45.4063 -3.20313C46.1146 -3.78646 46.4688 -4.60938 46.4688 -5.67188C46.4688 -6.83854 45.9401 -7.74219 44.8828 -8.38281C43.8255 -9.02344 42.3333 -9.34375 40.4063 -9.34375L39.9531 -9.34375L39.6094 -11.1875C41.7552 -11.4479 43.3385 -11.9219 44.3594 -12.6094C45.3802 -13.2969 45.8906 -14.1563 45.8906 -15.1875C45.8906 -16 45.6042 -16.6354 45.0313 -17.0938C44.4583 -17.5521 43.6406 -17.7813 42.5781 -17.7813C41.4948 -17.7813 40.6589 -17.5443 40.0703 -17.0703C39.4818 -16.5964 39.1875 -15.9167 39.1875 -15.0313L36.1563 -15.0313C36.1563 -16.1563 36.4193 -17.1198 36.9453 -17.9219C37.4714 -18.724 38.2396 -19.3359 39.25 -19.7578C40.2604 -20.1797 41.474 -20.3906 42.8906 -20.3906C44.8177 -20.3906 46.3047 -20 47.3516 -19.2188C48.3984 -18.4375 48.9219 -17.3281 48.9219 -15.8906C48.9219 -15.1198 48.7474 -14.4063 48.3984 -13.75C48.0495 -13.0938 47.5599 -12.5339 46.9297 -12.0703C46.2995 -11.6068 45.5677 -11.2656 44.7344 -11.0469L44.7344 -10.75"/><path id="shape4" transform="matrix(0.999999967264112 0 0 0.999999967264112 1285.89711956543 166.355900362029)" fill="#000000" fill-rule="evenodd" stroke="#000000" stroke-width="2.88" stroke-linecap="square" stroke-linejoin="miter" stroke-miterlimit="2.16000008583069" d="M0 0L5.02628 9.66376L10.1028 0C5.78654 0 4.31625 0 0 0Z"/><rect id="shape04" transform="matrix(0.999999944445543 0 0 0.999999944445543 1366.55713375456 179.281095061031)" fill="none" stroke="#000000" stroke-width="2.88" stroke-linecap="square" stroke-linejoin="miter" stroke-miterlimit="2.16000008583069" width="64.8031605430267" height="35.9988949164947"/><path id="shape111" transform="matrix(0.999999944445543 0 0 0.999999944445543 1398.94588335437 49.7159080353802)" fill="none" stroke="#000000" stroke-width="2.88" stroke-linecap="square" stroke-linejoin="miter" stroke-miterlimit="2" d="M0 0L0 119.949"/><path id="shape14" transform="matrix(0.999999944445543 0 0 0.999999944445543 1373.14588337434 207.595898070964)" fill="#000000" fill-rule="evenodd" d="M3.96875 -5.57813L13.8906 -9.90625L13.8906 -10.1719L3.96875 -14.5L3.96875 -17.6094L17.5313 -11.4688L17.5313 -8.60938L3.96875 -2.46875L3.96875 -5.57813M17.0313 -5.57813L26.9375 -9.90625L26.9375 -10.1719L17.0313 -14.5L17.0313 -17.6094L30.5938 -11.4688L30.5938 -8.60938L17.0313 -2.46875L17.0313 -5.57813M44.7344 -10.75C45.6823 -10.5833 46.5156 -10.2656 47.2344 -9.79688C47.9531 -9.32813 48.5078 -8.71875 48.8984 -7.96875C49.2891 -7.21875 49.4844 -6.35417 49.4844 -5.375C49.4844 -4.1875 49.2135 -3.16927 48.6719 -2.32031C48.1302 -1.47135 47.3411 -0.825521 46.3047 -0.382813C45.2682 0.0598958 44.0156 0.28125 42.5469 0.28125C38.0052 0.28125 35.7344 -1.69271 35.7344 -5.64063L38.7656 -5.64063C38.7656 -3.43229 39.9896 -2.32813 42.4375 -2.32813C43.7083 -2.32813 44.6979 -2.61979 45.4063 -3.20313C46.1146 -3.78646 46.4688 -4.60938 46.4688 -5.67188C46.4688 -6.83854 45.9401 -7.74219 44.8828 -8.38281C43.8255 -9.02344 42.3333 -9.34375 40.4063 -9.34375L39.9531 -9.34375L39.6094 -11.1875C41.7552 -11.4479 43.3385 -11.9219 44.3594 -12.6094C45.3802 -13.2969 45.8906 -14.1563 45.8906 -15.1875C45.8906 -16 45.6042 -16.6354 45.0313 -17.0938C44.4583 -17.5521 43.6406 -17.7813 42.5781 -17.7813C41.4948 -17.7813 40.6589 -17.5443 40.0703 -17.0703C39.4818 -16.5964 39.1875 -15.9167 39.1875 -15.0313L36.1563 -15.0313C36.1563 -16.1563 36.4193 -17.1198 36.9453 -17.9219C37.4714 -18.724 38.2396 -19.3359 39.25 -19.7578C40.2604 -20.1797 41.474 -20.3906 42.8906 -20.3906C44.8177 -20.3906 46.3047 -20 47.3516 -19.2188C48.3984 -18.4375 48.9219 -17.3281 48.9219 -15.8906C48.9219 -15.1198 48.7474 -14.4063 48.3984 -13.75C48.0495 -13.0938 47.5599 -12.5339 46.9297 -12.0703C46.2995 -11.6068 45.5677 -11.2656 44.7344 -11.0469L44.7344 -10.75"/><path id="shape35" transform="matrix(0.999999944445543 0 0 0.999999944445543 1393.89711540583 166.355900362029)" fill="#000000" fill-rule="evenodd" stroke="#000000" stroke-width="2.88" stroke-linecap="square" stroke-linejoin="miter" stroke-miterlimit="2.16000008583069" d="M0 0L5.02628 9.66376L10.1028 0C5.78654 0 4.31625 0 0 0Z"/><rect id="shape051" transform="matrix(0.999999944445543 0 0 0.999999944445543 1474.55713021857 179.28109506356)" fill="none" stroke="#000000" stroke-width="2.88" stroke-linecap="square" stroke-linejoin="miter" stroke-miterlimit="2.16000008583069" width="64.8031605430267" height="35.995802241643"/><path id="shape119" transform="matrix(0.999999944445543 0 0 0.999999944445543 1506.94587981889 49.7159080353802)" fill="none" stroke="#000000" stroke-width="2.88" stroke-linecap="square" stroke-linejoin="miter" stroke-miterlimit="2" d="M0 0L0 119.949"/><path id="shape15" transform="matrix(0.999999944445543 0 0 0.999999944445543 1481.14587983887 207.595898070964)" fill="#000000" fill-rule="evenodd" d="M3.96875 -5.57813L13.8906 -9.90625L13.8906 -10.1719L3.96875 -14.5L3.96875 -17.6094L17.5313 -11.4688L17.5313 -8.60938L3.96875 -2.46875L3.96875 -5.57813M17.0313 -5.57813L26.9375 -9.90625L26.9375 -10.1719L17.0313 -14.5L17.0313 -17.6094L30.5938 -11.4688L30.5938 -8.60938L17.0313 -2.46875L17.0313 -5.57813M44.7344 -10.75C45.6823 -10.5833 46.5156 -10.2656 47.2344 -9.79688C47.9531 -9.32813 48.5078 -8.71875 48.8984 -7.96875C49.2891 -7.21875 49.4844 -6.35417 49.4844 -5.375C49.4844 -4.1875 49.2135 -3.16927 48.6719 -2.32031C48.1302 -1.47135 47.3411 -0.825521 46.3047 -0.382813C45.2682 0.0598958 44.0156 0.28125 42.5469 0.28125C38.0052 0.28125 35.7344 -1.69271 35.7344 -5.64063L38.7656 -5.64063C38.7656 -3.43229 39.9896 -2.32813 42.4375 -2.32813C43.7083 -2.32813 44.6979 -2.61979 45.4063 -3.20313C46.1146 -3.78646 46.4688 -4.60938 46.4688 -5.67188C46.4688 -6.83854 45.9401 -7.74219 44.8828 -8.38281C43.8255 -9.02344 42.3333 -9.34375 40.4063 -9.34375L39.9531 -9.34375L39.6094 -11.1875C41.7552 -11.4479 43.3385 -11.9219 44.3594 -12.6094C45.3802 -13.2969 45.8906 -14.1563 45.8906 -15.1875C45.8906 -16 45.6042 -16.6354 45.0313 -17.0938C44.4583 -17.5521 43.6406 -17.7813 42.5781 -17.7813C41.4948 -17.7813 40.6589 -17.5443 40.0703 -17.0703C39.4818 -16.5964 39.1875 -15.9167 39.1875 -15.0313L36.1563 -15.0313C36.1563 -16.1563 36.4193 -17.1198 36.9453 -17.9219C37.4714 -18.724 38.2396 -19.3359 39.25 -19.7578C40.2604 -20.1797 41.474 -20.3906 42.8906 -20.3906C44.8177 -20.3906 46.3047 -20 47.3516 -19.2188C48.3984 -18.4375 48.9219 -17.3281 48.9219 -15.8906C48.9219 -15.1198 48.7474 -14.4063 48.3984 -13.75C48.0495 -13.0938 47.5599 -12.5339 46.9297 -12.0703C46.2995 -11.6068 45.5677 -11.2656 44.7344 -11.0469L44.7344 -10.75"/><path id="shape312" transform="matrix(0.999999944445543 0 0 0.999999944445543 1501.89711187036 166.355900362029)" fill="#000000" fill-rule="evenodd" stroke="#000000" stroke-width="2.88" stroke-linecap="square" stroke-linejoin="miter" stroke-miterlimit="2.16000008583069" d="M0 0L5.02628 9.66376L10.1028 0C5.78654 0 4.31625 0 0 0Z"/><rect id="shape061" transform="matrix(0.999999921626976 0 0 0.999999921626976 1582.55712421913 179.269844764462)" fill="none" stroke="#000000" stroke-width="2.88" stroke-linecap="square" stroke-linejoin="miter" stroke-miterlimit="2.16000008583069" width="64.8031605430267" height="36.0101590138612"/><path id="shape123" transform="matrix(0.999999921626976 0 0 0.999999921626976 1614.94587307969 49.7159106969381)" fill="none" stroke="#000000" stroke-width="2.88" stroke-linecap="square" stroke-linejoin="miter" stroke-miterlimit="2" d="M0 0L0 119.949"/><path id="shape16" transform="matrix(0.999999921626976 0 0 0.999999921626976 1589.14587368838 207.595897129925)" fill="#000000" fill-rule="evenodd" d="M3.96875 -5.57813L13.8906 -9.90625L13.8906 -10.1719L3.96875 -14.5L3.96875 -17.6094L17.5313 -11.4688L17.5313 -8.60938L3.96875 -2.46875L3.96875 -5.57813M17.0313 -5.57813L26.9375 -9.90625L26.9375 -10.1719L17.0313 -14.5L17.0313 -17.6094L30.5938 -11.4688L30.5938 -8.60938L17.0313 -2.46875L17.0313 -5.57813M44.7344 -10.75C45.6823 -10.5833 46.5156 -10.2656 47.2344 -9.79688C47.9531 -9.32813 48.5078 -8.71875 48.8984 -7.96875C49.2891 -7.21875 49.4844 -6.35417 49.4844 -5.375C49.4844 -4.1875 49.2135 -3.16927 48.6719 -2.32031C48.1302 -1.47135 47.3411 -0.825521 46.3047 -0.382813C45.2682 0.0598958 44.0156 0.28125 42.5469 0.28125C38.0052 0.28125 35.7344 -1.69271 35.7344 -5.64063L38.7656 -5.64063C38.7656 -3.43229 39.9896 -2.32813 42.4375 -2.32813C43.7083 -2.32813 44.6979 -2.61979 45.4063 -3.20313C46.1146 -3.78646 46.4688 -4.60938 46.4688 -5.67188C46.4688 -6.83854 45.9401 -7.74219 44.8828 -8.38281C43.8255 -9.02344 42.3333 -9.34375 40.4063 -9.34375L39.9531 -9.34375L39.6094 -11.1875C41.7552 -11.4479 43.3385 -11.9219 44.3594 -12.6094C45.3802 -13.2969 45.8906 -14.1563 45.8906 -15.1875C45.8906 -16 45.6042 -16.6354 45.0313 -17.0938C44.4583 -17.5521 43.6406 -17.7813 42.5781 -17.7813C41.4948 -17.7813 40.6589 -17.5443 40.0703 -17.0703C39.4818 -16.5964 39.1875 -15.9167 39.1875 -15.0313L36.1563 -15.0313C36.1563 -16.1563 36.4193 -17.1198 36.9453 -17.9219C37.4714 -18.724 38.2396 -19.3359 39.25 -19.7578C40.2604 -20.1797 41.474 -20.3906 42.8906 -20.3906C44.8177 -20.3906 46.3047 -20 47.3516 -19.2188C48.3984 -18.4375 48.9219 -17.3281 48.9219 -15.8906C48.9219 -15.1198 48.7474 -14.4063 48.3984 -13.75C48.0495 -13.0938 47.5599 -12.5339 46.9297 -12.0703C46.2995 -11.6068 45.5677 -11.2656 44.7344 -11.0469L44.7344 -10.75"/><path id="shape322" transform="matrix(0.999999921626976 0 0 0.999999921626976 1609.89710524636 166.355900362029)" fill="#000000" fill-rule="evenodd" stroke="#000000" stroke-width="2.88" stroke-linecap="square" stroke-linejoin="miter" stroke-miterlimit="2.16000008583069" d="M0 0L5.02628 9.66376L10.1028 0C5.78654 0 4.31625 0 0 0Z"/><path id="shape071" transform="matrix(0.999999964457704 0 0 0.999999964457704 1290.95465444317 217.475900209393)" fill="none" stroke="#000000" stroke-width="2.88" stroke-linecap="square" stroke-linejoin="miter" stroke-miterlimit="2" d="M0 0L0 119.949"/><path id="shape13" transform="matrix(0.169291406319204 -0.985566004213763 0.985566004213763 0.169291406319204 1259.24775200231 325.962852329766)" fill="#000000" fill-rule="evenodd" stroke="#000000" stroke-width="2.88" stroke-linecap="square" stroke-linejoin="miter" stroke-miterlimit="2.16000008583069" d="M0 0L5.02628 9.66376L10.1028 0C5.78654 0 4.31625 0 0 0Z"/><path id="shape14" transform="matrix(0.999999941639136 0 0 0.999999941639136 1398.95464986528 217.475902870951)" fill="none" stroke="#000000" stroke-width="2.88" stroke-linecap="square" stroke-linejoin="miter" stroke-miterlimit="2" d="M0 0L0 119.949"/><path id="shape1110" transform="matrix(0.999999941639136 0 0 0.999999941639136 1506.95464602672 217.475902870951)" fill="none" stroke="#000000" stroke-width="2.88" stroke-linecap="square" stroke-linejoin="miter" stroke-miterlimit="2" d="M0 0L0 119.949"/><path id="shape124" transform="matrix(0.999999918820568 0 0 0.999999918820568 1614.95463898443 217.475905532509)" fill="none" stroke="#000000" stroke-width="2.88" stroke-linecap="square" stroke-linejoin="miter" stroke-miterlimit="2" d="M0 0L0 119.949"/><path id="shape08" transform="matrix(0.19837627132942 0.980125867491002 -0.980125867491002 0.19837627132942 1614.91983830523 68.2012665752044)" fill="none" stroke="#000000" stroke-width="2.88" stroke-linecap="square" stroke-linejoin="miter" stroke-miterlimit="2" d="M0 0L0 420.257"/><path id="shape09" transform="matrix(0.198376267179769 0.980125846988651 -0.980125846988651 0.198376267179769 1506.42587917469 68.4359035675299)" fill="none" stroke="#000000" stroke-width="2.88" stroke-linecap="square" stroke-linejoin="miter" stroke-miterlimit="2" d="M0 0L0 420.257"/><path id="shape010" transform="matrix(0.198376269264399 0.980125857288269 -0.980125857288269 0.198376269264399 1398.22588271672 68.4359035675277)" fill="none" stroke="#000000" stroke-width="2.88" stroke-linecap="square" stroke-linejoin="miter" stroke-miterlimit="2" d="M0 0L0 420.257"/><path id="shape0114" transform="matrix(0.198376265114749 0.980125836785917 -0.980125836785917 0.198376265114749 1289.50588627575 68.435903567526)" fill="none" stroke="#000000" stroke-width="2.88" stroke-linecap="square" stroke-linejoin="miter" stroke-miterlimit="2" d="M0 0L0 420.257"/><rect id="shape0112" transform="matrix(0.999999944445543 0 0 0.999999944445543 858.248409902538 179.282149940628)" fill="none" stroke="#000000" stroke-width="2.88" stroke-linecap="square" stroke-linejoin="miter" stroke-miterlimit="2.16000008583069" width="357.840033625952" height="35.9978354081498"/><g id="group1" transform="matrix(0.999999967264112 0 0 0.999999967264112 871.898399958637 152.675632418517)" fill="none">
  <path id="shape012" transform="matrix(0.999999969869055 0 0 0.999999969869055 5.05178568707709 0)" fill="none" stroke="#000000" stroke-width="2.88" stroke-linecap="square" stroke-linejoin="miter" stroke-miterlimit="2" d="M0 0L0 17.2544"/>
  <path id="shape013" transform="matrix(0.999999997193592 0 0 0.999999997193592 -2.8421709430404e-14 13.6802683913481)" fill="#000000" fill-rule="evenodd" stroke="#000000" stroke-width="2.88" stroke-linecap="square" stroke-linejoin="miter" stroke-miterlimit="2.16000008583069" d="M0 0L5.02628 9.66376L10.1028 0C5.78654 0 4.31625 0 0 0Z"/>
 </g><g id="group010" transform="matrix(0.999999964457704 0 0 0.999999964457704 980.604646350229 152.66465080987)" fill="none">
  <path id="shape014" transform="matrix(0.999999969869055 0 0 0.999999969869055 5.05178568707714 0)" fill="none" stroke="#000000" stroke-width="2.88" stroke-linecap="square" stroke-linejoin="miter" stroke-miterlimit="2" d="M0 0L0 17.2544"/>
  <path id="shape0113" transform="matrix(0.999999997193592 0 0 0.999999997193592 -5.6843418860808e-14 13.6802683913481)" fill="#000000" fill-rule="evenodd" stroke="#000000" stroke-width="2.88" stroke-linecap="square" stroke-linejoin="miter" stroke-miterlimit="2.16000008583069" d="M0 0L5.02628 9.66376L10.1028 0C5.78654 0 4.31625 0 0 0Z"/>
 </g><g id="group01" transform="matrix(0.999999964457704 0 0 0.999999964457704 1089.32575097834 152.681575705593)" fill="none">
  <path id="shape015" transform="matrix(0.999999969869055 0 0 0.999999969869055 5.05178568707709 2.8421709430404e-14)" fill="none" stroke="#000000" stroke-width="2.88" stroke-linecap="square" stroke-linejoin="miter" stroke-miterlimit="2" d="M0 0L0 17.2544"/>
  <path id="shape0121" transform="matrix(0.999999997193592 0 0 0.999999997193592 -5.6843418860808e-14 13.6802683913481)" fill="#000000" fill-rule="evenodd" stroke="#000000" stroke-width="2.88" stroke-linecap="square" stroke-linejoin="miter" stroke-miterlimit="2.16000008583069" d="M0 0L5.02628 9.66376L10.1028 0C5.78654 0 4.31625 0 0 0Z"/>
 </g><g id="group02" transform="matrix(0.999999964457704 0 0 0.999999964457704 1197.33158327077 152.686864705576)" fill="none">
  <path id="shape016" transform="matrix(0.999999969869055 0 0 0.999999969869055 5.05178568707709 2.8421709430404e-14)" fill="none" stroke="#000000" stroke-width="2.88" stroke-linecap="square" stroke-linejoin="miter" stroke-miterlimit="2" d="M0 0L0 17.2544"/>
  <path id="shape0131" transform="matrix(0.999999997193592 0 0 0.999999997193592 0 13.6802683913481)" fill="#000000" fill-rule="evenodd" stroke="#000000" stroke-width="2.88" stroke-linecap="square" stroke-linejoin="miter" stroke-miterlimit="2.16000008583069" d="M0 0L5.02628 9.66376L10.1028 0C5.78654 0 4.31625 0 0 0Z"/>
 </g><path id="shape17" transform="matrix(0.999999981921931 0 0 0.999999981921931 985.785895923677 207.595899437078)" fill="#000000" fill-rule="evenodd" d="M34.0313 -6.14063L43.9375 -9.90625L43.9375 -10.1719L34.0313 -13.9375L34.0313 -17.0469L47.5938 -11.4688L47.5938 -8.60938L34.0313 -3.03125L34.0313 -6.14063M3.98438 -6.14063L13.8906 -9.90625L13.8906 -10.1719L3.98438 -13.9375L3.98438 -17.0469L17.5469 -11.4688L17.5469 -8.60938L3.98438 -3.03125L3.98438 -6.14063M19.0781 -6.14063L28.9844 -9.90625L28.9844 -10.1719L19.0781 -13.9375L19.0781 -17.0469L32.6406 -11.4688L32.6406 -8.60938L19.0781 -3.03125L19.0781 -6.14063M61.4219 -2.64063L65.8906 -2.64063L65.8906 0L53.4063 0L53.4063 -2.64063L58.4219 -2.64063L58.4219 -17.3281L53.6875 -16.25L53.6875 -18.9688L58.4219 -20.1094L61.4219 -20.1094L61.4219 -2.64063M77.8594 -12.75C79.6094 -12.75 80.9609 -12.2057 81.9141 -11.1172C82.8672 -10.0286 83.3438 -8.49479 83.3438 -6.51563C83.3438 -5.08854 83.0885 -3.86458 82.5781 -2.84375C82.0677 -1.82292 81.3177 -1.04688 80.3281 -0.515625C79.3385 0.015625 78.1458 0.28125 76.75 0.28125C75.25 0.28125 73.9714 -0.0208333 72.9141 -0.625C71.8568 -1.22917 71.0521 -2.10938 70.5 -3.26563C69.9479 -4.42188 69.6719 -5.81771 69.6719 -7.45313L69.6719 -8.125C69.6719 -11.9688 70.6484 -14.8906 72.6016 -16.8906C74.5547 -18.8906 77.526 -19.9896 81.5156 -20.1875L81.7969 -17.5C78.7865 -17.375 76.5391 -16.6458 75.0547 -15.3125C73.5703 -13.9792 72.8229 -12.026 72.8125 -9.45313L73.0625 -9.45313C73.3542 -10.4948 73.9193 -11.3047 74.7578 -11.8828C75.5964 -12.4609 76.6302 -12.75 77.8594 -12.75M76.7813 -2.32813C77.9167 -2.32813 78.7891 -2.69271 79.3984 -3.42188C80.0078 -4.15104 80.3125 -5.18229 80.3125 -6.51563C80.3125 -7.67188 79.9896 -8.5651 79.3438 -9.19531C78.6979 -9.82552 77.776 -10.1406 76.5781 -10.1406C75.3802 -10.1406 74.4531 -9.79948 73.7969 -9.11719C73.1406 -8.4349 72.8125 -7.47396 72.8125 -6.23438C72.8125 -3.63021 74.1354 -2.32813 76.7813 -2.32813M93.5 0.28125C88.9271 0.28125 86.6406 -3.11458 86.6406 -9.90625C86.6406 -16.8958 88.9271 -20.3906 93.5 -20.3906C98.0625 -20.3906 100.344 -16.8958 100.344 -9.90625C100.344 -3.11458 98.0625 0.28125 93.5 0.28125M93.5 -2.32813C96.0417 -2.32813 97.3125 -4.85417 97.3125 -9.90625C97.3125 -15.1563 96.0417 -17.7813 93.5 -17.7813C90.9479 -17.7813 89.6719 -15.1563 89.6719 -9.90625C89.6719 -4.85417 90.9479 -2.32813 93.5 -2.32813M93.6094 -7.78125C93.2344 -7.78125 92.8854 -7.8776 92.5625 -8.07031C92.2396 -8.26302 91.9844 -8.52083 91.7969 -8.84375C91.6094 -9.16667 91.5156 -9.52083 91.5156 -9.90625C91.5156 -10.2917 91.6094 -10.6432 91.7969 -10.9609C91.9844 -11.2786 92.2396 -11.5339 92.5625 -11.7266C92.8854 -11.9193 93.2344 -12.0156 93.6094 -12.0156C93.9948 -12.0156 94.3516 -11.9193 94.6797 -11.7266C95.0078 -11.5339 95.2656 -11.2786 95.4531 -10.9609C95.6406 -10.6432 95.7344 -10.2917 95.7344 -9.90625C95.7344 -9.52083 95.6406 -9.16667 95.4531 -8.84375C95.2656 -8.52083 95.0078 -8.26302 94.6797 -8.07031C94.3516 -7.8776 93.9948 -7.78125 93.6094 -7.78125"/><path id="shape018" transform="matrix(0.198376269264399 -0.980125857288269 0.980125857288269 0.198376269264399 1203.02257815191 243.376507391616)" fill="none" stroke="#000000" stroke-width="2.88" stroke-linecap="square" stroke-linejoin="miter" stroke-miterlimit="2" d="M0 0L0 390.856"/><path id="shape0141" transform="matrix(0.198376265114749 -0.980125836785917 0.980125836785917 0.198376265114749 1094.52862876699 243.141872145656)" fill="none" stroke="#000000" stroke-width="2.88" stroke-linecap="square" stroke-linejoin="miter" stroke-miterlimit="2" d="M0 0L0 392.947"/><path id="shape024" transform="matrix(0.198376267199379 -0.980125847085535 0.980125847085535 0.198376267199379 986.328629106846 243.141871269575)" fill="none" stroke="#000000" stroke-width="2.88" stroke-linecap="square" stroke-linejoin="miter" stroke-miterlimit="2" d="M0 0L0 390.352"/><path id="shape0151" transform="matrix(0.198376263049728 -0.980125826583183 0.980125826583183 0.198376263049728 877.608642413875 243.05187301212)" fill="none" stroke="#000000" stroke-width="2.88" stroke-linecap="square" stroke-linejoin="miter" stroke-miterlimit="2" d="M0 0L0 397.961"/><path id="shape036" transform="matrix(0.999999926723552 0 0 -0.999999926723552 876.957685415378 242.271158219898)" fill="none" stroke="#000000" stroke-width="2.88" stroke-linecap="square" stroke-linejoin="miter" stroke-miterlimit="2" d="M0 0L0 25.5024"/><path id="shape052" transform="matrix(0.999999923917145 0 0 -0.999999923917145 984.95715990379 241.923409905269)" fill="none" stroke="#000000" stroke-width="2.88" stroke-linecap="square" stroke-linejoin="miter" stroke-miterlimit="2" d="M0 0L0 25.768"/><path id="shape062" transform="matrix(0.999999923917145 0 0 -0.999999923917145 1092.95715990379 241.923409905269)" fill="none" stroke="#000000" stroke-width="2.88" stroke-linecap="square" stroke-linejoin="miter" stroke-miterlimit="2" d="M0 0L0 25.751"/><path id="shape072" transform="matrix(0.999999923917145 0 0 -0.999999923917145 1200.95715990379 241.923409905269)" fill="none" stroke="#000000" stroke-width="2.88" stroke-linecap="square" stroke-linejoin="miter" stroke-miterlimit="2" d="M0 0L0 26.0003"/><path id="shape15" transform="matrix(0.999999942208632 0 0 0.999999942208632 1285.8946363938 411.885892325787)" fill="#000000" fill-rule="evenodd" stroke="#000000" stroke-width="2.88" stroke-linecap="square" stroke-linejoin="miter" stroke-miterlimit="2.16000008583069" d="M0 0L5.02628 9.66376L10.1028 0C5.78654 0 4.31625 0 0 0Z"/><path id="shape1111" transform="matrix(0.999999919390064 0 0 0.999999919390064 1398.95464735005 355.155900959005)" fill="none" stroke="#000000" stroke-width="2.88" stroke-linecap="square" stroke-linejoin="miter" stroke-miterlimit="2" d="M0 0L0 57.44"/><path id="shape33" transform="matrix(0.999999919390064 0 0 0.999999919390064 1393.89462952821 411.885892325783)" fill="#000000" fill-rule="evenodd" stroke="#000000" stroke-width="2.88" stroke-linecap="square" stroke-linejoin="miter" stroke-miterlimit="2.16000008583069" d="M0 0L5.02628 9.66376L10.1028 0C5.78654 0 4.31625 0 0 0Z"/><path id="shape1121" transform="matrix(0.999999919390064 0 0 0.999999919390064 1506.94339110882 355.234650957395)" fill="none" stroke="#000000" stroke-width="2.88" stroke-linecap="square" stroke-linejoin="miter" stroke-miterlimit="2" d="M0 0L0 57.3683"/><path id="shape313" transform="matrix(0.999999919390064 0 0 0.999999919390064 1501.89462328674 411.885892325783)" fill="#000000" fill-rule="evenodd" stroke="#000000" stroke-width="2.88" stroke-linecap="square" stroke-linejoin="miter" stroke-miterlimit="2.16000008583069" d="M0 0L5.02628 9.66376L10.1028 0C5.78654 0 4.31625 0 0 0Z"/><path id="shape323" transform="matrix(0.999999896571498 0 0 0.999999896571498 1609.89461395676 411.885892325787)" fill="#000000" fill-rule="evenodd" stroke="#000000" stroke-width="2.88" stroke-linecap="square" stroke-linejoin="miter" stroke-miterlimit="2.16000008583069" d="M0 0L5.02628 9.66376L10.1028 0C5.78654 0 4.31625 0 0 0Z"/><g id="group03" transform="matrix(0.999999959229552 0 0 0.999999959229552 1380.94900265984 317.521348957331)" fill="none">
  <rect id="shape020" transform="matrix(0.999999977181431 0 0 0.999999977181431 0 -5.6843418860808e-14)" fill="none" stroke="#000000" stroke-width="2.88" stroke-linecap="square" stroke-linejoin="miter" stroke-miterlimit="2.16000008583069" width="36" height="36"/>
  <path id="shape017" transform="matrix(0.999999958078448 0 0 0.999999958078448 17.9999999999998 1.44000000000005)" fill="none" stroke="#000000" stroke-width="2.88" stroke-linecap="square" stroke-linejoin="miter" stroke-miterlimit="2" d="M0 0L0 33.8553"/>
  <path id="shape021" transform="matrix(-1 0 0 1 34.5600000000002 17.9999999999999)" fill="none" stroke="#000000" stroke-width="2.88" stroke-linecap="square" stroke-linejoin="miter" stroke-miterlimit="2" d="M0 0L33.1583 0"/>
 </g><path id="shape16" transform="matrix(0.169291404959023 -0.985565996295174 0.985565996295174 0.169291404959023 1367.23213373072 325.97162160839)" fill="#000000" fill-rule="evenodd" stroke="#000000" stroke-width="2.88" stroke-linecap="square" stroke-linejoin="miter" stroke-miterlimit="2.16000008583069" d="M0 0L5.02628 9.66376L10.1028 0C5.78654 0 4.31625 0 0 0Z"/><g id="group04" transform="matrix(0.999999952431416 0 0 0.999999952431416 1488.95831883398 317.521348948473)" fill="none">
  <rect id="shape022" transform="matrix(0.999999977181431 0 0 0.999999977181431 -1.13686837721616e-13 0)" fill="none" stroke="#000000" stroke-width="2.88" stroke-linecap="square" stroke-linejoin="miter" stroke-miterlimit="2.16000008583069" width="36" height="36"/>
  <path id="shape0181" transform="matrix(0.999999958078448 0 0 0.999999958078448 17.9999999999999 1.43999999999994)" fill="none" stroke="#000000" stroke-width="2.88" stroke-linecap="square" stroke-linejoin="miter" stroke-miterlimit="2" d="M0 0L0 33.8553"/>
  <path id="shape023" transform="matrix(-1 0 0 1 34.5600000000001 18)" fill="none" stroke="#000000" stroke-width="2.88" stroke-linecap="square" stroke-linejoin="miter" stroke-miterlimit="2" d="M0 0L33.1583 0"/>
 </g><path id="shape17" transform="matrix(0.169291403808156 -0.985565989595162 0.985565989595162 0.169291403808156 1475.22088019518 325.982871540069)" fill="#000000" fill-rule="evenodd" stroke="#000000" stroke-width="2.88" stroke-linecap="square" stroke-linejoin="miter" stroke-miterlimit="2.16000008583069" d="M0 0L5.02628 9.66376L10.1028 0C5.78654 0 4.31625 0 0 0Z"/><g id="group05" transform="matrix(0.999999944396856 0 0 0.999999944396856 1596.96712904458 317.530118296615)" fill="none">
  <rect id="shape0221" transform="matrix(0.999999977181431 0 0 0.999999977181431 0 -5.6843418860808e-14)" fill="none" stroke="#000000" stroke-width="2.88" stroke-linecap="square" stroke-linejoin="miter" stroke-miterlimit="2.16000008583069" width="36" height="36"/>
  <path id="shape019" transform="matrix(0.999999958078448 0 0 0.999999958078448 18 1.44000000000005)" fill="none" stroke="#000000" stroke-width="2.88" stroke-linecap="square" stroke-linejoin="miter" stroke-miterlimit="2" d="M0 0L0 33.8553"/>
  <path id="shape0311" transform="matrix(-1 0 0 1 34.5600000000003 17.9999999999999)" fill="none" stroke="#000000" stroke-width="2.88" stroke-linecap="square" stroke-linejoin="miter" stroke-miterlimit="2" d="M0 0L33.1583 0"/>
 </g><path id="shape1131" transform="matrix(0.169291402447973 -0.985565981676569 0.985565981676569 0.169291402447973 1583.20526032189 325.991640818563)" fill="#000000" fill-rule="evenodd" stroke="#000000" stroke-width="2.88" stroke-linecap="square" stroke-linejoin="miter" stroke-miterlimit="2.16000008583069" d="M0 0L5.02628 9.66376L10.1028 0C5.78654 0 4.31625 0 0 0Z"/><path id="shape114" transform="matrix(0.999999905934343 0 0 0.999999905934343 1290.94588622862 354.444644208413)" fill="none" stroke="#000000" stroke-width="2.88" stroke-linecap="square" stroke-linejoin="miter" stroke-miterlimit="2" d="M0 0L0 58.1512"/><path id="shape115" transform="matrix(0.99999989527474 0 0 0.99999989527474 1614.94587562219 355.232144179366)" fill="none" stroke="#000000" stroke-width="2.88" stroke-linecap="square" stroke-linejoin="miter" stroke-miterlimit="2" d="M0 0L0 57.3683"/><path id="shape18" transform="matrix(0.999999996579751 0 0 0.999999996579751 1361.15588808656 40.2759098204422)" fill="#000000" fill-rule="evenodd" d="M8.5 0.28125C3.55208 0.28125 1.07813 -3.11458 1.07813 -9.90625C1.07813 -16.8958 3.55208 -20.3906 8.5 -20.3906C13.4479 -20.3906 15.9219 -16.8958 15.9219 -9.90625C15.9219 -3.11458 13.4479 0.28125 8.5 0.28125M8.5 -2.32813C11.4583 -2.32813 12.9375 -4.85417 12.9375 -9.90625C12.9375 -15.1563 11.4583 -17.7813 8.5 -17.7813C5.53125 -17.7813 4.04688 -15.1563 4.04688 -9.90625C4.04688 -4.85417 5.53125 -2.32813 8.5 -2.32813M32.5781 -2.6875L32.5781 0L19.2656 0L19.2656 -20.1094L22.0938 -20.1094L22.0938 -2.6875L32.5781 -2.6875M41.1406 -20.1094C44.2135 -20.1094 46.5156 -19.2266 48.0469 -17.4609C49.5781 -15.6953 50.3438 -13.0365 50.3438 -9.48438C50.3438 -6.31771 49.5781 -3.94531 48.0469 -2.36719C46.5156 -0.789063 44.2135 0 41.1406 0L36.2656 0L36.2656 -20.1094L41.1406 -20.1094M41.1406 -2.6875C43.2031 -2.6875 44.7578 -3.27865 45.8047 -4.46094C46.8516 -5.64323 47.375 -7.41146 47.375 -9.76563C47.375 -14.8698 45.2969 -17.4219 41.1406 -17.4219L39.0938 -17.4219L39.0938 -2.6875L41.1406 -2.6875M78.3438 -10.9375C79.8854 -10.2083 81.0286 -9.39844 81.7734 -8.50781C82.5182 -7.61719 82.8906 -6.51042 82.8906 -5.1875C82.8906 -3.3125 82.2995 -1.90885 81.1172 -0.976563C79.9349 -0.0442708 78.1406 0.421875 75.7344 0.421875C73.4531 0.421875 71.4583 0.0520833 69.75 -0.6875L70.125 -3.42188C72.2188 -2.59896 74.1615 -2.1875 75.9531 -2.1875C77.2656 -2.1875 78.2448 -2.42969 78.8906 -2.91406C79.5365 -3.39844 79.8594 -4.13542 79.8594 -5.125C79.8594 -6.32292 79.25 -7.20313 78.0313 -7.76563L74.5469 -9.34375C73.1302 -9.98958 72.0677 -10.7552 71.3594 -11.6406C70.651 -12.526 70.2969 -13.6042 70.2969 -14.875C70.2969 -16.0313 70.5469 -17.0234 71.0469 -17.8516C71.5469 -18.6797 72.2734 -19.3099 73.2266 -19.7422C74.1797 -20.1745 75.3281 -20.3906 76.6719 -20.3906C77.8802 -20.3906 78.9141 -20.2031 79.7734 -19.8281C80.6328 -19.4531 81.2891 -18.9089 81.7422 -18.1953C82.1953 -17.4818 82.4219 -16.6198 82.4219 -15.6094L79.6406 -15.6094C79.6406 -16.3073 79.3802 -16.8438 78.8594 -17.2188C78.3385 -17.5938 77.6094 -17.7813 76.6719 -17.7813C75.6094 -17.7813 74.7865 -17.5391 74.2031 -17.0547C73.6198 -16.5703 73.3281 -15.8906 73.3281 -15.0156C73.3281 -14.3802 73.4948 -13.8568 73.8281 -13.4453C74.1615 -13.0339 74.6823 -12.6563 75.3906 -12.3125L78.3438 -10.9375M100.859 -17.4219L94.9063 -17.4219L94.9063 0L92.0781 0L92.0781 -17.4219L86.1406 -17.4219L86.1406 -20.1094L100.859 -20.1094L100.859 -17.4219M114.016 -4.90625L106.891 -4.90625L105.563 0L102.594 0L108.406 -20.1094L112.5 -20.1094L118.313 0L115.344 0L114.016 -4.90625M113.297 -7.59375L110.578 -17.6719L110.328 -17.6719L107.609 -7.59375L113.297 -7.59375M134.859 -17.4219L128.906 -17.4219L128.906 0L126.078 0L126.078 -17.4219L120.141 -17.4219L120.141 -20.1094L134.859 -20.1094L134.859 -17.4219M141.094 -17.4219L141.094 -11.4063L149.031 -11.4063L149.031 -8.71875L141.094 -8.71875L141.094 -2.6875L151.578 -2.6875L151.578 0L138.266 0L138.266 -20.1094L151.578 -20.1094L151.578 -17.4219L141.094 -17.4219M185.516 -2.64063L185.516 0L172.438 0L172.438 -3.17188C175.5 -4.85938 177.799 -6.6276 179.336 -8.47656C180.872 -10.3255 181.641 -12.2292 181.641 -14.1875C181.641 -16.5833 180.469 -17.7813 178.125 -17.7813C177.177 -17.7813 176.445 -17.5443 175.93 -17.0703C175.414 -16.5964 175.156 -15.9167 175.156 -15.0313L172.125 -15.0313C172.125 -16.1563 172.367 -17.1198 172.852 -17.9219C173.336 -18.724 174.044 -19.3359 174.977 -19.7578C175.909 -20.1797 177.026 -20.3906 178.328 -20.3906C180.443 -20.3906 182.029 -19.888 183.086 -18.8828C184.143 -17.8776 184.672 -16.3594 184.672 -14.3281C184.672 -12.276 184.026 -10.3151 182.734 -8.44531C181.443 -6.57552 179.484 -4.78125 176.859 -3.0625L176.859 -2.64063L185.516 -2.64063"/><path id="shape19" transform="matrix(1.0000000133763 0 0 1.0000000133763 1364.69590041677 452.825895738809)" fill="#000000" fill-rule="evenodd" d="M12.1719 -20.1094L14.8906 -20.1094L14.8906 0L11.3281 0L5.09375 -14.875L4.8125 -14.875L4.8125 0L2.09375 0L2.09375 -20.1094L5.67188 -20.1094L11.8906 -4.5625L12.1719 -4.5625L12.1719 -20.1094M22.0938 -17.4219L22.0938 -11.4063L30.0313 -11.4063L30.0313 -8.71875L22.0938 -8.71875L22.0938 -2.6875L32.5781 -2.6875L32.5781 0L19.2656 0L19.2656 -20.1094L32.5781 -20.1094L32.5781 -17.4219L22.0938 -17.4219M48.0156 -20.1094L50.7031 -20.1094L48.7344 0.28125L44.1406 0.28125L42.5781 -11.3594L42.4063 -11.3594L40.8594 0.28125L36.2656 0.28125L34.2813 -20.1094L36.9688 -20.1094L38.6719 -1.98438L38.9531 -1.98438L41.0313 -14.1563L44 -14.1563L46.0313 -1.98438L46.3125 -1.98438L48.0156 -20.1094M78.3438 -10.9375C79.8854 -10.2083 81.0286 -9.39844 81.7734 -8.50781C82.5182 -7.61719 82.8906 -6.51042 82.8906 -5.1875C82.8906 -3.3125 82.2995 -1.90885 81.1172 -0.976563C79.9349 -0.0442708 78.1406 0.421875 75.7344 0.421875C73.4531 0.421875 71.4583 0.0520833 69.75 -0.6875L70.125 -3.42188C72.2188 -2.59896 74.1615 -2.1875 75.9531 -2.1875C77.2656 -2.1875 78.2448 -2.42969 78.8906 -2.91406C79.5365 -3.39844 79.8594 -4.13542 79.8594 -5.125C79.8594 -6.32292 79.25 -7.20313 78.0313 -7.76563L74.5469 -9.34375C73.1302 -9.98958 72.0677 -10.7552 71.3594 -11.6406C70.651 -12.526 70.2969 -13.6042 70.2969 -14.875C70.2969 -16.0313 70.5469 -17.0234 71.0469 -17.8516C71.5469 -18.6797 72.2734 -19.3099 73.2266 -19.7422C74.1797 -20.1745 75.3281 -20.3906 76.6719 -20.3906C77.8802 -20.3906 78.9141 -20.2031 79.7734 -19.8281C80.6328 -19.4531 81.2891 -18.9089 81.7422 -18.1953C82.1953 -17.4818 82.4219 -16.6198 82.4219 -15.6094L79.6406 -15.6094C79.6406 -16.3073 79.3802 -16.8438 78.8594 -17.2188C78.3385 -17.5938 77.6094 -17.7813 76.6719 -17.7813C75.6094 -17.7813 74.7865 -17.5391 74.2031 -17.0547C73.6198 -16.5703 73.3281 -15.8906 73.3281 -15.0156C73.3281 -14.3802 73.4948 -13.8568 73.8281 -13.4453C74.1615 -13.0339 74.6823 -12.6563 75.3906 -12.3125L78.3438 -10.9375M100.859 -17.4219L94.9063 -17.4219L94.9063 0L92.0781 0L92.0781 -17.4219L86.1406 -17.4219L86.1406 -20.1094L100.859 -20.1094L100.859 -17.4219M114.016 -4.90625L106.891 -4.90625L105.563 0L102.594 0L108.406 -20.1094L112.5 -20.1094L118.313 0L115.344 0L114.016 -4.90625M113.297 -7.59375L110.578 -17.6719L110.328 -17.6719L107.609 -7.59375L113.297 -7.59375M134.859 -17.4219L128.906 -17.4219L128.906 0L126.078 0L126.078 -17.4219L120.141 -17.4219L120.141 -20.1094L134.859 -20.1094L134.859 -17.4219M141.094 -17.4219L141.094 -11.4063L149.031 -11.4063L149.031 -8.71875L141.094 -8.71875L141.094 -2.6875L151.578 -2.6875L151.578 0L138.266 0L138.266 -20.1094L151.578 -20.1094L151.578 -17.4219L141.094 -17.4219M185.516 -2.64063L185.516 0L172.438 0L172.438 -3.17188C175.5 -4.85938 177.799 -6.6276 179.336 -8.47656C180.872 -10.3255 181.641 -12.2292 181.641 -14.1875C181.641 -16.5833 180.469 -17.7813 178.125 -17.7813C177.177 -17.7813 176.445 -17.5443 175.93 -17.0703C175.414 -16.5964 175.156 -15.9167 175.156 -15.0313L172.125 -15.0313C172.125 -16.1563 172.367 -17.1198 172.852 -17.9219C173.336 -18.724 174.044 -19.3359 174.977 -19.7578C175.909 -20.1797 177.026 -20.3906 178.328 -20.3906C180.443 -20.3906 182.029 -19.888 183.086 -18.8828C184.143 -17.8776 184.672 -16.3594 184.672 -14.3281C184.672 -12.276 184.026 -10.3151 182.734 -8.44531C181.443 -6.57552 179.484 -4.78125 176.859 -3.0625L176.859 -2.64063L185.516 -2.64063"/><path id="shape112" transform="matrix(0.999999904207406 0 0 0.999999904207406 871.917159903787 303.843409905273)" fill="#000000" fill-rule="evenodd" stroke="#000000" stroke-width="2.88" stroke-linecap="square" stroke-linejoin="miter" stroke-miterlimit="2.16000008583069" d="M0 0L5.02628 9.66376L10.1028 0C5.78654 0 4.31625 0 0 0Z"/><path id="shape1111" transform="matrix(0.999999881388839 0 0 0.999999881388839 984.977166563623 242.674666628833)" fill="none" stroke="#000000" stroke-width="2.88" stroke-linecap="square" stroke-linejoin="miter" stroke-miterlimit="2" d="M0 0L0 59.4588"/><path id="shape36" transform="matrix(0.999999881388839 0 0 0.999999881388839 979.917148934072 303.84340990527)" fill="#000000" fill-rule="evenodd" stroke="#000000" stroke-width="2.88" stroke-linecap="square" stroke-linejoin="miter" stroke-miterlimit="2.16000008583069" d="M0 0L5.02628 9.66376L10.1028 0C5.78654 0 4.31625 0 0 0Z"/><path id="shape1112" transform="matrix(0.999999881388839 0 0 0.999999881388839 1092.96590621869 242.75341662423)" fill="none" stroke="#000000" stroke-width="2.88" stroke-linecap="square" stroke-linejoin="miter" stroke-miterlimit="2" d="M0 0L0 59.695"/><path id="shape314" transform="matrix(0.999999881388839 0 0 0.999999881388839 1087.91713858847 303.84340990527)" fill="#000000" fill-rule="evenodd" stroke="#000000" stroke-width="2.88" stroke-linecap="square" stroke-linejoin="miter" stroke-miterlimit="2.16000008583069" d="M0 0L5.02628 9.66376L10.1028 0C5.78654 0 4.31625 0 0 0Z"/><path id="shape324" transform="matrix(0.999999858570274 0 0 0.999999858570274 1195.91712515436 303.843409905274)" fill="#000000" fill-rule="evenodd" stroke="#000000" stroke-width="2.88" stroke-linecap="square" stroke-linejoin="miter" stroke-miterlimit="2.16000008583069" d="M0 0L5.02628 9.66376L10.1028 0C5.78654 0 4.31625 0 0 0Z"/><path id="shape1122" transform="matrix(0.999999867933118 0 0 0.999999867933118 876.968409546652 241.963409905269)" fill="none" stroke="#000000" stroke-width="2.88" stroke-linecap="square" stroke-linejoin="miter" stroke-miterlimit="2" d="M0 0L0 59.9"/><path id="shape1132" transform="matrix(0.999999857273516 0 0 0.999999857273516 1200.96838662783 242.750909846296)" fill="none" stroke="#000000" stroke-width="2.88" stroke-linecap="square" stroke-linejoin="miter" stroke-miterlimit="2" d="M0 0L0 59.9625"/>
</svg>
