<?xml version="1.0" standalone="no"?>
<!DOCTYPE svg PUBLIC "-//W3C//DTD SVG 20010904//EN" "http://www.w3.org/TR/2001/REC-SVG-20010904/DTD/svg10.dtd">
<!-- Created using Krita: http://krita.org -->
<svg xmlns="http://www.w3.org/2000/svg" 
    xmlns:xlink="http://www.w3.org/1999/xlink"
    xmlns:krita="http://krita.org/namespaces/svg/krita"
    xmlns:sodipodi="http://sodipodi.sourceforge.net/DTD/sodipodi-0.dtd"
    width="518.4pt"
    height="410.4pt"
    viewBox="0 0 518.4 410.4">
<defs/>
<g id="group01" transform="matrix(0.99999982658441 0 0 0.99999982658441 7.19999966091582 11.0621132680824)" fill="none">
  <path id="shape08" fill="none" stroke="#003052" stroke-width="5.76" stroke-linecap="square" stroke-linejoin="bevel" d="M218.88 49.68C218.88 22.2425 169.882 1.68006e-15 109.44 0C48.998 -1.68006e-15 7.40202e-15 22.2425 0 49.68C-7.40202e-15 77.1175 48.998 99.36 109.44 99.36C169.882 99.36 218.88 77.1175 218.88 49.68Z"/>
  <path id="shape16" transform="translate(29.3187500000004, 27.1150000000001)" fill="#003052" fill-rule="evenodd" d="M23.5313 1.75C24.1146 4.6875 24.5001 7.4375 24.6876 10C24.3751 10.25 23.8958 10.375 23.2501 10.375C21.4583 4.4792 18.0833 1.5417 13.125 1.5625C11.2917 1.5625 9.64585 2.3958 8.1875 4.0625C6.72917 5.7292 6 7.4896 6 9.3437C6 10.3437 6.23438 11.2969 6.70313 12.2031C7.17188 13.1094 7.71354 13.8594 8.32815 14.4531C8.94275 15.0469 9.77605 15.6458 10.8282 16.25C11.8803 16.8542 12.7343 17.3021 13.3907 17.5937C14.0469 17.8854 14.9167 18.2396 16.0001 18.6562C17.0833 19.0729 17.7292 19.3229 17.9376 19.4062C20.6458 20.5729 22.7813 21.9896 24.3438 23.6562C25.9063 25.3229 26.6876 27.5521 26.6876 30.3437C26.6876 32.3646 26.1458 34.3021 25.0626 36.1563C23.9792 38.0104 22.5208 39.5104 20.6876 40.6563C18.4376 42.0521 15.8021 42.75 12.7813 42.75C10.7605 42.75 8.64065 42.5052 6.42188 42.0156C4.20313 41.526 2.48958 41.2813 1.28125 41.2813C0.63542 38.5938 0.20833 35.3542 0 31.5625C0.375 31.375 0.59896 31.2708 0.67188 31.25C0.74479 31.2292 1 31.2708 1.4375 31.375C2.125 34.5208 3.52083 36.9271 5.625 38.5938C7.72917 40.2604 10.2917 41.0938 13.3125 41.0938C15.8333 41.0938 17.8178 40.3281 19.2657 38.7969C20.7136 37.2656 21.4376 35.1979 21.4376 32.5938C21.4376 31.4271 21.2501 30.3542 20.8751 29.375C20.5001 28.3958 20.0833 27.6042 19.6251 27C19.1667 26.3958 18.4843 25.8021 17.5782 25.2187C16.6718 24.6354 15.9428 24.2187 15.3907 23.9687C14.8386 23.7187 14.0157 23.3802 12.9219 22.9531C11.8282 22.526 11.1145 22.2396 10.7813 22.0937C7.88542 20.8229 5.61979 19.3542 3.98438 17.6875C2.34896 16.0208 1.53125 13.8229 1.53125 11.0937C1.53125 7.8021 2.72396 5.1302 5.10938 3.0781C7.49479 1.026 10.3645 0 13.7188 0C16.1563 0 18.2553 0.2708 20.0157 0.8125C21.7761 1.3542 22.9479 1.6667 23.5313 1.75M32.2813 15.9375L35.0938 15.9375C35.0938 13.9375 35.0834 12.3073 35.0626 11.0469C35.0416 9.7865 35.0104 8.9115 34.9688 8.4219C34.9271 7.9323 34.9063 7.6458 34.9063 7.5625C34.9063 7.3542 34.9948 7.1979 35.1718 7.0937C35.349 6.9896 35.651 6.8698 36.0782 6.7344C36.5052 6.599 36.8229 6.4896 37.0313 6.4062C37.2813 6.3229 37.5782 6.1875 37.9218 6C38.2657 5.8125 38.5626 5.651 38.8126 5.5156C39.0626 5.3802 39.2604 5.3125 39.4063 5.3125C39.6979 5.3125 39.8438 5.5104 39.8438 5.9062C39.7188 7.5312 39.6354 9.6667 39.5938 12.3125L39.5313 15.9375L46.8751 15.9375C47.1666 15.9375 47.3229 16.0729 47.3438 16.3437L47.3438 17.0312C47.3438 17.5521 46.8438 17.8125 45.8438 17.8125L39.5313 17.8125C39.1979 25.5417 39.0834 31.0625 39.1876 34.375C39.2709 36.4583 39.4427 37.9167 39.7032 38.75C39.9635 39.5833 40.4791 40 41.2501 40C42.9584 40 44.7709 39.2813 46.6876 37.8438C47.0209 37.9271 47.2396 38.2188 47.3438 38.7188C44.9479 41.4063 42.1876 42.75 39.0626 42.75C36.2084 42.75 34.7813 40.7292 34.7813 36.6875C34.7813 35.5833 34.8334 32.7135 34.9376 28.0781C35.0416 23.4427 35.0938 20.0208 35.0938 17.8125L31.5313 17.8125C31.3229 17.8125 31.2084 17.6771 31.1876 17.4062L31.1876 16.8437C31.1876 16.2396 31.5521 15.9375 32.2813 15.9375M67.0313 28.5625L61.7813 29.8437C59.6979 30.3646 58.1563 31.2187 57.1563 32.4063C56.1563 33.5938 55.6563 34.875 55.6563 36.25C55.6563 37.3542 56.0885 38.3958 56.9532 39.375C57.8177 40.3542 58.9584 40.8438 60.3751 40.8438C60.6251 40.8438 60.9218 40.7917 61.2657 40.6875C61.6093 40.5833 61.9115 40.4688 62.1718 40.3438C62.4322 40.2188 62.776 40.0052 63.2031 39.7031C63.6303 39.401 63.9376 39.1771 64.1251 39.0313C64.3126 38.8854 64.6303 38.6302 65.0781 38.2656C65.526 37.901 65.7917 37.6771 65.8751 37.5938C66.3958 37.2188 66.677 36.6979 66.7188 36.0313L67.0313 28.5625M66.7188 39.1875L66.5938 39.1875L65.3751 40.1563C64.0001 41.2188 62.8645 41.9167 61.9688 42.25C61.0729 42.5833 59.9479 42.75 58.5938 42.75C53.5104 42.75 50.9688 40.6667 50.9688 36.5C50.9688 34.4583 51.8854 32.6875 53.7188 31.1875C55.5521 29.6875 57.9896 28.5937 61.0313 27.9062L66.7813 26.625C66.9895 26.5417 67.0938 26.0937 67.0938 25.2812C67.0938 22.1562 66.6145 19.9479 65.6563 18.6562C64.698 17.3646 63.5781 16.7187 62.2969 16.7187C61.0157 16.7187 59.8751 16.974 58.8751 17.4844C57.8751 17.9948 57.3751 18.6979 57.3751 19.5937C57.3751 20.1562 57.4166 20.5625 57.5001 20.8125C57.6251 21.0625 57.6876 21.4219 57.6876 21.8906C57.6876 22.3594 57.4218 22.875 56.8907 23.4375C56.3593 24 55.6876 24.2812 54.8751 24.2812C54.1459 24.2812 53.5573 24.0469 53.1093 23.5781C52.6615 23.1094 52.4376 22.5104 52.4376 21.7812C52.4376 20.1562 53.5365 18.6719 55.7343 17.3281C57.9323 15.9844 60.2916 15.3125 62.8126 15.3125C68.8751 15.3125 71.7708 18.7708 71.5001 25.6875L71.1876 34.75C71.1042 36.6667 71.2344 38.0573 71.5781 38.9219C71.9219 39.7865 72.6458 40.2188 73.7501 40.2188C74.2708 40.2188 74.698 40.0469 75.0313 39.7031C75.3645 39.3594 75.552 39.1875 75.5938 39.1875C75.7605 39.1875 75.9531 39.2708 76.1719 39.4375C76.3906 39.6042 76.5001 39.7917 76.5001 40C76.5001 40.125 76.2865 40.4063 75.8594 40.8438C75.4322 41.2813 74.7917 41.7083 73.9376 42.125C73.0833 42.5417 72.2083 42.75 71.3126 42.75C68.9792 42.7708 67.448 41.5833 66.7188 39.1875M80.2813 15.9375L83.0938 15.9375C83.0938 13.9375 83.0833 12.3073 83.0626 11.0469C83.0417 9.7865 83.0105 8.9115 82.9688 8.4219C82.927 7.9323 82.9063 7.6458 82.9063 7.5625C82.9063 7.3542 82.9947 7.1979 83.1719 7.0937C83.349 6.9896 83.651 6.8698 84.0781 6.7344C84.5053 6.599 84.823 6.4896 85.0313 6.4062C85.2813 6.3229 85.5781 6.1875 85.9219 6C86.2656 5.8125 86.5626 5.651 86.8126 5.5156C87.0626 5.3802 87.2605 5.3125 87.4063 5.3125C87.698 5.3125 87.8438 5.5104 87.8438 5.9062C87.7188 7.5312 87.6355 9.6667 87.5938 12.3125L87.5313 15.9375L94.8751 15.9375C95.1667 15.9375 95.323 16.0729 95.3438 16.3437L95.3438 17.0312C95.3438 17.5521 94.8438 17.8125 93.8438 17.8125L87.5313 17.8125C87.198 25.5417 87.0833 31.0625 87.1876 34.375C87.2708 36.4583 87.4428 37.9167 87.7031 38.75C87.9635 39.5833 88.4792 40 89.2501 40C90.9583 40 92.7708 39.2813 94.6876 37.8438C95.0208 37.9271 95.2395 38.2188 95.3438 38.7188C92.948 41.4063 90.1876 42.75 87.0626 42.75C84.2083 42.75 82.7813 40.7292 82.7813 36.6875C82.7813 35.5833 82.8333 32.7135 82.9376 28.0781C83.0417 23.4427 83.0938 20.0208 83.0938 17.8125L79.5313 17.8125C79.323 17.8125 79.2083 17.6771 79.1876 17.4062L79.1876 16.8437C79.1876 16.2396 79.552 15.9375 80.2813 15.9375M103.562 25.5625L115.937 25.2187C116.541 25.2187 116.833 24.9479 116.812 24.4062C116.812 21.9687 116.25 20.0885 115.125 18.7656C114 17.4427 112.646 16.7812 111.062 16.7812C109.562 16.7812 108.067 17.4792 106.578 18.875C105.088 20.2708 104.083 22.5 103.562 25.5625M120.469 36.4375C121.156 36.4792 121.583 36.8125 121.75 37.4375C119.062 40.9792 115.5 42.75 111.062 42.75C106.791 42.75 103.573 41.4583 101.406 38.875C99.4892 36.6667 98.5313 33.6354 98.5313 29.7812C98.5313 25.4271 99.8333 21.9271 102.437 19.2812C105.041 16.6354 107.916 15.3125 111.062 15.3125C114.937 15.3125 117.677 16.349 119.281 18.4219C120.885 20.4948 121.687 23.0417 121.687 26.0625C121.687 26.7917 121.302 27.1562 120.531 27.1562L103.375 27.4062C103.375 31.0312 104.021 33.8854 105.312 35.9688C106.208 37.4271 107.338 38.5313 108.703 39.2813C110.067 40.0313 111.364 40.4063 112.594 40.4063C114.219 40.4063 115.62 40.0729 116.797 39.4063C117.974 38.7396 119.198 37.75 120.469 36.4375M158.531 35.1563C158.614 37.7188 158.974 39.3073 159.609 39.9219C160.245 40.5365 161.739 40.8854 164.094 40.9688C164.26 41.1354 164.344 41.3698 164.344 41.6719C164.344 41.974 164.26 42.2292 164.094 42.4375C163.114 42.4375 161.864 42.3854 160.344 42.2813C158.823 42.1771 157.531 42.125 156.469 42.125C155.323 42.125 153.916 42.1771 152.25 42.2813C150.583 42.3854 149.302 42.4375 148.406 42.4375C147.927 41.9583 147.927 41.4688 148.406 40.9688C150.76 40.8854 152.255 40.5365 152.89 39.9219C153.526 39.3073 153.885 37.7188 153.969 35.1563C154.031 33.2396 154.062 29.6042 154.062 24.25C154.062 18.6875 154.031 14.9375 153.969 13C153.885 10.5208 153.458 9.2812 152.687 9.2812C151.541 9.2812 149.687 9.8229 147.125 10.9062C146.562 10.5312 146.239 10.0625 146.156 9.5C151.614 6.9792 155.739 4.8437 158.531 3.0937C158.781 3.0937 158.906 3.1979 158.906 3.4062C158.823 4.0937 158.698 6.9479 158.531 11.9687C158.469 13.8854 158.437 17.75 158.437 23.5625C158.437 29.375 158.469 33.2396 158.531 35.1563"/>
 </g><g id="group11" transform="matrix(0.99999982658441 0 0 0.99999982658441 7.20000514344513 200.422082918884)" fill="none">
  <path id="shape09" transform="matrix(0.999999949903797 0 0 0.999999949903797 0 -2.8421709430404e-14)" fill="none" stroke="#003052" stroke-width="5.76" stroke-linecap="square" stroke-linejoin="bevel" d="M218.88 49.68C218.88 22.2425 169.882 1.68006e-15 109.44 0C48.998 -1.68006e-15 7.40202e-15 22.2425 0 49.68C-7.40202e-15 77.1175 48.998 99.36 109.44 99.36C169.882 99.36 218.88 77.1175 218.88 49.68Z"/>
  <path id="shape21" transform="matrix(0.999999949903797 0 0 0.999999949903797 29.3187485312419 27.1149986416415)" fill="#003052" fill-rule="evenodd" d="M23.5313 1.75C24.1146 4.6875 24.5001 7.4375 24.6876 10C24.3751 10.25 23.8958 10.375 23.2501 10.375C21.4583 4.4792 18.0833 1.5417 13.125 1.5625C11.2917 1.5625 9.64585 2.3958 8.1875 4.0625C6.72917 5.7292 6 7.4896 6 9.3437C6 10.3437 6.23438 11.2969 6.70313 12.2031C7.17188 13.1094 7.71354 13.8594 8.32815 14.4531C8.94275 15.0469 9.77605 15.6458 10.8282 16.25C11.8803 16.8542 12.7343 17.3021 13.3907 17.5937C14.0469 17.8854 14.9167 18.2396 16.0001 18.6562C17.0833 19.0729 17.7292 19.3229 17.9376 19.4062C20.6458 20.5729 22.7813 21.9896 24.3438 23.6562C25.9063 25.3229 26.6876 27.5521 26.6876 30.3437C26.6876 32.3646 26.1458 34.3021 25.0626 36.1563C23.9792 38.0104 22.5208 39.5104 20.6876 40.6563C18.4376 42.0521 15.8021 42.75 12.7813 42.75C10.7605 42.75 8.64065 42.5052 6.42188 42.0156C4.20313 41.526 2.48958 41.2813 1.28125 41.2813C0.63542 38.5938 0.20833 35.3542 0 31.5625C0.375 31.375 0.59896 31.2708 0.67188 31.25C0.74479 31.2292 1 31.2708 1.4375 31.375C2.125 34.5208 3.52083 36.9271 5.625 38.5938C7.72917 40.2604 10.2917 41.0938 13.3125 41.0938C15.8333 41.0938 17.8178 40.3281 19.2657 38.7969C20.7136 37.2656 21.4376 35.1979 21.4376 32.5938C21.4376 31.4271 21.2501 30.3542 20.8751 29.375C20.5001 28.3958 20.0833 27.6042 19.6251 27C19.1667 26.3958 18.4843 25.8021 17.5782 25.2187C16.6718 24.6354 15.9428 24.2187 15.3907 23.9687C14.8386 23.7187 14.0157 23.3802 12.9219 22.9531C11.8282 22.526 11.1145 22.2396 10.7813 22.0937C7.88542 20.8229 5.61979 19.3542 3.98438 17.6875C2.34896 16.0208 1.53125 13.8229 1.53125 11.0937C1.53125 7.8021 2.72396 5.1302 5.10938 3.0781C7.49479 1.026 10.3645 0 13.7188 0C16.1563 0 18.2553 0.2708 20.0157 0.8125C21.7761 1.3542 22.9479 1.6667 23.5313 1.75M32.2813 15.9375L35.0938 15.9375C35.0938 13.9375 35.0834 12.3073 35.0626 11.0469C35.0416 9.7865 35.0104 8.9115 34.9688 8.4219C34.9271 7.9323 34.9063 7.6458 34.9063 7.5625C34.9063 7.3542 34.9948 7.1979 35.1718 7.0937C35.349 6.9896 35.651 6.8698 36.0782 6.7344C36.5052 6.599 36.8229 6.4896 37.0313 6.4062C37.2813 6.3229 37.5782 6.1875 37.9218 6C38.2657 5.8125 38.5626 5.651 38.8126 5.5156C39.0626 5.3802 39.2604 5.3125 39.4063 5.3125C39.6979 5.3125 39.8438 5.5104 39.8438 5.9062C39.7188 7.5312 39.6354 9.6667 39.5938 12.3125L39.5313 15.9375L46.8751 15.9375C47.1666 15.9375 47.3229 16.0729 47.3438 16.3437L47.3438 17.0312C47.3438 17.5521 46.8438 17.8125 45.8438 17.8125L39.5313 17.8125C39.1979 25.5417 39.0834 31.0625 39.1876 34.375C39.2709 36.4583 39.4427 37.9167 39.7032 38.75C39.9635 39.5833 40.4791 40 41.2501 40C42.9584 40 44.7709 39.2813 46.6876 37.8438C47.0209 37.9271 47.2396 38.2188 47.3438 38.7188C44.9479 41.4063 42.1876 42.75 39.0626 42.75C36.2084 42.75 34.7813 40.7292 34.7813 36.6875C34.7813 35.5833 34.8334 32.7135 34.9376 28.0781C35.0416 23.4427 35.0938 20.0208 35.0938 17.8125L31.5313 17.8125C31.3229 17.8125 31.2084 17.6771 31.1876 17.4062L31.1876 16.8437C31.1876 16.2396 31.5521 15.9375 32.2813 15.9375M67.0313 28.5625L61.7813 29.8437C59.6979 30.3646 58.1563 31.2187 57.1563 32.4063C56.1563 33.5938 55.6563 34.875 55.6563 36.25C55.6563 37.3542 56.0885 38.3958 56.9532 39.375C57.8177 40.3542 58.9584 40.8438 60.3751 40.8438C60.6251 40.8438 60.9218 40.7917 61.2657 40.6875C61.6093 40.5833 61.9115 40.4688 62.1718 40.3438C62.4322 40.2188 62.776 40.0052 63.2031 39.7031C63.6303 39.401 63.9376 39.1771 64.1251 39.0313C64.3126 38.8854 64.6303 38.6302 65.0781 38.2656C65.526 37.901 65.7917 37.6771 65.8751 37.5938C66.3958 37.2188 66.677 36.6979 66.7188 36.0313L67.0313 28.5625M66.7188 39.1875L66.5938 39.1875L65.3751 40.1563C64.0001 41.2188 62.8645 41.9167 61.9688 42.25C61.0729 42.5833 59.9479 42.75 58.5938 42.75C53.5104 42.75 50.9688 40.6667 50.9688 36.5C50.9688 34.4583 51.8854 32.6875 53.7188 31.1875C55.5521 29.6875 57.9896 28.5937 61.0313 27.9062L66.7813 26.625C66.9895 26.5417 67.0938 26.0937 67.0938 25.2812C67.0938 22.1562 66.6145 19.9479 65.6563 18.6562C64.698 17.3646 63.5781 16.7187 62.2969 16.7187C61.0157 16.7187 59.8751 16.974 58.8751 17.4844C57.8751 17.9948 57.3751 18.6979 57.3751 19.5937C57.3751 20.1562 57.4166 20.5625 57.5001 20.8125C57.6251 21.0625 57.6876 21.4219 57.6876 21.8906C57.6876 22.3594 57.4218 22.875 56.8907 23.4375C56.3593 24 55.6876 24.2812 54.8751 24.2812C54.1459 24.2812 53.5573 24.0469 53.1093 23.5781C52.6615 23.1094 52.4376 22.5104 52.4376 21.7812C52.4376 20.1562 53.5365 18.6719 55.7343 17.3281C57.9323 15.9844 60.2916 15.3125 62.8126 15.3125C68.8751 15.3125 71.7708 18.7708 71.5001 25.6875L71.1876 34.75C71.1042 36.6667 71.2344 38.0573 71.5781 38.9219C71.9219 39.7865 72.6458 40.2188 73.7501 40.2188C74.2708 40.2188 74.698 40.0469 75.0313 39.7031C75.3645 39.3594 75.552 39.1875 75.5938 39.1875C75.7605 39.1875 75.9531 39.2708 76.1719 39.4375C76.3906 39.6042 76.5001 39.7917 76.5001 40C76.5001 40.125 76.2865 40.4063 75.8594 40.8438C75.4322 41.2813 74.7917 41.7083 73.9376 42.125C73.0833 42.5417 72.2083 42.75 71.3126 42.75C68.9792 42.7708 67.448 41.5833 66.7188 39.1875M80.2813 15.9375L83.0938 15.9375C83.0938 13.9375 83.0833 12.3073 83.0626 11.0469C83.0417 9.7865 83.0105 8.9115 82.9688 8.4219C82.927 7.9323 82.9063 7.6458 82.9063 7.5625C82.9063 7.3542 82.9947 7.1979 83.1719 7.0937C83.349 6.9896 83.651 6.8698 84.0781 6.7344C84.5053 6.599 84.823 6.4896 85.0313 6.4062C85.2813 6.3229 85.5781 6.1875 85.9219 6C86.2656 5.8125 86.5626 5.651 86.8126 5.5156C87.0626 5.3802 87.2605 5.3125 87.4063 5.3125C87.698 5.3125 87.8438 5.5104 87.8438 5.9062C87.7188 7.5312 87.6355 9.6667 87.5938 12.3125L87.5313 15.9375L94.8751 15.9375C95.1667 15.9375 95.323 16.0729 95.3438 16.3437L95.3438 17.0312C95.3438 17.5521 94.8438 17.8125 93.8438 17.8125L87.5313 17.8125C87.198 25.5417 87.0833 31.0625 87.1876 34.375C87.2708 36.4583 87.4428 37.9167 87.7031 38.75C87.9635 39.5833 88.4792 40 89.2501 40C90.9583 40 92.7708 39.2813 94.6876 37.8438C95.0208 37.9271 95.2395 38.2188 95.3438 38.7188C92.948 41.4063 90.1876 42.75 87.0626 42.75C84.2083 42.75 82.7813 40.7292 82.7813 36.6875C82.7813 35.5833 82.8333 32.7135 82.9376 28.0781C83.0417 23.4427 83.0938 20.0208 83.0938 17.8125L79.5313 17.8125C79.323 17.8125 79.2083 17.6771 79.1876 17.4062L79.1876 16.8437C79.1876 16.2396 79.552 15.9375 80.2813 15.9375M103.562 25.5625L115.937 25.2187C116.541 25.2187 116.833 24.9479 116.812 24.4062C116.812 21.9687 116.25 20.0885 115.125 18.7656C114 17.4427 112.646 16.7812 111.062 16.7812C109.562 16.7812 108.067 17.4792 106.578 18.875C105.088 20.2708 104.083 22.5 103.562 25.5625M120.469 36.4375C121.156 36.4792 121.583 36.8125 121.75 37.4375C119.062 40.9792 115.5 42.75 111.062 42.75C106.791 42.75 103.573 41.4583 101.406 38.875C99.4892 36.6667 98.5313 33.6354 98.5313 29.7812C98.5313 25.4271 99.8333 21.9271 102.437 19.2812C105.041 16.6354 107.916 15.3125 111.062 15.3125C114.937 15.3125 117.677 16.349 119.281 18.4219C120.885 20.4948 121.687 23.0417 121.687 26.0625C121.687 26.7917 121.302 27.1562 120.531 27.1562L103.375 27.4062C103.375 31.0312 104.021 33.8854 105.312 35.9688C106.208 37.4271 107.338 38.5313 108.703 39.2813C110.067 40.0313 111.364 40.4063 112.594 40.4063C114.219 40.4063 115.62 40.0729 116.797 39.4063C117.974 38.7396 119.198 37.75 120.469 36.4375M154.312 4.6875C153.125 4.6875 151.812 5.1562 150.375 6.0937C148.937 7.0312 148.219 8.3958 148.219 10.1875C148.219 10.9583 148.005 11.7083 147.578 12.4375C147.151 13.1667 146.531 13.5312 145.719 13.5312C145.031 13.5312 144.495 13.2917 144.109 12.8125C143.724 12.3333 143.531 11.8437 143.531 11.3437C143.531 10.6979 143.734 9.9583 144.14 9.125C144.547 8.2917 145.177 7.3958 146.031 6.4375C146.885 5.4792 148.156 4.6823 149.844 4.0469C151.531 3.4115 153.469 3.0937 155.656 3.0937C158.594 3.0937 160.817 3.8177 162.328 5.2656C163.838 6.7135 164.594 8.25 164.594 9.875C164.594 10.5625 164.541 11.1719 164.437 11.7031C164.333 12.2344 164.088 12.8958 163.703 13.6875C163.317 14.4792 162.666 15.3125 161.75 16.1875C160.833 17.0625 159.646 17.9479 158.187 18.8437L158.25 18.9687C160.562 19.3437 162.594 20.3542 164.344 22C166.094 23.6458 166.969 26.0417 166.969 29.1875C166.969 33.2917 165.562 36.5938 162.75 39.0938C159.937 41.5938 156.541 42.8438 152.562 42.8438C150.437 42.8438 148.37 42.4271 146.359 41.5938C144.349 40.7604 143.344 39.7396 143.344 38.5313C143.344 38.0104 143.635 37.5104 144.219 37.0313C144.802 36.5521 145.406 36.3125 146.031 36.3125C147.052 36.3125 147.969 36.8646 148.781 37.9688C148.864 38.0521 149.015 38.2969 149.234 38.7031C149.453 39.1094 149.646 39.4167 149.812 39.625C149.979 39.8333 150.224 40.0885 150.547 40.3906C150.87 40.6927 151.265 40.9063 151.734 41.0313C152.203 41.1563 152.76 41.2188 153.406 41.2188C155.073 41.2188 156.875 40.2917 158.812 38.4375C160.75 36.5833 161.719 33.8021 161.719 30.0937C161.719 24.5104 158.906 21.7187 153.281 21.7187C152.177 21.7187 151.26 21.7604 150.531 21.8437L150.187 20.4375C152.875 20.0208 155.192 18.75 157.14 16.625C159.088 14.5 160.062 12.5729 160.062 10.8437C160.062 8.9687 159.489 7.474 158.344 6.3594C157.198 5.2448 155.854 4.6875 154.312 4.6875"/>
 </g><g id="group21" transform="matrix(0.99999982658441 0 0 0.99999982658441 291.599953082796 11.4221144500415)" fill="none">
  <path id="shape011" transform="matrix(0.999999949903797 0 0 0.999999949903797 0 -2.8421709430404e-14)" fill="none" stroke="#003052" stroke-width="5.76" stroke-linecap="square" stroke-linejoin="bevel" d="M218.88 49.68C218.88 22.2425 169.882 1.68006e-15 109.44 0C48.998 -1.68006e-15 7.40202e-15 22.2425 0 49.68C-7.40202e-15 77.1175 48.998 99.36 109.44 99.36C169.882 99.36 218.88 77.1175 218.88 49.68Z"/>
  <path id="shape31" transform="matrix(0.999999949903797 0 0 0.999999949903797 29.3187485312419 27.1149986416415)" fill="#003052" fill-rule="evenodd" d="M23.5313 1.75C24.1146 4.6875 24.5001 7.4375 24.6876 10C24.3751 10.25 23.8958 10.375 23.2501 10.375C21.4583 4.4792 18.0833 1.5417 13.125 1.5625C11.2917 1.5625 9.64585 2.3958 8.1875 4.0625C6.72917 5.7292 6 7.4896 6 9.3437C6 10.3437 6.23438 11.2969 6.70313 12.2031C7.17188 13.1094 7.71354 13.8594 8.32815 14.4531C8.94275 15.0469 9.77605 15.6458 10.8282 16.25C11.8803 16.8542 12.7343 17.3021 13.3907 17.5937C14.0469 17.8854 14.9167 18.2396 16.0001 18.6562C17.0833 19.0729 17.7292 19.3229 17.9376 19.4062C20.6458 20.5729 22.7813 21.9896 24.3438 23.6562C25.9063 25.3229 26.6876 27.5521 26.6876 30.3437C26.6876 32.3646 26.1458 34.3021 25.0626 36.1563C23.9792 38.0104 22.5208 39.5104 20.6876 40.6563C18.4376 42.0521 15.8021 42.75 12.7813 42.75C10.7605 42.75 8.64065 42.5052 6.42188 42.0156C4.20313 41.526 2.48958 41.2813 1.28125 41.2813C0.63542 38.5938 0.20833 35.3542 0 31.5625C0.375 31.375 0.59896 31.2708 0.67188 31.25C0.74479 31.2292 1 31.2708 1.4375 31.375C2.125 34.5208 3.52083 36.9271 5.625 38.5938C7.72917 40.2604 10.2917 41.0938 13.3125 41.0938C15.8333 41.0938 17.8178 40.3281 19.2657 38.7969C20.7136 37.2656 21.4376 35.1979 21.4376 32.5938C21.4376 31.4271 21.2501 30.3542 20.8751 29.375C20.5001 28.3958 20.0833 27.6042 19.6251 27C19.1667 26.3958 18.4843 25.8021 17.5782 25.2187C16.6718 24.6354 15.9428 24.2187 15.3907 23.9687C14.8386 23.7187 14.0157 23.3802 12.9219 22.9531C11.8282 22.526 11.1145 22.2396 10.7813 22.0937C7.88542 20.8229 5.61979 19.3542 3.98438 17.6875C2.34896 16.0208 1.53125 13.8229 1.53125 11.0937C1.53125 7.8021 2.72396 5.1302 5.10938 3.0781C7.49479 1.026 10.3645 0 13.7188 0C16.1563 0 18.2553 0.2708 20.0157 0.8125C21.7761 1.3542 22.9479 1.6667 23.5313 1.75M32.2813 15.9375L35.0938 15.9375C35.0938 13.9375 35.0834 12.3073 35.0626 11.0469C35.0416 9.7865 35.0104 8.9115 34.9688 8.4219C34.9271 7.9323 34.9063 7.6458 34.9063 7.5625C34.9063 7.3542 34.9948 7.1979 35.1718 7.0937C35.349 6.9896 35.651 6.8698 36.0782 6.7344C36.5052 6.599 36.8229 6.4896 37.0313 6.4062C37.2813 6.3229 37.5782 6.1875 37.9218 6C38.2657 5.8125 38.5626 5.651 38.8126 5.5156C39.0626 5.3802 39.2604 5.3125 39.4063 5.3125C39.6979 5.3125 39.8438 5.5104 39.8438 5.9062C39.7188 7.5312 39.6354 9.6667 39.5938 12.3125L39.5313 15.9375L46.8751 15.9375C47.1666 15.9375 47.3229 16.0729 47.3438 16.3437L47.3438 17.0312C47.3438 17.5521 46.8438 17.8125 45.8438 17.8125L39.5313 17.8125C39.1979 25.5417 39.0834 31.0625 39.1876 34.375C39.2709 36.4583 39.4427 37.9167 39.7032 38.75C39.9635 39.5833 40.4791 40 41.2501 40C42.9584 40 44.7709 39.2813 46.6876 37.8438C47.0209 37.9271 47.2396 38.2188 47.3438 38.7188C44.9479 41.4063 42.1876 42.75 39.0626 42.75C36.2084 42.75 34.7813 40.7292 34.7813 36.6875C34.7813 35.5833 34.8334 32.7135 34.9376 28.0781C35.0416 23.4427 35.0938 20.0208 35.0938 17.8125L31.5313 17.8125C31.3229 17.8125 31.2084 17.6771 31.1876 17.4062L31.1876 16.8437C31.1876 16.2396 31.5521 15.9375 32.2813 15.9375M67.0313 28.5625L61.7813 29.8437C59.6979 30.3646 58.1563 31.2187 57.1563 32.4063C56.1563 33.5938 55.6563 34.875 55.6563 36.25C55.6563 37.3542 56.0885 38.3958 56.9532 39.375C57.8177 40.3542 58.9584 40.8438 60.3751 40.8438C60.6251 40.8438 60.9218 40.7917 61.2657 40.6875C61.6093 40.5833 61.9115 40.4688 62.1718 40.3438C62.4322 40.2188 62.776 40.0052 63.2031 39.7031C63.6303 39.401 63.9376 39.1771 64.1251 39.0313C64.3126 38.8854 64.6303 38.6302 65.0781 38.2656C65.526 37.901 65.7917 37.6771 65.8751 37.5938C66.3958 37.2188 66.677 36.6979 66.7188 36.0313L67.0313 28.5625M66.7188 39.1875L66.5938 39.1875L65.3751 40.1563C64.0001 41.2188 62.8645 41.9167 61.9688 42.25C61.0729 42.5833 59.9479 42.75 58.5938 42.75C53.5104 42.75 50.9688 40.6667 50.9688 36.5C50.9688 34.4583 51.8854 32.6875 53.7188 31.1875C55.5521 29.6875 57.9896 28.5937 61.0313 27.9062L66.7813 26.625C66.9895 26.5417 67.0938 26.0937 67.0938 25.2812C67.0938 22.1562 66.6145 19.9479 65.6563 18.6562C64.698 17.3646 63.5781 16.7187 62.2969 16.7187C61.0157 16.7187 59.8751 16.974 58.8751 17.4844C57.8751 17.9948 57.3751 18.6979 57.3751 19.5937C57.3751 20.1562 57.4166 20.5625 57.5001 20.8125C57.6251 21.0625 57.6876 21.4219 57.6876 21.8906C57.6876 22.3594 57.4218 22.875 56.8907 23.4375C56.3593 24 55.6876 24.2812 54.8751 24.2812C54.1459 24.2812 53.5573 24.0469 53.1093 23.5781C52.6615 23.1094 52.4376 22.5104 52.4376 21.7812C52.4376 20.1562 53.5365 18.6719 55.7343 17.3281C57.9323 15.9844 60.2916 15.3125 62.8126 15.3125C68.8751 15.3125 71.7708 18.7708 71.5001 25.6875L71.1876 34.75C71.1042 36.6667 71.2344 38.0573 71.5781 38.9219C71.9219 39.7865 72.6458 40.2188 73.7501 40.2188C74.2708 40.2188 74.698 40.0469 75.0313 39.7031C75.3645 39.3594 75.552 39.1875 75.5938 39.1875C75.7605 39.1875 75.9531 39.2708 76.1719 39.4375C76.3906 39.6042 76.5001 39.7917 76.5001 40C76.5001 40.125 76.2865 40.4063 75.8594 40.8438C75.4322 41.2813 74.7917 41.7083 73.9376 42.125C73.0833 42.5417 72.2083 42.75 71.3126 42.75C68.9792 42.7708 67.448 41.5833 66.7188 39.1875M80.2813 15.9375L83.0938 15.9375C83.0938 13.9375 83.0833 12.3073 83.0626 11.0469C83.0417 9.7865 83.0105 8.9115 82.9688 8.4219C82.927 7.9323 82.9063 7.6458 82.9063 7.5625C82.9063 7.3542 82.9947 7.1979 83.1719 7.0937C83.349 6.9896 83.651 6.8698 84.0781 6.7344C84.5053 6.599 84.823 6.4896 85.0313 6.4062C85.2813 6.3229 85.5781 6.1875 85.9219 6C86.2656 5.8125 86.5626 5.651 86.8126 5.5156C87.0626 5.3802 87.2605 5.3125 87.4063 5.3125C87.698 5.3125 87.8438 5.5104 87.8438 5.9062C87.7188 7.5312 87.6355 9.6667 87.5938 12.3125L87.5313 15.9375L94.8751 15.9375C95.1667 15.9375 95.323 16.0729 95.3438 16.3437L95.3438 17.0312C95.3438 17.5521 94.8438 17.8125 93.8438 17.8125L87.5313 17.8125C87.198 25.5417 87.0833 31.0625 87.1876 34.375C87.2708 36.4583 87.4428 37.9167 87.7031 38.75C87.9635 39.5833 88.4792 40 89.2501 40C90.9583 40 92.7708 39.2813 94.6876 37.8438C95.0208 37.9271 95.2395 38.2188 95.3438 38.7188C92.948 41.4063 90.1876 42.75 87.0626 42.75C84.2083 42.75 82.7813 40.7292 82.7813 36.6875C82.7813 35.5833 82.8333 32.7135 82.9376 28.0781C83.0417 23.4427 83.0938 20.0208 83.0938 17.8125L79.5313 17.8125C79.323 17.8125 79.2083 17.6771 79.1876 17.4062L79.1876 16.8437C79.1876 16.2396 79.552 15.9375 80.2813 15.9375M103.562 25.5625L115.937 25.2187C116.541 25.2187 116.833 24.9479 116.812 24.4062C116.812 21.9687 116.25 20.0885 115.125 18.7656C114 17.4427 112.646 16.7812 111.062 16.7812C109.562 16.7812 108.067 17.4792 106.578 18.875C105.088 20.2708 104.083 22.5 103.562 25.5625M120.469 36.4375C121.156 36.4792 121.583 36.8125 121.75 37.4375C119.062 40.9792 115.5 42.75 111.062 42.75C106.791 42.75 103.573 41.4583 101.406 38.875C99.4892 36.6667 98.5313 33.6354 98.5313 29.7812C98.5313 25.4271 99.8333 21.9271 102.437 19.2812C105.041 16.6354 107.916 15.3125 111.062 15.3125C114.937 15.3125 117.677 16.349 119.281 18.4219C120.885 20.4948 121.687 23.0417 121.687 26.0625C121.687 26.7917 121.302 27.1562 120.531 27.1562L103.375 27.4062C103.375 31.0312 104.021 33.8854 105.312 35.9688C106.208 37.4271 107.338 38.5313 108.703 39.2813C110.067 40.0313 111.364 40.4063 112.594 40.4063C114.219 40.4063 115.62 40.0729 116.797 39.4063C117.974 38.7396 119.198 37.75 120.469 36.4375M144.187 12.1875C144.187 10.0208 145.177 7.9635 147.156 6.0156C149.135 4.0677 151.771 3.0937 155.062 3.0937C158.041 3.0937 160.698 3.9115 163.031 5.5469C165.364 7.1823 166.531 9.6042 166.531 12.8125C166.531 14.3542 166.208 15.8073 165.562 17.1719C164.916 18.5365 164.224 19.6562 163.484 20.5312C162.745 21.4062 161.625 22.5625 160.125 24L153.656 30.2187C153.364 30.5104 152.896 31.0521 152.25 31.8437C151.604 32.6354 150.885 33.7344 150.094 35.1406C149.302 36.5469 148.906 37.6979 148.906 38.5938L160.969 38.5938C162.073 38.5938 162.953 38.0625 163.609 37C164.265 35.9375 164.875 34.2083 165.437 31.8125C165.854 31.7292 166.26 31.8437 166.656 32.1563C166.573 35.1354 166.062 38.5 165.125 42.25C163.166 42.1667 161.5 42.125 160.125 42.125L148.906 42.125L144.25 42.25C144.25 40.2083 144.729 38.2396 145.687 36.3438C146.646 34.4479 148.594 32 151.531 29L156.281 24.3437C158.073 22.5521 159.286 20.7812 159.922 19.0312C160.557 17.2812 160.875 15.2917 160.875 13.0625C160.875 10.2917 160.203 8.2031 158.859 6.7969C157.515 5.3906 156.125 4.6875 154.687 4.6875C152.604 4.6875 151.078 5.1771 150.109 6.1562C149.14 7.1354 148.656 8.1562 148.656 9.2187C148.656 9.4271 148.745 9.724 148.922 10.1094C149.099 10.4948 149.187 10.7083 149.187 10.75C149.354 11.3542 149.437 11.7812 149.437 12.0312C149.437 12.5937 149.14 13.099 148.547 13.5469C147.953 13.9948 147.354 14.2187 146.75 14.2187C146.021 14.2187 145.411 14.0417 144.922 13.6875C144.432 13.3333 144.187 12.8333 144.187 12.1875"/>
 </g><g id="group31" transform="matrix(0.99999982658441 0 0 -0.99999982658441 39.6779035615343 193.942079676597)" fill="none">
  <path id="shape41" transform="translate(-3.11874025271663e-07, -2.8421709430404e-14)" fill="none" stroke="#441521" stroke-width="5.76" stroke-linecap="square" stroke-linejoin="bevel" stroke-dasharray="5.76,11.52" d="M13.1642 0C-3.63583 23.52 -4.35583 46.8 11.0042 69.84"/>
  <path id="shape51" transform="translate(10.8241751961575, 72.5399989710868)" fill="#000000" fill-rule="evenodd" stroke="#441521" stroke-width="5.76" stroke-linecap="butt" stroke-linejoin="miter" stroke-miterlimit="2.88000011444092" d="M0 3.02055L4.86 0L4.35507 4.5Z"/>
 </g><g id="group51" transform="matrix(0.99999982658441 0 0 0.99999982658441 220.679961698636 284.379979472806)" fill="none">
  <path id="shape031" transform="matrix(0 -0.999999966633268 -0.999999966633268 0 77.0399964005144 15.6841781034356)" fill="none" stroke="#441521" stroke-width="5.76" stroke-linecap="square" stroke-linejoin="bevel" stroke-dasharray="5.76,11.52" d="M13.1642 0C-3.63583 23.52 -4.35583 46.8 11.0042 69.84"/>
  <path id="shape111" transform="matrix(0 -0.999999966633268 -0.999999966633268 0 4.49999984984922 4.85999983783773)" fill="#000000" fill-rule="evenodd" stroke="#441521" stroke-width="5.76" stroke-linecap="butt" stroke-linejoin="miter" stroke-miterlimit="2.88000011444092" d="M0 3.02055L4.86 0L4.35507 4.5Z"/>
 </g><g id="group61" transform="matrix(0.99999982658441 0 0 0.99999982658441 291.599956078216 200.782082971827)" fill="none">
  <path id="shape041" transform="matrix(0.999999922533397 0 0 0.999999922533397 -3.97903932025656e-13 2.8421709430404e-14)" fill="none" stroke="#003052" stroke-width="5.76" stroke-linecap="square" stroke-linejoin="bevel" d="M218.88 49.68C218.88 22.2425 169.882 1.68006e-15 109.44 0C48.998 -1.68006e-15 7.40202e-15 22.2425 0 49.68C-7.40202e-15 77.1175 48.998 99.36 109.44 99.36C169.882 99.36 218.88 77.1175 218.88 49.68Z"/>
  <path id="shape61" transform="matrix(0.999999922533397 0 0 0.999999922533397 29.318747728776 27.1149978994928)" fill="#003052" fill-rule="evenodd" d="M23.5313 1.75C24.1146 4.6875 24.5001 7.4375 24.6876 10C24.3751 10.25 23.8958 10.375 23.2501 10.375C21.4583 4.4792 18.0833 1.5417 13.125 1.5625C11.2917 1.5625 9.64585 2.3958 8.1875 4.0625C6.72917 5.7292 6 7.4896 6 9.3437C6 10.3437 6.23438 11.2969 6.70313 12.2031C7.17188 13.1094 7.71354 13.8594 8.32815 14.4531C8.94275 15.0469 9.77605 15.6458 10.8282 16.25C11.8803 16.8542 12.7343 17.3021 13.3907 17.5937C14.0469 17.8854 14.9167 18.2396 16.0001 18.6562C17.0833 19.0729 17.7292 19.3229 17.9376 19.4062C20.6458 20.5729 22.7813 21.9896 24.3438 23.6562C25.9063 25.3229 26.6876 27.5521 26.6876 30.3437C26.6876 32.3646 26.1458 34.3021 25.0626 36.1563C23.9792 38.0104 22.5208 39.5104 20.6876 40.6563C18.4376 42.0521 15.8021 42.75 12.7813 42.75C10.7605 42.75 8.64065 42.5052 6.42188 42.0156C4.20313 41.526 2.48958 41.2813 1.28125 41.2813C0.63542 38.5938 0.20833 35.3542 0 31.5625C0.375 31.375 0.59896 31.2708 0.67188 31.25C0.74479 31.2292 1 31.2708 1.4375 31.375C2.125 34.5208 3.52083 36.9271 5.625 38.5938C7.72917 40.2604 10.2917 41.0938 13.3125 41.0938C15.8333 41.0938 17.8178 40.3281 19.2657 38.7969C20.7136 37.2656 21.4376 35.1979 21.4376 32.5938C21.4376 31.4271 21.2501 30.3542 20.8751 29.375C20.5001 28.3958 20.0833 27.6042 19.6251 27C19.1667 26.3958 18.4843 25.8021 17.5782 25.2187C16.6718 24.6354 15.9428 24.2187 15.3907 23.9687C14.8386 23.7187 14.0157 23.3802 12.9219 22.9531C11.8282 22.526 11.1145 22.2396 10.7813 22.0937C7.88542 20.8229 5.61979 19.3542 3.98438 17.6875C2.34896 16.0208 1.53125 13.8229 1.53125 11.0937C1.53125 7.8021 2.72396 5.1302 5.10938 3.0781C7.49479 1.026 10.3645 0 13.7188 0C16.1563 0 18.2553 0.2708 20.0157 0.8125C21.7761 1.3542 22.9479 1.6667 23.5313 1.75M32.2813 15.9375L35.0938 15.9375C35.0938 13.9375 35.0834 12.3073 35.0626 11.0469C35.0416 9.7865 35.0104 8.9115 34.9688 8.4219C34.9271 7.9323 34.9063 7.6458 34.9063 7.5625C34.9063 7.3542 34.9948 7.1979 35.1718 7.0937C35.349 6.9896 35.651 6.8698 36.0782 6.7344C36.5052 6.599 36.8229 6.4896 37.0313 6.4062C37.2813 6.3229 37.5782 6.1875 37.9218 6C38.2657 5.8125 38.5626 5.651 38.8126 5.5156C39.0626 5.3802 39.2604 5.3125 39.4063 5.3125C39.6979 5.3125 39.8438 5.5104 39.8438 5.9062C39.7188 7.5312 39.6354 9.6667 39.5938 12.3125L39.5313 15.9375L46.8751 15.9375C47.1666 15.9375 47.3229 16.0729 47.3438 16.3437L47.3438 17.0312C47.3438 17.5521 46.8438 17.8125 45.8438 17.8125L39.5313 17.8125C39.1979 25.5417 39.0834 31.0625 39.1876 34.375C39.2709 36.4583 39.4427 37.9167 39.7032 38.75C39.9635 39.5833 40.4791 40 41.2501 40C42.9584 40 44.7709 39.2813 46.6876 37.8438C47.0209 37.9271 47.2396 38.2188 47.3438 38.7188C44.9479 41.4063 42.1876 42.75 39.0626 42.75C36.2084 42.75 34.7813 40.7292 34.7813 36.6875C34.7813 35.5833 34.8334 32.7135 34.9376 28.0781C35.0416 23.4427 35.0938 20.0208 35.0938 17.8125L31.5313 17.8125C31.3229 17.8125 31.2084 17.6771 31.1876 17.4062L31.1876 16.8437C31.1876 16.2396 31.5521 15.9375 32.2813 15.9375M67.0313 28.5625L61.7813 29.8437C59.6979 30.3646 58.1563 31.2187 57.1563 32.4063C56.1563 33.5938 55.6563 34.875 55.6563 36.25C55.6563 37.3542 56.0885 38.3958 56.9532 39.375C57.8177 40.3542 58.9584 40.8438 60.3751 40.8438C60.6251 40.8438 60.9218 40.7917 61.2657 40.6875C61.6093 40.5833 61.9115 40.4688 62.1718 40.3438C62.4322 40.2188 62.776 40.0052 63.2031 39.7031C63.6303 39.401 63.9376 39.1771 64.1251 39.0313C64.3126 38.8854 64.6303 38.6302 65.0781 38.2656C65.526 37.901 65.7917 37.6771 65.8751 37.5938C66.3958 37.2188 66.677 36.6979 66.7188 36.0313L67.0313 28.5625M66.7188 39.1875L66.5938 39.1875L65.3751 40.1563C64.0001 41.2188 62.8645 41.9167 61.9688 42.25C61.0729 42.5833 59.9479 42.75 58.5938 42.75C53.5104 42.75 50.9688 40.6667 50.9688 36.5C50.9688 34.4583 51.8854 32.6875 53.7188 31.1875C55.5521 29.6875 57.9896 28.5937 61.0313 27.9062L66.7813 26.625C66.9895 26.5417 67.0938 26.0937 67.0938 25.2812C67.0938 22.1562 66.6145 19.9479 65.6563 18.6562C64.698 17.3646 63.5781 16.7187 62.2969 16.7187C61.0157 16.7187 59.8751 16.974 58.8751 17.4844C57.8751 17.9948 57.3751 18.6979 57.3751 19.5937C57.3751 20.1562 57.4166 20.5625 57.5001 20.8125C57.6251 21.0625 57.6876 21.4219 57.6876 21.8906C57.6876 22.3594 57.4218 22.875 56.8907 23.4375C56.3593 24 55.6876 24.2812 54.8751 24.2812C54.1459 24.2812 53.5573 24.0469 53.1093 23.5781C52.6615 23.1094 52.4376 22.5104 52.4376 21.7812C52.4376 20.1562 53.5365 18.6719 55.7343 17.3281C57.9323 15.9844 60.2916 15.3125 62.8126 15.3125C68.8751 15.3125 71.7708 18.7708 71.5001 25.6875L71.1876 34.75C71.1042 36.6667 71.2344 38.0573 71.5781 38.9219C71.9219 39.7865 72.6458 40.2188 73.7501 40.2188C74.2708 40.2188 74.698 40.0469 75.0313 39.7031C75.3645 39.3594 75.552 39.1875 75.5938 39.1875C75.7605 39.1875 75.9531 39.2708 76.1719 39.4375C76.3906 39.6042 76.5001 39.7917 76.5001 40C76.5001 40.125 76.2865 40.4063 75.8594 40.8438C75.4322 41.2813 74.7917 41.7083 73.9376 42.125C73.0833 42.5417 72.2083 42.75 71.3126 42.75C68.9792 42.7708 67.448 41.5833 66.7188 39.1875M80.2813 15.9375L83.0938 15.9375C83.0938 13.9375 83.0833 12.3073 83.0626 11.0469C83.0417 9.7865 83.0105 8.9115 82.9688 8.4219C82.927 7.9323 82.9063 7.6458 82.9063 7.5625C82.9063 7.3542 82.9947 7.1979 83.1719 7.0937C83.349 6.9896 83.651 6.8698 84.0781 6.7344C84.5053 6.599 84.823 6.4896 85.0313 6.4062C85.2813 6.3229 85.5781 6.1875 85.9219 6C86.2656 5.8125 86.5626 5.651 86.8126 5.5156C87.0626 5.3802 87.2605 5.3125 87.4063 5.3125C87.698 5.3125 87.8438 5.5104 87.8438 5.9062C87.7188 7.5312 87.6355 9.6667 87.5938 12.3125L87.5313 15.9375L94.8751 15.9375C95.1667 15.9375 95.323 16.0729 95.3438 16.3437L95.3438 17.0312C95.3438 17.5521 94.8438 17.8125 93.8438 17.8125L87.5313 17.8125C87.198 25.5417 87.0833 31.0625 87.1876 34.375C87.2708 36.4583 87.4428 37.9167 87.7031 38.75C87.9635 39.5833 88.4792 40 89.2501 40C90.9583 40 92.7708 39.2813 94.6876 37.8438C95.0208 37.9271 95.2395 38.2188 95.3438 38.7188C92.948 41.4063 90.1876 42.75 87.0626 42.75C84.2083 42.75 82.7813 40.7292 82.7813 36.6875C82.7813 35.5833 82.8333 32.7135 82.9376 28.0781C83.0417 23.4427 83.0938 20.0208 83.0938 17.8125L79.5313 17.8125C79.323 17.8125 79.2083 17.6771 79.1876 17.4062L79.1876 16.8437C79.1876 16.2396 79.552 15.9375 80.2813 15.9375M103.562 25.5625L115.937 25.2187C116.541 25.2187 116.833 24.9479 116.812 24.4062C116.812 21.9687 116.25 20.0885 115.125 18.7656C114 17.4427 112.646 16.7812 111.062 16.7812C109.562 16.7812 108.067 17.4792 106.578 18.875C105.088 20.2708 104.083 22.5 103.562 25.5625M120.469 36.4375C121.156 36.4792 121.583 36.8125 121.75 37.4375C119.062 40.9792 115.5 42.75 111.062 42.75C106.791 42.75 103.573 41.4583 101.406 38.875C99.4892 36.6667 98.5313 33.6354 98.5313 29.7812C98.5313 25.4271 99.8333 21.9271 102.437 19.2812C105.041 16.6354 107.916 15.3125 111.062 15.3125C114.937 15.3125 117.677 16.349 119.281 18.4219C120.885 20.4948 121.687 23.0417 121.687 26.0625C121.687 26.7917 121.302 27.1562 120.531 27.1562L103.375 27.4062C103.375 31.0312 104.021 33.8854 105.312 35.9688C106.208 37.4271 107.338 38.5313 108.703 39.2813C110.067 40.0313 111.364 40.4063 112.594 40.4063C114.219 40.4063 115.62 40.0729 116.797 39.4063C117.974 38.7396 119.198 37.75 120.469 36.4375M157.719 28.75C157.76 18.1042 157.729 11.5937 157.625 9.2187C152.541 16.1771 148.104 22.6875 144.312 28.75L157.719 28.75M167.344 28.75C167.989 28.75 168.312 29.0937 168.312 29.7812C168.312 30.1562 168.12 30.474 167.734 30.7344C167.349 30.9948 166.927 31.125 166.469 31.125L161.969 31.125C161.989 34.5833 162.01 36.7604 162.031 37.6563C162.073 39.0729 162.385 39.9479 162.969 40.2813C163.552 40.6146 164.739 40.8438 166.531 40.9688C166.698 41.1354 166.781 41.3698 166.781 41.6719C166.781 41.974 166.698 42.2292 166.531 42.4375C166.052 42.4375 165.078 42.3854 163.609 42.2813C162.14 42.1771 160.937 42.125 160 42.125C158.854 42.125 157.38 42.1771 155.578 42.2813C153.776 42.3854 152.729 42.4375 152.437 42.4375C152.271 42.2292 152.187 41.974 152.187 41.6719C152.187 41.3698 152.271 41.1354 152.437 40.9688C153.625 40.8854 154.51 40.7917 155.094 40.6875C155.677 40.5833 156.234 40.2865 156.765 39.7969C157.297 39.3073 157.583 38.5938 157.625 37.6563C157.666 36.7604 157.687 34.5833 157.687 31.125L144.562 31.125C143.25 31.125 142.416 30.2292 142.062 28.4375C148.666 18.0625 154.448 9.8437 159.406 3.7812C159.781 3.3021 160.125 3.0729 160.437 3.0937L162.031 3.0937L162.156 3.2187C162.114 3.3437 162.094 3.6823 162.094 4.2344C162.094 4.7865 162.094 5.5625 162.094 6.5625C162.094 7.5625 162.073 8.5104 162.031 9.4062C161.927 11.7604 161.896 18.2083 161.937 28.75L167.344 28.75"/>
 </g><g id="group72" transform="matrix(0.99999982658441 0 0 0.99999982658441 463.077702729239 116.902094972272)" fill="none">
  <path id="shape052" transform="matrix(-0.999999979531917 0 0 0.999999979531917 15.6841767463736 -1.4210854715202e-14)" fill="none" stroke="#441521" stroke-width="5.76" stroke-linecap="square" stroke-linejoin="bevel" stroke-dasharray="5.76,11.52" d="M13.1642 0C-3.63583 23.52 -4.35583 46.8 11.0042 69.84"/>
  <path id="shape122" transform="matrix(-0.999999979531917 0 0 0.999999979531917 4.85999990052466 72.5399974863323)" fill="#000000" fill-rule="evenodd" stroke="#441521" stroke-width="5.76" stroke-linecap="butt" stroke-linejoin="miter" stroke-miterlimit="2.88000011444092" d="M0 3.02055L4.86 0L4.35507 4.5Z"/>
 </g><text id="shape131" krita:useRichText="true" transform="matrix(0.999999736676905 0 0 0.999999736676905 105.739994081628 399.262043624871)" fill="#000000" font-family="Linux Libertine Display" font-size="28" font-size-adjust="0.344572" font-stretch="normal" font-weight="400" kerning="0" letter-spacing="0" text-anchor="middle" word-spacing="0"><tspan x="156">Circular permutation</tspan></text><g id="group511" transform="matrix(-0.999999829494536 0 0 -0.999999829494536 297.559943526753 22.8841878057706)" fill="none">
  <path id="shape0311" transform="matrix(0 -0.999999966633268 -0.999999966633268 0 77.0399964005137 15.6841796628033)" fill="none" stroke="#441521" stroke-width="5.76" stroke-linecap="square" stroke-linejoin="bevel" stroke-dasharray="5.76,11.52" d="M13.1642 0C-3.63583 23.52 -4.35583 46.8 11.0042 69.84"/>
  <path id="shape1111" transform="matrix(0 -0.999999966633268 -0.999999966633268 0 4.49999984984925 4.85999983783767)" fill="#000000" fill-rule="evenodd" stroke="#441521" stroke-width="5.76" stroke-linecap="butt" stroke-linejoin="miter" stroke-miterlimit="2.88000011444092" d="M0 3.02055L4.86 0L4.35507 4.5Z"/>
 </g>
</svg>
